<svg width="86" height="26" viewBox="0 0 86 26" fill="none" xmlns="http://www.w3.org/2000/svg">
<path d="M6.47491 12.8332H10.9379C10.8505 12.3176 10.566 11.8534 10.1419 11.5346C9.74235 11.2538 9.26051 11.1066 8.76838 11.1149C8.22849 11.094 7.69757 11.2542 7.26368 11.5685C6.8566 11.8863 6.57728 12.3341 6.47491 12.8332Z" fill="black"/>
<path fill-rule="evenodd" clip-rule="evenodd" d="M24.8264 16.9026C23.1174 21.8122 18.3564 25.3446 12.7505 25.3446C5.7082 25.3446 -0.000732422 19.7702 -0.000732422 12.8936C-0.000732422 6.01703 5.7082 0.442383 12.7505 0.442383C18.8136 0.442383 23.8883 4.57442 25.1824 10.1119C25.5175 9.85252 25.8895 9.63822 26.2888 9.47666C27.1329 9.13505 28.0614 9.04394 28.9582 9.21475C29.855 9.38555 30.6803 9.8108 31.331 10.4372C31.7683 10.8522 32.1135 11.3506 32.3454 11.9014C32.5773 12.4522 32.6908 13.0435 32.679 13.6388C32.6912 14.2343 32.5778 14.8258 32.3458 15.3766C32.114 15.9274 31.7685 16.4258 31.331 16.8407C30.6844 17.4774 29.8583 17.9119 28.9579 18.0886C28.0576 18.2654 27.1237 18.1762 26.2754 17.8328C25.7339 17.6136 25.2428 17.2972 24.8264 16.9026ZM17.0847 17.8293C17.6508 18.0517 18.2572 18.1601 18.8674 18.1481C19.6853 18.1554 20.4895 17.9444 21.1936 17.5379C21.8755 17.1526 22.4382 16.5947 22.8221 15.9229L20.8621 14.8289C20.6906 15.1788 20.4126 15.4683 20.066 15.6578C19.6949 15.8617 19.2748 15.9648 18.8491 15.9565C18.6029 15.964 18.3573 15.9321 18.1222 15.8623C18.0604 15.844 17.9994 15.8231 17.9392 15.7997C17.7944 15.743 17.6565 15.6722 17.5273 15.5883C17.3986 15.5047 17.2787 15.4083 17.1696 15.3002C16.949 15.0808 16.7764 14.8199 16.6622 14.5336C16.5478 14.2471 16.4943 13.9409 16.5048 13.6335C16.4931 13.3238 16.5461 13.0148 16.6603 12.7255C16.7746 12.4363 16.9479 12.1728 17.1696 11.9508C17.3879 11.734 17.6497 11.5633 17.9388 11.45C18.0838 11.3933 18.2341 11.3516 18.3871 11.3252C18.5392 11.2991 18.6939 11.288 18.8491 11.2928C19.2698 11.2859 19.6844 11.3916 20.0478 11.5988C20.3932 11.7928 20.6706 12.0842 20.8438 12.4347L22.7874 11.3248C22.4238 10.6534 21.8706 10.0979 21.1936 9.72382C20.4875 9.32337 19.6839 9.11616 18.8674 9.12442C18.2572 9.11281 17.6509 9.22163 17.0849 9.44439C16.5188 9.66695 16.0046 9.99892 15.5731 10.4204C15.1415 10.8417 14.8016 11.3437 14.5735 11.8965C14.3455 12.4493 14.2341 13.0414 14.246 13.637C14.2338 14.2329 14.345 14.825 14.573 15.3778C14.801 15.9305 15.1409 16.4325 15.5726 16.8538C16.0042 17.2752 16.5186 17.6069 17.0847 17.8293ZM6.51139 14.5426C6.81378 15.6098 7.6359 16.1435 8.97787 16.1435C9.8413 16.1435 10.4947 15.8589 10.9379 15.2896L12.7595 16.3143C11.8961 17.5379 10.6239 18.1493 8.9432 18.1481C7.49685 18.1481 6.33586 17.7211 5.46033 16.8674C4.58469 16.0136 4.14748 14.9368 4.14869 13.6372C4.13126 13.0428 4.23706 12.451 4.45965 11.8975C4.68213 11.3439 5.01697 10.84 5.4439 10.4159C6.30734 9.55498 7.41553 9.12462 8.76838 9.12462C9.36218 9.10789 9.95275 9.21534 10.5007 9.43947C11.0485 9.6638 11.5411 9.99971 11.9452 10.4248C12.7802 11.2924 13.2301 12.4471 13.1967 13.6372C13.1967 13.9407 13.1693 14.2437 13.1147 14.5426H6.51139ZM27.1254 15.8345C26.8348 15.7198 26.5716 15.5476 26.3524 15.3288H26.3488C26.1258 15.1056 25.9512 14.8408 25.8357 14.5499C25.7583 14.3553 25.7086 14.1516 25.6872 13.9448C25.6767 13.8427 25.6732 13.74 25.6766 13.637C25.6664 13.3253 25.7208 13.0148 25.8365 12.724C25.9524 12.4333 26.1272 12.1685 26.3506 11.9455C26.5698 11.7267 26.833 11.5545 27.1236 11.4396C27.4142 11.3248 27.726 11.2699 28.0393 11.2786C28.1739 11.2753 28.3083 11.2835 28.4408 11.3028C28.6179 11.3288 28.7918 11.3748 28.9588 11.4406C29.2508 11.5553 29.5156 11.7271 29.7371 11.9455C29.9632 12.1671 30.1404 12.4314 30.2579 12.7222C30.3754 13.0132 30.4306 13.3245 30.4202 13.637C30.4306 13.9495 30.3756 14.2608 30.2585 14.5517C30.1413 14.8425 29.9645 15.107 29.7389 15.3288C29.5174 15.5472 29.2526 15.719 28.9606 15.8337C28.6687 15.9484 28.3557 16.0035 28.0411 15.9957C27.7278 16.0041 27.416 15.9494 27.1254 15.8345Z" fill="black"/>
<path d="M39.1329 9.12467C39.5729 9.11257 40.0106 9.18997 40.4183 9.35196C40.826 9.51395 41.1947 9.75699 41.501 10.0656C42.1289 10.6917 42.4428 11.5574 42.4428 12.6626V17.9098H40.184V12.9294C40.184 12.3602 40.0261 11.9244 39.7104 11.622C39.5425 11.4678 39.3445 11.3482 39.1282 11.2703C38.912 11.1923 38.6819 11.1577 38.4516 11.1684C38.193 11.1574 37.9348 11.1991 37.6936 11.291C37.4524 11.3829 37.2335 11.5229 37.0508 11.7021C36.7011 12.0578 36.5262 12.5879 36.5262 13.2922V17.9098H34.2674V9.37191H36.5262V10.3289C37.0702 9.52726 37.9392 9.12585 39.1329 9.12467Z" fill="black"/>
<path d="M49.9661 9.36469H52.4617L49.1354 17.9026H46.5542L43.2298 9.36469H45.7217L47.8348 15.3448L49.9661 9.36469Z" fill="black"/>
<path d="M55.0957 14.5427C55.3981 15.61 56.2203 16.1436 57.5622 16.1436C58.4256 16.1436 59.079 15.859 59.5222 15.2898L61.3439 16.3143C60.4804 17.5346 59.2089 18.1441 57.5294 18.1429C56.083 18.1429 54.9221 17.716 54.0465 16.8622C53.6136 16.4396 53.2739 15.9351 53.048 15.3796C52.8222 14.8241 52.715 14.2294 52.7331 13.632C52.7157 13.0376 52.8214 12.4458 53.044 11.8923C53.2665 11.3387 53.6013 10.8348 54.0283 10.4107C54.8917 9.54982 56.0005 9.11937 57.3545 9.11937C57.9483 9.10295 58.5388 9.21044 59.0867 9.43466C59.6345 9.65889 60.1271 9.99468 60.5314 10.4196C61.3664 11.2872 61.8162 12.4419 61.7829 13.632C61.7811 13.9357 61.7518 14.2387 61.6954 14.5374L55.0957 14.5427ZM55.0593 12.8334H59.5222C59.4349 12.3177 59.1504 11.8536 58.7262 11.5349C58.3276 11.2515 57.8457 11.1017 57.3527 11.108C56.8128 11.0872 56.2819 11.2472 55.848 11.5616C55.4395 11.8812 55.16 12.3317 55.0593 12.8334Z" fill="black"/>
<path d="M65.6137 10.8339C65.7998 10.3161 66.1685 9.87981 66.6538 9.60303C67.1467 9.32834 67.7058 9.18711 68.2732 9.19393V11.6486C67.6268 11.5609 66.9698 11.707 66.4261 12.0595C65.8796 12.4152 65.6137 12.9986 65.6137 13.8204V17.9115H63.3549V9.37358H65.6137V10.8339Z" fill="black"/>
<path d="M71.3881 11.7908C71.3881 12.0185 71.5429 12.2034 71.8526 12.3457C72.2151 12.505 72.5928 12.6289 72.9802 12.7157C73.4318 12.8269 73.8764 12.9635 74.3118 13.1248C74.76 13.2957 75.1505 13.5852 75.4394 13.9608C75.7593 14.3794 75.9232 14.8921 75.9039 15.4141C75.9039 16.2904 75.5687 16.9657 74.8984 17.44C74.228 17.9144 73.3907 18.1515 72.3864 18.1515C70.5878 18.1515 69.3625 17.4738 68.7103 16.1184L70.6704 15.0512C70.9278 15.7911 71.4998 16.1611 72.3864 16.1611C73.1915 16.1611 73.5941 15.9174 73.5941 15.4265C73.5941 15.1988 73.4392 15.0138 73.1296 14.8715C72.7658 14.7104 72.3877 14.5818 72.0002 14.4873C71.549 14.3698 71.105 14.2272 70.6704 14.0604C70.2288 13.8894 69.8402 13.6093 69.5428 13.2476C69.2246 12.8513 69.0601 12.358 69.0783 11.8548C69.062 11.4726 69.1402 11.0921 69.3064 10.7457C69.4725 10.3992 69.7217 10.0969 70.0328 9.86441C70.7143 9.36569 71.5498 9.10904 72.4009 9.1369C73.0794 9.12922 73.7486 9.29151 74.3446 9.60827C74.9246 9.91561 75.4043 10.376 75.729 10.937L73.8036 11.9615C73.6905 11.693 73.4952 11.4652 73.2445 11.3091C72.9937 11.1531 72.6998 11.0766 72.4027 11.09C72.146 11.0797 71.892 11.1454 71.6741 11.2785C71.5848 11.3321 71.5115 11.4076 71.4613 11.4975C71.4111 11.5873 71.3859 11.6885 71.3881 11.7908Z" fill="black"/>
<path d="M79.1411 14.5427C79.4459 15.61 80.2687 16.1436 81.6094 16.1436C82.4728 16.1436 83.1262 15.859 83.5695 15.2898L85.3911 16.3143C84.5276 17.5346 83.2561 18.1441 81.5766 18.1429C80.1302 18.1429 78.9693 17.716 78.0937 16.8622C77.6609 16.4396 77.3211 15.9351 77.0952 15.3796C76.8694 14.8241 76.7622 14.2294 76.7803 13.632C76.7629 13.0376 76.8686 12.4458 77.0912 11.8923C77.3137 11.3387 77.6485 10.8348 78.0755 10.4107C78.9389 9.54982 80.0477 9.11937 81.4017 9.11937C81.9955 9.10295 82.5861 9.21044 83.1339 9.43466C83.6818 9.65889 84.1743 9.99468 84.5786 10.4196C85.4136 11.2872 85.8634 12.4419 85.8301 13.632C85.8274 13.9357 85.7981 14.2386 85.7426 14.5374L79.1411 14.5427ZM79.1065 12.8334H83.5695C83.4821 12.3177 83.1976 11.8536 82.7734 11.5349C82.3748 11.2515 81.8929 11.1017 81.3999 11.108C80.8601 11.0872 80.3291 11.2472 79.8953 11.5616C79.4867 11.8812 79.2073 12.3317 79.1065 12.8334Z" fill="black"/>
</svg>
