<svg style="display:none" xmlns="http://www.w3.org/2000/svg" xmlns:xlink="http://www.w3.org/1999/xlink" version="1.1">
	<symbol id="menu" xmlns="http://www.w3.org/2000/svg" viewBox="0 -960 960 960" fill="currentColor"><path d="M120-240v-80h720v80H120Zm0-200v-80h720v80H120Zm0-200v-80h720v80H120Z"/></symbol>
	<symbol id="account_circle" xmlns="http://www.w3.org/2000/svg" viewBox="0 -960 960 960" fill="currentColor"><path d="M234-276q51-39 114-61.5T480-360q69 0 132 22.5T726-276q35-41 54.5-93T800-480q0-133-93.5-226.5T480-800q-133 0-226.5 93.5T160-480q0 59 19.5 111t54.5 93Zm246-164q-59 0-99.5-40.5T340-580q0-59 40.5-99.5T480-720q59 0 99.5 40.5T620-580q0 59-40.5 99.5T480-440Zm0 360q-83 0-156-31.5T197-197q-54-54-85.5-127T80-480q0-83 31.5-156T197-763q54-54 127-85.5T480-880q83 0 156 31.5T763-763q54 54 85.5 127T880-480q0 83-31.5 156T763-197q-54 54-127 85.5T480-80Zm0-80q53 0 100-15.5t86-44.5q-39-29-86-44.5T480-280q-53 0-100 15.5T294-220q39 29 86 44.5T480-160Zm0-360q26 0 43-17t17-43q0-26-17-43t-43-17q-26 0-43 17t-17 43q0 26 17 43t43 17Zm0-60Zm0 360Z"/></symbol>
	<symbol id="chevron-right" xmlns="http://www.w3.org/2000/svg" viewBox="0 -960 960 960" fill="currentColor"><path d="M504-480 320-664l56-56 240 240-240 240-56-56 184-184Z"/></symbol>
	<symbol id="home_pin" xmlns="http://www.w3.org/2000/svg" viewBox="0 -960 960 960" fill="currentColor"><path d="M360-440h80v-110h80v110h80v-190l-120-80-120 80v190Zm120 254q122-112 181-203.5T720-552q0-109-69.5-178.5T480-800q-101 0-170.5 69.5T240-552q0 71 59 162.5T480-186Zm0 106Q319-217 239.5-334.5T160-552q0-150 96.5-239T480-880q127 0 223.5 89T800-552q0 100-79.5 217.5T480-80Zm0-480Z"/></symbol>
	<symbol id="call" xmlns="http://www.w3.org/2000/svg" viewBox="0 -960 960 960" fill="currentColor"><path d="M798-120q-125 0-247-54.5T329-329Q229-429 174.5-551T120-798q0-18 12-30t30-12h162q14 0 25 9.5t13 22.5l26 140q2 16-1 27t-11 19l-97 98q20 37 47.5 71.5T387-386q31 31 65 57.5t72 48.5l94-94q9-9 23.5-13.5T670-390l138 28q14 4 23 14.5t9 23.5v162q0 18-12 30t-30 12ZM241-600l66-66-17-94h-89q5 41 14 81t26 79Zm358 358q39 17 79.5 27t81.5 13v-88l-94-19-67 67ZM241-600Zm358 358Z"/></symbol>
	<symbol id="local_shipping" xmlns="http://www.w3.org/2000/svg" viewBox="0 -960 960 960" fill="currentColor"><path d="M240-160q-50 0-85-35t-35-85H40v-440q0-33 23.5-56.5T120-800h560v160h120l120 160v200h-80q0 50-35 85t-85 35q-50 0-85-35t-35-85H360q0 50-35 85t-85 35Zm0-80q17 0 28.5-11.5T280-280q0-17-11.5-28.5T240-320q-17 0-28.5 11.5T200-280q0 17 11.5 28.5T240-240ZM120-360h32q17-18 39-29t49-11q27 0 49 11t39 29h272v-360H120v360Zm600 120q17 0 28.5-11.5T760-280q0-17-11.5-28.5T720-320q-17 0-28.5 11.5T680-280q0 17 11.5 28.5T720-240Zm-40-200h170l-90-120h-80v120ZM360-540Z"/></symbol>
	<symbol id="pan_zoom" xmlns="http://www.w3.org/2000/svg" viewBox="0 -960 960 960" fill="currentColor"><path d="M120-120v-240h80v104l124-124 56 56-124 124h104v80H120Zm516-460-56-56 124-124H600v-80h240v240h-80v-104L636-580Z"/></symbol>
	<symbol id="share" xmlns="http://www.w3.org/2000/svg" viewBox="0 -960 960 960" fill="currentColor"><path d="M720-80q-50 0-85-35t-35-85q0-7 1-14.5t3-13.5L322-392q-17 15-38 23.5t-44 8.5q-50 0-85-35t-35-85q0-50 35-85t85-35q23 0 44 8.5t38 23.5l282-164q-2-6-3-13.5t-1-14.5q0-50 35-85t85-35q50 0 85 35t35 85q0 50-35 85t-85 35q-23 0-44-8.5T638-672L356-508q2 6 3 13.5t1 14.5q0 7-1 14.5t-3 13.5l282 164q17-15 38-23.5t44-8.5q50 0 85 35t35 85q0 50-35 85t-85 35Zm0-640q17 0 28.5-11.5T760-760q0-17-11.5-28.5T720-800q-17 0-28.5 11.5T680-760q0 17 11.5 28.5T720-720ZM240-440q17 0 28.5-11.5T280-480q0-17-11.5-28.5T240-520q-17 0-28.5 11.5T200-480q0 17 11.5 28.5T240-440Zm480 280q17 0 28.5-11.5T760-200q0-17-11.5-28.5T720-240q-17 0-28.5 11.5T680-200q0 17 11.5 28.5T720-160Zm0-600ZM240-480Zm480 280Z"/></symbol>
	<symbol id="sell" xmlns="http://www.w3.org/2000/svg" viewBox="0 -960 960 960" fill="currentColor"><path d="M856-390 570-104q-12 12-27 18t-30 6q-15 0-30-6t-27-18L103-457q-11-11-17-25.5T80-513v-287q0-33 23.5-56.5T160-880h287q16 0 31 6.5t26 17.5l352 353q12 12 17.5 27t5.5 30q0 15-5.5 29.5T856-390ZM513-160l286-286-353-354H160v286l353 354ZM260-640q25 0 42.5-17.5T320-700q0-25-17.5-42.5T260-760q-25 0-42.5 17.5T200-700q0 25 17.5 42.5T260-640Zm220 160Z"/></symbol>
	<symbol id="check-circle" xmlns="http://www.w3.org/2000/svg" viewBox="0 -960 960 960" fill="currentColor"><path d="m424-296 282-282-56-56-226 226-114-114-56 56 170 170Zm56 216q-83 0-156-31.5T197-197q-54-54-85.5-127T80-480q0-83 31.5-156T197-763q54-54 127-85.5T480-880q83 0 156 31.5T763-763q54 54 85.5 127T880-480q0 83-31.5 156T763-197q-54 54-127 85.5T480-80Zm0-80q134 0 227-93t93-227q0-134-93-227t-227-93q-134 0-227 93t-93 227q0 134 93 227t227 93Zm0-320Z"/></symbol>
	<symbol id="error" xmlns="http://www.w3.org/2000/svg" viewBox="0 -960 960 960" fill="currentColor"><path d="M480-280q17 0 28.5-11.5T520-320q0-17-11.5-28.5T480-360q-17 0-28.5 11.5T440-320q0 17 11.5 28.5T480-280Zm-40-160h80v-240h-80v240Zm40 360q-83 0-156-31.5T197-197q-54-54-85.5-127T80-480q0-83 31.5-156T197-763q54-54 127-85.5T480-880q83 0 156 31.5T763-763q54 54 85.5 127T880-480q0 83-31.5 156T763-197q-54 54-127 85.5T480-80Zm0-80q134 0 227-93t93-227q0-134-93-227t-227-93q-134 0-227 93t-93 227q0 134 93 227t227 93Zm0-320Z"/></symbol>
	<symbol id="trash" xmlns="http://www.w3.org/2000/svg" viewBox="0 -960 960 960" fill="currentColor"><path d="M280-120q-33 0-56.5-23.5T200-200v-520h-40v-80h200v-40h240v40h200v80h-40v520q0 33-23.5 56.5T680-120H280Zm400-600H280v520h400v-520ZM360-280h80v-360h-80v360Zm160 0h80v-360h-80v360ZM280-720v520-520Z"/></symbol>
	<symbol id="search" width="18" height="17" viewBox="0 0 18 17" fill="none" xmlns="http://www.w3.org/2000/svg"><path d="M16.939 15.5354L14.5807 13.1854C15.8591 11.606 16.4828 9.59619 16.3231 7.57044C16.1633 5.54469 15.2324 3.65747 13.7221 2.29793C12.2119 0.938383 10.2376 0.210179 8.20622 0.263474C6.17489 0.316769 4.24145 1.1475 2.80458 2.58436C1.36771 4.02123 0.536984 5.95467 0.483689 7.98601C0.430394 10.0173 1.1586 11.9917 2.51814 13.5019C3.87769 15.0122 5.76491 15.9431 7.79065 16.1029C9.8164 16.2626 11.8262 15.6389 13.4057 14.3604L15.7557 16.7188C15.8331 16.7969 15.9253 16.8589 16.0268 16.9012C16.1284 16.9435 16.2373 16.9653 16.3473 16.9653C16.4573 16.9653 16.5663 16.9435 16.6678 16.9012C16.7694 16.8589 16.8615 16.7969 16.939 16.7188C17.0171 16.6413 17.0791 16.5491 17.1214 16.4476C17.1637 16.346 17.1855 16.2371 17.1855 16.1271C17.1855 16.0171 17.1637 15.9082 17.1214 15.8066C17.0791 15.7051 17.0171 15.6129 16.939 15.5354ZM2.18066 8.21044C2.18066 6.97431 2.54721 5.76594 3.23397 4.73813C3.92073 3.71032 4.89685 2.90924 6.03889 2.4362C7.18092 1.96315 8.43759 1.83938 9.64997 2.08054C10.8624 2.32169 11.976 2.91695 12.8501 3.79103C13.7242 4.6651 14.3194 5.77875 14.5606 6.99113C14.8017 8.20351 14.678 9.46018 14.2049 10.6022C13.7319 11.7443 12.9308 12.7204 11.903 13.4071C10.8752 14.0939 9.66679 14.4604 8.43066 14.4604C6.77306 14.4604 5.18334 13.802 4.01124 12.6299C2.83914 11.4578 2.18066 9.86805 2.18066 8.21044Z" fill="#999999"/></symbol>
	<symbol id="shopping_bag"  width="24" height="23" viewBox="0 0 24 23" fill="none" xmlns="http://www.w3.org/2000/svg"><path d="M1.60242 0.0605469C1.40224 0.0605469 1.21027 0.140066 1.06872 0.281611C0.927175 0.423156 0.847656 0.615133 0.847656 0.815308C0.847656 1.01548 0.927175 1.20746 1.06872 1.349C1.21027 1.49055 1.40224 1.57007 1.60242 1.57007H3.27799L3.8833 3.99587L6.14457 16.0494C6.17694 16.2224 6.26873 16.3786 6.40407 16.491C6.53941 16.6035 6.70978 16.6651 6.88574 16.6653H8.39526C7.59456 16.6653 6.82666 16.9834 6.26048 17.5495C5.6943 18.1157 5.37622 18.8836 5.37622 19.6843C5.37622 20.485 5.6943 21.2529 6.26048 21.8191C6.82666 22.3853 7.59456 22.7034 8.39526 22.7034C9.19596 22.7034 9.96387 22.3853 10.53 21.8191C11.0962 21.2529 11.4143 20.485 11.4143 19.6843C11.4143 18.8836 11.0962 18.1157 10.53 17.5495C9.96387 16.9834 9.19596 16.6653 8.39526 16.6653H18.9619C18.1612 16.6653 17.3933 16.9834 16.8271 17.5495C16.2609 18.1157 15.9429 18.8836 15.9429 19.6843C15.9429 20.485 16.2609 21.2529 16.8271 21.8191C17.3933 22.3853 18.1612 22.7034 18.9619 22.7034C19.7626 22.7034 20.5305 22.3853 21.0967 21.8191C21.6629 21.2529 21.981 20.485 21.981 19.6843C21.981 18.8836 21.6629 18.1157 21.0967 17.5495C20.5305 16.9834 19.7626 16.6653 18.9619 16.6653H20.4714C20.6474 16.6651 20.8178 16.6035 20.9531 16.491C21.0884 16.3786 21.1802 16.2224 21.2126 16.0494L23.4769 3.97323C23.4973 3.8643 23.4934 3.75221 23.4656 3.64493C23.4378 3.53766 23.3867 3.43782 23.316 3.35252C23.2452 3.26721 23.1566 3.19854 23.0563 3.15137C22.956 3.1042 22.8465 3.07969 22.7357 3.07959H5.21017L4.59882 0.632655C4.55807 0.469301 4.46388 0.324258 4.33123 0.220593C4.19857 0.116929 4.03506 0.0605934 3.8667 0.0605469H1.60242ZM7.51219 15.1558L5.53019 4.58911H21.827L19.845 15.1558H7.51219ZM9.90479 19.6843C9.90479 20.0847 9.74575 20.4686 9.46266 20.7517C9.17957 21.0348 8.79561 21.1938 8.39526 21.1938C7.99491 21.1938 7.61096 21.0348 7.32787 20.7517C7.04478 20.4686 6.88574 20.0847 6.88574 19.6843C6.88574 19.284 7.04478 18.9 7.32787 18.6169C7.61096 18.3338 7.99491 18.1748 8.39526 18.1748C8.79561 18.1748 9.17957 18.3338 9.46266 18.6169C9.74575 18.9 9.90479 19.284 9.90479 19.6843ZM20.4714 19.6843C20.4714 20.0847 20.3124 20.4686 20.0293 20.7517C19.7462 21.0348 19.3623 21.1938 18.9619 21.1938C18.5616 21.1938 18.1776 21.0348 17.8945 20.7517C17.6114 20.4686 17.4524 20.0847 17.4524 19.6843C17.4524 19.284 17.6114 18.9 17.8945 18.6169C18.1776 18.3338 18.5616 18.1748 18.9619 18.1748C19.3623 18.1748 19.7462 18.3338 20.0293 18.6169C20.3124 18.9 20.4714 19.284 20.4714 19.6843Z" fill="black"/></symbol>
	<symbol id="heart" width="24" height="21" viewBox="0 0 24 21" fill="none" xmlns="http://www.w3.org/2000/svg"><path d="M20.6878 3.16065C20.177 2.64966 19.5706 2.2443 18.9031 1.96774C18.2357 1.69118 17.5203 1.54883 16.7978 1.54883C16.0753 1.54883 15.3599 1.69118 14.6924 1.96774C14.025 2.2443 13.4185 2.64966 12.9078 3.16065L11.8478 4.22065L10.7878 3.16065C9.75608 2.12896 8.35681 1.54936 6.89778 1.54936C5.43874 1.54936 4.03947 2.12896 3.00778 3.16065C1.97608 4.19235 1.39648 5.59162 1.39648 7.05065C1.39648 8.50969 1.97608 9.90896 3.00778 10.9407L4.06777 12.0007L11.8478 19.7807L19.6278 12.0007L20.6878 10.9407C21.1988 10.4299 21.6041 9.82347 21.8807 9.15601C22.1573 8.48855 22.2996 7.77314 22.2996 7.05065C22.2996 6.32817 22.1573 5.61276 21.8807 4.9453C21.6041 4.27784 21.1988 3.67141 20.6878 3.16065V3.16065Z" stroke="black" stroke-width="1.5" stroke-linecap="round" stroke-linejoin="round"/></symbol>
	<symbol id="user" width="25" height="25" viewBox="0 0 25 25" fill="none" xmlns="http://www.w3.org/2000/svg"><path d="M20.8477 21.5508V19.5508C20.8477 18.4899 20.4262 17.4725 19.6761 16.7224C18.9259 15.9722 17.9085 15.5508 16.8477 15.5508H8.84766C7.78679 15.5508 6.76937 15.9722 6.01923 16.7224C5.26908 17.4725 4.84766 18.4899 4.84766 19.5508V21.5508" stroke="black" stroke-width="1.5" stroke-linecap="round" stroke-linejoin="round"/><path d="M12.8477 11.5508C15.0568 11.5508 16.8477 9.75992 16.8477 7.55078C16.8477 5.34164 15.0568 3.55078 12.8477 3.55078C10.6385 3.55078 8.84766 5.34164 8.84766 7.55078C8.84766 9.75992 10.6385 11.5508 12.8477 11.5508Z" stroke="black" stroke-width="1.5" stroke-linecap="round" stroke-linejoin="round"/></symbol>
	<symbol id="drawerArrowRight" width="8" height="14" viewBox="0 0 8 14" fill="none" xmlns="http://www.w3.org/2000/svg"><path d="M1 13L7 7L1 1" stroke="black" stroke-width="2" stroke-linecap="round" stroke-linejoin="round"/></symbol>
	<symbol id="drawerArrowLeft" width="30" height="30" viewBox="0 0 30 30" fill="none" xmlns="http://www.w3.org/2000/svg"><path d="M18.75 22.5L11 14.75L18.75 7" stroke="#060D21" stroke-width="2" stroke-linecap="round" stroke-linejoin="round"/></symbol>
	<symbol id="drawerUser" width="40" height="40" viewBox="0 0 40 40" fill="none" xmlns="http://www.w3.org/2000/svg"><circle cx="20" cy="20" r="20" fill="#A3E3FF"/><path d="M27.625 27.825H27.825V27.625V26.25C27.825 26.0738 27.7217 25.9104 27.5981 25.7735C27.4686 25.6301 27.2865 25.4827 27.0667 25.336C26.6259 25.0418 26.0066 24.7324 25.2767 24.4509C23.8167 23.8878 21.8859 23.425 20 23.425C18.1141 23.425 16.1833 23.8878 14.7233 24.4509C13.9934 24.7324 13.3741 25.0418 12.9333 25.336C12.7135 25.4827 12.5314 25.6301 12.4019 25.7735C12.2783 25.9104 12.175 26.0738 12.175 26.25V27.625V27.825H12.375H27.625ZM22.825 15C22.825 13.4395 21.5605 12.175 20 12.175C18.4395 12.175 17.175 13.4395 17.175 15C17.175 16.5605 18.4395 17.825 20 17.825C21.5605 17.825 22.825 16.5605 22.825 15ZM15.2 15C15.2 12.348 17.348 10.2 20 10.2C22.652 10.2 24.8 12.348 24.8 15C24.8 17.652 22.652 19.8 20 19.8C17.348 19.8 15.2 17.652 15.2 15ZM10.2 26.25C10.2 25.4922 10.578 24.8136 11.2288 24.213C11.881 23.6111 12.7936 23.1011 13.8228 22.6888C15.8815 21.8641 18.3563 21.45 20 21.45C21.6437 21.45 24.1185 21.8641 26.1772 22.6888C27.2064 23.1011 28.119 23.6111 28.7712 24.213C29.422 24.8136 29.8 25.4922 29.8 26.25V29.8H10.2V26.25Z" fill="#8F2AED" stroke="#A3E3FF" stroke-width="0.4"/></symbol>
	<symbol id="close" width="30" height="30" viewBox="0 0 30 30" fill="none" xmlns="http://www.w3.org/2000/svg"><path d="M22.5 7.5L7.5 22.5" stroke="black" stroke-width="2" stroke-linecap="round" stroke-linejoin="round"/><path d="M7.5 7.5L22.5 22.5" stroke="black" stroke-width="2" stroke-linecap="round" stroke-linejoin="round"/></symbol>
	<symbol id="benefitBarCard" width="30" height="24" viewBox="0 0 30 24" fill="none" xmlns="http://www.w3.org/2000/svg"><path d="M26.7866 1.82227H3.21512C2.03166 1.82227 1.07227 2.78166 1.07227 3.96512V20.0366C1.07227 21.22 2.03166 22.1794 3.21512 22.1794H26.7866C27.97 22.1794 28.9294 21.22 28.9294 20.0366V3.96512C28.9294 2.78166 27.97 1.82227 26.7866 1.82227Z" stroke="black" stroke-width="1.71429" stroke-linecap="round" stroke-linejoin="round"/><path d="M1.07227 9.32227H28.9294" stroke="black" stroke-width="1.71429" stroke-linecap="round" stroke-linejoin="round"/><path d="M20.3574 16.8223H23.5717" stroke="black" stroke-width="1.71429" stroke-linecap="round" stroke-linejoin="round"/></symbol>
	<symbol id="benefitBarMap" width="29" height="27" viewBox="0 0 29 27" fill="none" xmlns="http://www.w3.org/2000/svg"><path d="M27.5612 9.90769C27.5612 9.9077 27.5612 9.90769 27.5612 9.90767L27.2674 8.0027C27.2673 8.00265 27.2673 8.00262 27.2672 8.00262C27.2672 8.00262 27.2672 8.00258 27.2671 8.00253C27.2415 7.83314 27.0956 7.70805 26.9242 7.70875H26.331C26.253 7.70911 26.1773 7.68316 26.1161 7.63515L24.2653 6.1819C24.2115 6.13919 24.146 6.1136 24.0775 6.10848L21.7805 5.9288H21.7806C21.7411 5.92545 21.7023 5.91521 21.6663 5.8988L17.6302 4.08092C17.5605 4.0495 17.5029 3.99585 17.4669 3.92843L16.3512 1.87093C16.3512 1.87091 16.3511 1.87092 16.3511 1.87094C16.3511 1.87096 16.3511 1.87097 16.3511 1.87095C16.286 1.74992 16.1554 1.679 16.0184 1.69012C15.8815 1.70142 15.7641 1.79266 15.7196 1.92274L15.4203 2.77186C15.3756 2.89788 15.2622 2.987 15.1291 3.00042L11.1583 3.41959C10.9906 3.43442 10.8367 3.3264 10.7937 3.16367L10.2765 1.21232C10.2531 1.1216 10.1938 1.04412 10.1122 0.998056C10.0305 0.951816 9.93379 0.940697 9.84377 0.967346L7.36722 1.68322C7.26574 1.71217 7.18314 1.78594 7.14272 1.88354C7.10248 1.98115 7.10901 2.09181 7.16037 2.18394L7.48971 2.77994C7.54654 2.87683 7.55271 2.99544 7.50612 3.09781C7.45953 3.20018 7.36616 3.27342 7.25567 3.29425L5.2717 3.6453L3.98444 3.84119C3.98439 3.8412 3.98436 3.84124 3.98436 3.84129C3.98436 3.84134 3.98432 3.84139 3.98427 3.8414C3.80958 3.86755 3.6829 4.02144 3.69049 4.1979L3.80751 7.6706C3.80786 7.7765 3.75985 7.87674 3.6769 7.94275L1.35812 9.7933C1.28435 9.85155 1.23758 9.93714 1.22822 10.0305C1.21905 10.1241 1.24817 10.2172 1.30906 10.2887L2.62907 11.8399C2.73038 11.9607 2.90052 11.9977 3.04277 11.9298L3.31493 11.7992C3.42224 11.7476 3.54843 11.7549 3.64921 11.8184C3.74981 11.8821 3.8107 11.993 3.81017 12.1121C3.80911 12.2231 3.86171 12.3279 3.95119 12.3938C4.04068 12.4594 4.15628 12.4783 4.262 12.4441L6.88011 11.6712C6.97453 11.6433 7.07638 11.6573 7.16021 11.7092C7.24387 11.7611 7.3014 11.8463 7.31835 11.9434L7.40005 12.3461C7.40006 12.3461 7.40002 12.3461 7.39998 12.3461C7.39993 12.3461 7.3999 12.3462 7.3999 12.3462C7.42393 12.4641 7.5074 12.561 7.62033 12.6021L10.5922 13.7071C10.5923 13.7071 10.5923 13.7071 10.5923 13.707C10.5923 13.707 10.5924 13.7069 10.5924 13.707C10.7279 13.7571 10.818 13.8863 10.8182 14.0308V14.9344C10.8175 15.0869 10.9171 15.222 11.063 15.2664L12.0103 15.5631C12.1351 15.6012 12.2277 15.7066 12.2498 15.8353L12.8241 19.101C12.8241 19.1011 12.8241 19.1011 12.824 19.1011C12.824 19.1011 12.8239 19.1012 12.8239 19.1012C12.8338 19.1589 12.8582 19.2132 12.8947 19.2589L15.1482 22.0729C15.2638 22.2152 15.2483 22.4231 15.1127 22.5466L13.3929 24.1197C13.3928 24.1197 13.3928 24.1197 13.3928 24.1196C13.3928 24.1196 13.3927 24.1196 13.3927 24.1196C13.3123 24.1893 13.2682 24.292 13.2735 24.3984C13.2789 24.5047 13.333 24.6026 13.42 24.6639L15.4775 26.1771C15.6235 26.2871 15.8297 26.2643 15.9483 26.1254L18.2561 23.4339L18.2563 23.4337C18.3131 23.3682 18.3431 23.2837 18.3406 23.197L18.3025 21.9778C18.2993 21.8874 18.3315 21.7995 18.3924 21.7328L19.3068 20.7341C19.3401 20.6977 19.3809 20.6689 19.4264 20.6497L21.3598 19.8195C21.368 19.816 21.3769 19.8142 21.3858 19.8142C21.3931 19.8142 21.4003 19.813 21.4072 19.8106L23.0407 19.248C23.1482 19.2111 23.2306 19.1236 23.2611 19.014L24.8804 13.2307C24.8804 13.2306 24.8805 13.2306 24.8805 13.2307C24.8805 13.2307 24.8805 13.2307 24.8805 13.2307C24.8939 13.1815 24.9181 13.1359 24.9512 13.0973L27.4741 10.188C27.5434 10.1121 27.5752 10.0094 27.5613 9.90771C27.5613 9.9077 27.5612 9.90769 27.5612 9.90769ZM24.5484 12.7382C24.4623 12.8375 24.3991 12.9546 24.3633 13.0811L22.9097 18.2629C22.8212 18.5784 22.5839 18.8304 22.2744 18.9377L21.1982 19.3108L21.1546 19.3298L19.2087 20.1627C19.0917 20.2121 18.9867 20.2864 18.9011 20.3803L17.9867 21.3791C17.8287 21.5507 17.7447 21.7774 17.7527 22.0106L17.7778 22.7633C17.7862 23.0143 17.6998 23.2592 17.5359 23.4494L16.2625 24.9272C15.9199 25.3248 15.3268 25.3889 14.906 25.0752C14.4027 24.7002 14.3636 23.9583 14.8266 23.5345L15.4775 22.9386C15.6436 22.7856 15.7456 22.5752 15.7627 22.35C15.7798 22.1246 15.711 21.9014 15.57 21.7249L13.5122 19.1569C13.4071 19.0257 13.3367 18.8701 13.3076 18.7045L12.7858 15.732C12.7577 15.5703 12.6853 15.4196 12.5768 15.2966C12.4683 15.1736 12.3276 15.0832 12.1707 15.0352L12.0581 15.0003C11.6396 14.8705 11.3542 14.4834 11.3542 14.0451V14.0228C11.3535 13.8408 11.2976 13.6634 11.1934 13.5141C11.0895 13.3648 10.9423 13.2508 10.772 13.1873L8.02373 12.1658C7.95233 12.1393 7.89972 12.0777 7.88466 12.003L7.84907 11.8266C7.84906 11.8265 7.84902 11.8265 7.84897 11.8265C7.84891 11.8265 7.84887 11.8264 7.84886 11.8264C7.80066 11.5781 7.64923 11.3621 7.43217 11.2322C7.21508 11.1023 6.95301 11.0711 6.71137 11.1461L4.31107 11.8565C4.31105 11.8565 4.31103 11.8565 4.31101 11.8565C4.31092 11.8565 4.31085 11.8564 4.31082 11.8564C4.23561 11.6074 4.05526 11.4038 3.8172 11.2991C3.57893 11.1945 3.30695 11.1992 3.07259 11.3122C2.9907 11.3507 2.89314 11.3296 2.83448 11.2607L2.47136 10.8341C2.12911 10.432 2.18839 9.82623 2.6021 9.49808L4.00336 8.38663C4.0034 8.3866 4.00343 8.38654 4.00343 8.38649C4.00343 8.38643 4.00345 8.38638 4.00349 8.38634C4.22477 8.2102 4.34989 7.93984 4.34089 7.65711L4.25347 5.24755C4.23509 4.74067 4.59909 4.3003 5.10037 4.22298L5.35061 4.18439L7.3481 3.83335C7.34815 3.83334 7.34818 3.8333 7.34818 3.83325C7.34818 3.8332 7.34822 3.83316 7.34827 3.83315C7.63222 3.78388 7.87467 3.60034 7.99909 3.34022C8.12334 3.08024 8.11416 2.77616 7.9742 2.52413C7.86666 2.32852 7.96781 2.08363 8.18204 2.02092L8.8768 1.81756C9.38174 1.66975 9.90867 1.96979 10.0392 2.47946L10.2494 3.2998C10.2994 3.49059 10.4111 3.65967 10.5671 3.78023C10.7231 3.90095 10.9148 3.96643 11.1121 3.9666H11.2074L15.1918 3.53384C15.3591 3.51566 15.5178 3.45071 15.6498 3.34623C15.7818 3.24174 15.8815 3.10196 15.9375 2.94329C15.9939 2.78137 16.2158 2.7634 16.2975 2.91413L16.988 4.18704C17.0814 4.35912 17.2286 4.49573 17.4072 4.57621L21.4432 6.38597C21.4432 6.38598 21.4432 6.386 21.4432 6.386C21.4431 6.386 21.4431 6.38603 21.4432 6.38604C21.5361 6.42802 21.6355 6.45378 21.7371 6.46225L23.6721 6.61293C23.8691 6.62827 24.0571 6.70159 24.2124 6.82365L25.7785 8.05437C25.7785 8.0544 25.7786 8.05442 25.7786 8.05442C25.7787 8.05442 25.7787 8.05444 25.7788 8.05447C25.9341 8.17622 26.1255 8.24309 26.323 8.24486C26.5688 8.24486 26.7778 8.42429 26.8149 8.66724L26.9336 9.44325C26.9779 9.73274 26.8931 10.0271 26.7015 10.2486L24.5484 12.7382Z" fill="black" stroke="black"/></symbol>
	<symbol id="benefitBarTruck" width="30" height="24" viewBox="0 0 30 24" fill="none" xmlns="http://www.w3.org/2000/svg"><path d="M11.7866 5.78516H5.35798C4.22134 5.78516 3.13125 6.23669 2.32752 7.04041C1.52379 7.84414 1.07227 8.93423 1.07227 10.0709V18.6423H4.28655" stroke="black" stroke-width="1.71429" stroke-linecap="round" stroke-linejoin="round"/><path d="M26.7871 18.6429H28.93V3.64286C28.93 3.07454 28.7042 2.52949 28.3023 2.12763C27.9005 1.72576 27.3554 1.5 26.7871 1.5H13.93C13.3616 1.5 12.8166 1.72576 12.4147 2.12763C12.0129 2.52949 11.7871 3.07454 11.7871 3.64286V15.8143" stroke="black" stroke-width="1.71429" stroke-linecap="round" stroke-linejoin="round"/><path d="M12.8574 18.6426H18.2146" stroke="black" stroke-width="1.71429" stroke-linecap="round" stroke-linejoin="round"/><path d="M8.57282 22.9289C10.9398 22.9289 12.8585 21.0101 12.8585 18.6431C12.8585 16.2762 10.9398 14.3574 8.57282 14.3574C6.20589 14.3574 4.28711 16.2762 4.28711 18.6431C4.28711 21.0101 6.20589 22.9289 8.57282 22.9289Z" stroke="black" stroke-width="1.71429" stroke-linecap="round" stroke-linejoin="round"/><path d="M22.5006 22.9289C24.8675 22.9289 26.7863 21.0101 26.7863 18.6431C26.7863 16.2762 24.8675 14.3574 22.5006 14.3574C20.1336 14.3574 18.2148 16.2762 18.2148 18.6431C18.2148 21.0101 20.1336 22.9289 22.5006 22.9289Z" stroke="black" stroke-width="1.71429" stroke-linecap="round" stroke-linejoin="round"/></symbol>
	<symbol id="benefitBarQrCode" width="30" height="30" viewBox="0 0 30 30" fill="none" xmlns="http://www.w3.org/2000/svg"><path d="M12.8583 6.42969H8.57254C7.38908 6.42969 6.42969 7.38908 6.42969 8.57254V12.8583C6.42969 14.0417 7.38908 15.0011 8.57254 15.0011H12.8583C14.0417 15.0011 15.0011 14.0417 15.0011 12.8583V8.57254C15.0011 7.38908 14.0417 6.42969 12.8583 6.42969Z" stroke="black" stroke-width="1.71429" stroke-linecap="round" stroke-linejoin="round"/><path d="M6.42941 1.07227H3.21512C2.6468 1.07227 2.10176 1.29803 1.69989 1.69989C1.29803 2.10176 1.07227 2.6468 1.07227 3.21512V6.42941" stroke="black" stroke-width="1.71429" stroke-linecap="round" stroke-linejoin="round"/><path d="M23.5723 1.07227H26.7866C27.3549 1.07227 27.8999 1.29803 28.3018 1.69989C28.7036 2.10176 28.9294 2.6468 28.9294 3.21512V6.42941" stroke="black" stroke-width="1.71429" stroke-linecap="round" stroke-linejoin="round"/><path d="M6.42941 28.9294H3.21512C2.6468 28.9294 2.10176 28.7036 1.69989 28.3018C1.29803 27.8999 1.07227 27.3549 1.07227 26.7866V23.5723" stroke="black" stroke-width="1.71429" stroke-linecap="round" stroke-linejoin="round"/><path d="M23.5723 28.9294H26.7866C27.3549 28.9294 27.8999 28.7036 28.3018 28.3018C28.7036 27.8999 28.9294 27.3549 28.9294 26.7866V23.5723" stroke="black" stroke-width="1.71429" stroke-linecap="round" stroke-linejoin="round"/><path d="M6.42969 20.3594V23.5737H9.64397" stroke="black" stroke-width="1.71429" stroke-linecap="round" stroke-linejoin="round"/><path d="M15.0014 23.5737V20.3594H11.7871" stroke="black" stroke-width="1.71429" stroke-linecap="round" stroke-linejoin="round"/><path d="M23.5717 9.64397H20.3574V6.42969" stroke="black" stroke-width="1.71429" stroke-linecap="round" stroke-linejoin="round"/><path d="M23.5717 17.144V13.9297H20.3574" stroke="black" stroke-width="1.71429" stroke-linecap="round" stroke-linejoin="round"/><path d="M20.3574 20.3594V23.5737H23.5717" stroke="black" stroke-width="1.71429" stroke-linecap="round" stroke-linejoin="round"/></symbol>
	<symbol id="favorite" width="26" height="23" viewBox="0 0 26 23" fill="currentColor" xmlns="http://www.w3.org/2000/svg"><path d="M22.5786 2.85908C22.0253 2.29942 21.3683 1.85546 20.6452 1.55256C19.9221 1.24965 19.1471 1.09375 18.3644 1.09375C17.5817 1.09375 16.8067 1.24965 16.0836 1.55256C15.3605 1.85546 14.7036 2.29942 14.1503 2.85908L13.0019 4.02004L11.8536 2.85908C10.7359 1.72913 9.22004 1.09434 7.63942 1.09434C6.0588 1.09434 4.54292 1.72913 3.42525 2.85908C2.30759 3.98903 1.67969 5.52157 1.67969 7.11956C1.67969 8.71755 2.30759 10.2501 3.42525 11.38L4.57359 12.541L13.0019 21.0619L21.4303 12.541L22.5786 11.38C23.1322 10.8206 23.5713 10.1565 23.8709 9.42542C24.1705 8.6944 24.3247 7.91085 24.3247 7.11956C24.3247 6.32826 24.1705 5.54472 23.8709 4.81369C23.5713 4.08267 23.1322 3.41848 22.5786 2.85908V2.85908Z" stroke="#8F2AED" stroke-width="2" stroke-linecap="round" stroke-linejoin="round"/></symbol>
	
</svg>
