<svg style="display:none" xmlns="http://www.w3.org/2000/svg" xmlns:xlink="http://www.w3.org/1999/xlink" version="1.1">
	<symbol id="menu" xmlns="http://www.w3.org/2000/svg" viewBox="0 -960 960 960" fill="currentColor"><path d="M120-240v-80h720v80H120Zm0-200v-80h720v80H120Zm0-200v-80h720v80H120Z"/></symbol>
	<symbol id="account_circle" xmlns="http://www.w3.org/2000/svg" viewBox="0 -960 960 960" fill="currentColor"><path d="M234-276q51-39 114-61.5T480-360q69 0 132 22.5T726-276q35-41 54.5-93T800-480q0-133-93.5-226.5T480-800q-133 0-226.5 93.5T160-480q0 59 19.5 111t54.5 93Zm246-164q-59 0-99.5-40.5T340-580q0-59 40.5-99.5T480-720q59 0 99.5 40.5T620-580q0 59-40.5 99.5T480-440Zm0 360q-83 0-156-31.5T197-197q-54-54-85.5-127T80-480q0-83 31.5-156T197-763q54-54 127-85.5T480-880q83 0 156 31.5T763-763q54 54 85.5 127T880-480q0 83-31.5 156T763-197q-54 54-127 85.5T480-80Zm0-80q53 0 100-15.5t86-44.5q-39-29-86-44.5T480-280q-53 0-100 15.5T294-220q39 29 86 44.5T480-160Zm0-360q26 0 43-17t17-43q0-26-17-43t-43-17q-26 0-43 17t-17 43q0 26 17 43t43 17Zm0-60Zm0 360Z"/></symbol>
	<symbol id="chevron-right" viewBox="0 0 12 22" fill="none" xmlns="http://www.w3.org/2000/svg"><path d="M0.999998 21L11 11L1 0.999999" stroke-width="2" stroke-linecap="round" stroke-linejoin="round"/></symbol>
	<symbol id="chevron-bottom" viewBox="0 0 13 9" fill="none" xmlns="http://www.w3.org/2000/svg"><path d="M1 1.75L6.5 7.25L12 1.75" stroke-width="2" stroke-linecap="round" stroke-linejoin="round"/></symbol>
	<symbol id="home_pin" xmlns="http://www.w3.org/2000/svg" viewBox="0 -960 960 960" fill="currentColor"><path d="M360-440h80v-110h80v110h80v-190l-120-80-120 80v190Zm120 254q122-112 181-203.5T720-552q0-109-69.5-178.5T480-800q-101 0-170.5 69.5T240-552q0 71 59 162.5T480-186Zm0 106Q319-217 239.5-334.5T160-552q0-150 96.5-239T480-880q127 0 223.5 89T800-552q0 100-79.5 217.5T480-80Zm0-480Z"/></symbol>
	<symbol id="call" xmlns="http://www.w3.org/2000/svg" viewBox="0 -960 960 960" fill="currentColor"><path d="M798-120q-125 0-247-54.5T329-329Q229-429 174.5-551T120-798q0-18 12-30t30-12h162q14 0 25 9.5t13 22.5l26 140q2 16-1 27t-11 19l-97 98q20 37 47.5 71.5T387-386q31 31 65 57.5t72 48.5l94-94q9-9 23.5-13.5T670-390l138 28q14 4 23 14.5t9 23.5v162q0 18-12 30t-30 12ZM241-600l66-66-17-94h-89q5 41 14 81t26 79Zm358 358q39 17 79.5 27t81.5 13v-88l-94-19-67 67ZM241-600Zm358 358Z"/></symbol>
	<symbol id="local_shipping" xmlns="http://www.w3.org/2000/svg" viewBox="0 -960 960 960" fill="currentColor"><path d="M240-160q-50 0-85-35t-35-85H40v-440q0-33 23.5-56.5T120-800h560v160h120l120 160v200h-80q0 50-35 85t-85 35q-50 0-85-35t-35-85H360q0 50-35 85t-85 35Zm0-80q17 0 28.5-11.5T280-280q0-17-11.5-28.5T240-320q-17 0-28.5 11.5T200-280q0 17 11.5 28.5T240-240ZM120-360h32q17-18 39-29t49-11q27 0 49 11t39 29h272v-360H120v360Zm600 120q17 0 28.5-11.5T760-280q0-17-11.5-28.5T720-320q-17 0-28.5 11.5T680-280q0 17 11.5 28.5T720-240Zm-40-200h170l-90-120h-80v120ZM360-540Z"/></symbol>
	<symbol id="pan_zoom" xmlns="http://www.w3.org/2000/svg" viewBox="0 -960 960 960" fill="currentColor"><path d="M120-120v-240h80v104l124-124 56 56-124 124h104v80H120Zm516-460-56-56 124-124H600v-80h240v240h-80v-104L636-580Z"/></symbol>
	<symbol id="sell" xmlns="http://www.w3.org/2000/svg" viewBox="0 -960 960 960" fill="currentColor"><path d="M856-390 570-104q-12 12-27 18t-30 6q-15 0-30-6t-27-18L103-457q-11-11-17-25.5T80-513v-287q0-33 23.5-56.5T160-880h287q16 0 31 6.5t26 17.5l352 353q12 12 17.5 27t5.5 30q0 15-5.5 29.5T856-390ZM513-160l286-286-353-354H160v286l353 354ZM260-640q25 0 42.5-17.5T320-700q0-25-17.5-42.5T260-760q-25 0-42.5 17.5T200-700q0 25 17.5 42.5T260-640Zm220 160Z"/></symbol>
	<symbol id="check-circle" xmlns="http://www.w3.org/2000/svg" viewBox="0 -960 960 960" fill="currentColor"><path d="m424-296 282-282-56-56-226 226-114-114-56 56 170 170Zm56 216q-83 0-156-31.5T197-197q-54-54-85.5-127T80-480q0-83 31.5-156T197-763q54-54 127-85.5T480-880q83 0 156 31.5T763-763q54 54 85.5 127T880-480q0 83-31.5 156T763-197q-54 54-127 85.5T480-80Zm0-80q134 0 227-93t93-227q0-134-93-227t-227-93q-134 0-227 93t-93 227q0 134 93 227t227 93Zm0-320Z"/></symbol>
	<symbol id="error" xmlns="http://www.w3.org/2000/svg" viewBox="0 -960 960 960" fill="currentColor"><path d="M480-280q17 0 28.5-11.5T520-320q0-17-11.5-28.5T480-360q-17 0-28.5 11.5T440-320q0 17 11.5 28.5T480-280Zm-40-160h80v-240h-80v240Zm40 360q-83 0-156-31.5T197-197q-54-54-85.5-127T80-480q0-83 31.5-156T197-763q54-54 127-85.5T480-880q83 0 156 31.5T763-763q54 54 85.5 127T880-480q0 83-31.5 156T763-197q-54 54-127 85.5T480-80Zm0-80q134 0 227-93t93-227q0-134-93-227t-227-93q-134 0-227 93t-93 227q0 134 93 227t227 93Zm0-320Z"/></symbol>
	<symbol id="trash" viewBox="0 0 18 18" fill="none" xmlns="http://www.w3.org/2000/svg"><path d="M2.25 4.5H3.75H15.75" stroke="black" stroke-width="1.3" stroke-linecap="round" stroke-linejoin="round"/><path d="M14.25 4.5V15C14.25 15.3978 14.092 15.7794 13.8107 16.0607C13.5294 16.342 13.1478 16.5 12.75 16.5H5.25C4.85218 16.5 4.47064 16.342 4.18934 16.0607C3.90804 15.7794 3.75 15.3978 3.75 15V4.5M6 4.5V3C6 2.60218 6.15804 2.22064 6.43934 1.93934C6.72064 1.65804 7.10218 1.5 7.5 1.5H10.5C10.8978 1.5 11.2794 1.65804 11.5607 1.93934C11.842 2.22064 12 2.60218 12 3V4.5" stroke="black" stroke-width="1.3" stroke-linecap="round" stroke-linejoin="round"/><path d="M7.5 8.25V12.75" stroke="black" stroke-width="1.3" stroke-linecap="round" stroke-linejoin="round"/><path d="M10.5 8.25V12.75" stroke="black" stroke-width="1.3" stroke-linecap="round" stroke-linejoin="round"/></symbol>
	<symbol id="search" width="18" height="17" viewBox="0 0 18 17" fill="none" xmlns="http://www.w3.org/2000/svg"><path d="M16.939 15.5354L14.5807 13.1854C15.8591 11.606 16.4828 9.59619 16.3231 7.57044C16.1633 5.54469 15.2324 3.65747 13.7221 2.29793C12.2119 0.938383 10.2376 0.210179 8.20622 0.263474C6.17489 0.316769 4.24145 1.1475 2.80458 2.58436C1.36771 4.02123 0.536984 5.95467 0.483689 7.98601C0.430394 10.0173 1.1586 11.9917 2.51814 13.5019C3.87769 15.0122 5.76491 15.9431 7.79065 16.1029C9.8164 16.2626 11.8262 15.6389 13.4057 14.3604L15.7557 16.7188C15.8331 16.7969 15.9253 16.8589 16.0268 16.9012C16.1284 16.9435 16.2373 16.9653 16.3473 16.9653C16.4573 16.9653 16.5663 16.9435 16.6678 16.9012C16.7694 16.8589 16.8615 16.7969 16.939 16.7188C17.0171 16.6413 17.0791 16.5491 17.1214 16.4476C17.1637 16.346 17.1855 16.2371 17.1855 16.1271C17.1855 16.0171 17.1637 15.9082 17.1214 15.8066C17.0791 15.7051 17.0171 15.6129 16.939 15.5354ZM2.18066 8.21044C2.18066 6.97431 2.54721 5.76594 3.23397 4.73813C3.92073 3.71032 4.89685 2.90924 6.03889 2.4362C7.18092 1.96315 8.43759 1.83938 9.64997 2.08054C10.8624 2.32169 11.976 2.91695 12.8501 3.79103C13.7242 4.6651 14.3194 5.77875 14.5606 6.99113C14.8017 8.20351 14.678 9.46018 14.2049 10.6022C13.7319 11.7443 12.9308 12.7204 11.903 13.4071C10.8752 14.0939 9.66679 14.4604 8.43066 14.4604C6.77306 14.4604 5.18334 13.802 4.01124 12.6299C2.83914 11.4578 2.18066 9.86805 2.18066 8.21044Z" fill="#999999"/></symbol>
	<symbol id="shopping_bag"  width="24" height="23" viewBox="0 0 24 23" fill="none" xmlns="http://www.w3.org/2000/svg"><path d="M1.60242 0.0605469C1.40224 0.0605469 1.21027 0.140066 1.06872 0.281611C0.927175 0.423156 0.847656 0.615133 0.847656 0.815308C0.847656 1.01548 0.927175 1.20746 1.06872 1.349C1.21027 1.49055 1.40224 1.57007 1.60242 1.57007H3.27799L3.8833 3.99587L6.14457 16.0494C6.17694 16.2224 6.26873 16.3786 6.40407 16.491C6.53941 16.6035 6.70978 16.6651 6.88574 16.6653H8.39526C7.59456 16.6653 6.82666 16.9834 6.26048 17.5495C5.6943 18.1157 5.37622 18.8836 5.37622 19.6843C5.37622 20.485 5.6943 21.2529 6.26048 21.8191C6.82666 22.3853 7.59456 22.7034 8.39526 22.7034C9.19596 22.7034 9.96387 22.3853 10.53 21.8191C11.0962 21.2529 11.4143 20.485 11.4143 19.6843C11.4143 18.8836 11.0962 18.1157 10.53 17.5495C9.96387 16.9834 9.19596 16.6653 8.39526 16.6653H18.9619C18.1612 16.6653 17.3933 16.9834 16.8271 17.5495C16.2609 18.1157 15.9429 18.8836 15.9429 19.6843C15.9429 20.485 16.2609 21.2529 16.8271 21.8191C17.3933 22.3853 18.1612 22.7034 18.9619 22.7034C19.7626 22.7034 20.5305 22.3853 21.0967 21.8191C21.6629 21.2529 21.981 20.485 21.981 19.6843C21.981 18.8836 21.6629 18.1157 21.0967 17.5495C20.5305 16.9834 19.7626 16.6653 18.9619 16.6653H20.4714C20.6474 16.6651 20.8178 16.6035 20.9531 16.491C21.0884 16.3786 21.1802 16.2224 21.2126 16.0494L23.4769 3.97323C23.4973 3.8643 23.4934 3.75221 23.4656 3.64493C23.4378 3.53766 23.3867 3.43782 23.316 3.35252C23.2452 3.26721 23.1566 3.19854 23.0563 3.15137C22.956 3.1042 22.8465 3.07969 22.7357 3.07959H5.21017L4.59882 0.632655C4.55807 0.469301 4.46388 0.324258 4.33123 0.220593C4.19857 0.116929 4.03506 0.0605934 3.8667 0.0605469H1.60242ZM7.51219 15.1558L5.53019 4.58911H21.827L19.845 15.1558H7.51219ZM9.90479 19.6843C9.90479 20.0847 9.74575 20.4686 9.46266 20.7517C9.17957 21.0348 8.79561 21.1938 8.39526 21.1938C7.99491 21.1938 7.61096 21.0348 7.32787 20.7517C7.04478 20.4686 6.88574 20.0847 6.88574 19.6843C6.88574 19.284 7.04478 18.9 7.32787 18.6169C7.61096 18.3338 7.99491 18.1748 8.39526 18.1748C8.79561 18.1748 9.17957 18.3338 9.46266 18.6169C9.74575 18.9 9.90479 19.284 9.90479 19.6843ZM20.4714 19.6843C20.4714 20.0847 20.3124 20.4686 20.0293 20.7517C19.7462 21.0348 19.3623 21.1938 18.9619 21.1938C18.5616 21.1938 18.1776 21.0348 17.8945 20.7517C17.6114 20.4686 17.4524 20.0847 17.4524 19.6843C17.4524 19.284 17.6114 18.9 17.8945 18.6169C18.1776 18.3338 18.5616 18.1748 18.9619 18.1748C19.3623 18.1748 19.7462 18.3338 20.0293 18.6169C20.3124 18.9 20.4714 19.284 20.4714 19.6843Z" fill="black"/></symbol>
	<symbol id="heart" width="24" height="21" viewBox="0 0 24 21" fill="none" xmlns="http://www.w3.org/2000/svg"><path d="M20.6878 3.16065C20.177 2.64966 19.5706 2.2443 18.9031 1.96774C18.2357 1.69118 17.5203 1.54883 16.7978 1.54883C16.0753 1.54883 15.3599 1.69118 14.6924 1.96774C14.025 2.2443 13.4185 2.64966 12.9078 3.16065L11.8478 4.22065L10.7878 3.16065C9.75608 2.12896 8.35681 1.54936 6.89778 1.54936C5.43874 1.54936 4.03947 2.12896 3.00778 3.16065C1.97608 4.19235 1.39648 5.59162 1.39648 7.05065C1.39648 8.50969 1.97608 9.90896 3.00778 10.9407L4.06777 12.0007L11.8478 19.7807L19.6278 12.0007L20.6878 10.9407C21.1988 10.4299 21.6041 9.82347 21.8807 9.15601C22.1573 8.48855 22.2996 7.77314 22.2996 7.05065C22.2996 6.32817 22.1573 5.61276 21.8807 4.9453C21.6041 4.27784 21.1988 3.67141 20.6878 3.16065V3.16065Z" stroke="black" stroke-width="1.5" stroke-linecap="round" stroke-linejoin="round"/></symbol>
	<symbol id="user" width="25" height="25" viewBox="0 0 25 25" fill="none" xmlns="http://www.w3.org/2000/svg"><path d="M20.8477 21.5508V19.5508C20.8477 18.4899 20.4262 17.4725 19.6761 16.7224C18.9259 15.9722 17.9085 15.5508 16.8477 15.5508H8.84766C7.78679 15.5508 6.76937 15.9722 6.01923 16.7224C5.26908 17.4725 4.84766 18.4899 4.84766 19.5508V21.5508" stroke="black" stroke-width="1.5" stroke-linecap="round" stroke-linejoin="round"/><path d="M12.8477 11.5508C15.0568 11.5508 16.8477 9.75992 16.8477 7.55078C16.8477 5.34164 15.0568 3.55078 12.8477 3.55078C10.6385 3.55078 8.84766 5.34164 8.84766 7.55078C8.84766 9.75992 10.6385 11.5508 12.8477 11.5508Z" stroke="black" stroke-width="1.5" stroke-linecap="round" stroke-linejoin="round"/></symbol>
	<symbol id="drawerArrowRight" width="8" height="14" viewBox="0 0 8 14" fill="none" xmlns="http://www.w3.org/2000/svg"><path d="M1 13L7 7L1 1" stroke="black" stroke-width="2" stroke-linecap="round" stroke-linejoin="round"/></symbol>
	<symbol id="drawerArrowLeft" width="30" height="30" viewBox="0 0 30 30" fill="none" xmlns="http://www.w3.org/2000/svg"><path d="M18.75 22.5L11 14.75L18.75 7" stroke="#060D21" stroke-width="2" stroke-linecap="round" stroke-linejoin="round"/></symbol>
	<symbol id="drawerUser" width="40" height="40" viewBox="0 0 40 40" fill="none" xmlns="http://www.w3.org/2000/svg"><circle cx="20" cy="20" r="20" fill="#A3E3FF"/><path d="M27.625 27.825H27.825V27.625V26.25C27.825 26.0738 27.7217 25.9104 27.5981 25.7735C27.4686 25.6301 27.2865 25.4827 27.0667 25.336C26.6259 25.0418 26.0066 24.7324 25.2767 24.4509C23.8167 23.8878 21.8859 23.425 20 23.425C18.1141 23.425 16.1833 23.8878 14.7233 24.4509C13.9934 24.7324 13.3741 25.0418 12.9333 25.336C12.7135 25.4827 12.5314 25.6301 12.4019 25.7735C12.2783 25.9104 12.175 26.0738 12.175 26.25V27.625V27.825H12.375H27.625ZM22.825 15C22.825 13.4395 21.5605 12.175 20 12.175C18.4395 12.175 17.175 13.4395 17.175 15C17.175 16.5605 18.4395 17.825 20 17.825C21.5605 17.825 22.825 16.5605 22.825 15ZM15.2 15C15.2 12.348 17.348 10.2 20 10.2C22.652 10.2 24.8 12.348 24.8 15C24.8 17.652 22.652 19.8 20 19.8C17.348 19.8 15.2 17.652 15.2 15ZM10.2 26.25C10.2 25.4922 10.578 24.8136 11.2288 24.213C11.881 23.6111 12.7936 23.1011 13.8228 22.6888C15.8815 21.8641 18.3563 21.45 20 21.45C21.6437 21.45 24.1185 21.8641 26.1772 22.6888C27.2064 23.1011 28.119 23.6111 28.7712 24.213C29.422 24.8136 29.8 25.4922 29.8 26.25V29.8H10.2V26.25Z" fill="#8F2AED" stroke="#A3E3FF" stroke-width="0.4"/></symbol>
	<symbol id="close" viewBox="0 0 30 30" fill="none" xmlns="http://www.w3.org/2000/svg"><path d="M22.5 7.5L7.5 22.5" stroke="black" stroke-width="2" stroke-linecap="round" stroke-linejoin="round"/><path d="M7.5 7.5L22.5 22.5" stroke="black" stroke-width="2" stroke-linecap="round" stroke-linejoin="round"/></symbol>
	<symbol id="benefitBarCard" width="30" height="24" viewBox="0 0 30 24" fill="none" xmlns="http://www.w3.org/2000/svg"><path d="M26.7866 1.82227H3.21512C2.03166 1.82227 1.07227 2.78166 1.07227 3.96512V20.0366C1.07227 21.22 2.03166 22.1794 3.21512 22.1794H26.7866C27.97 22.1794 28.9294 21.22 28.9294 20.0366V3.96512C28.9294 2.78166 27.97 1.82227 26.7866 1.82227Z" stroke="black" stroke-width="1.71429" stroke-linecap="round" stroke-linejoin="round"/><path d="M1.07227 9.32227H28.9294" stroke="black" stroke-width="1.71429" stroke-linecap="round" stroke-linejoin="round"/><path d="M20.3574 16.8223H23.5717" stroke="black" stroke-width="1.71429" stroke-linecap="round" stroke-linejoin="round"/></symbol>
	<symbol id="benefitBarMap" width="29" height="27" viewBox="0 0 29 27" fill="none" xmlns="http://www.w3.org/2000/svg"><path d="M27.5612 9.90769C27.5612 9.9077 27.5612 9.90769 27.5612 9.90767L27.2674 8.0027C27.2673 8.00265 27.2673 8.00262 27.2672 8.00262C27.2672 8.00262 27.2672 8.00258 27.2671 8.00253C27.2415 7.83314 27.0956 7.70805 26.9242 7.70875H26.331C26.253 7.70911 26.1773 7.68316 26.1161 7.63515L24.2653 6.1819C24.2115 6.13919 24.146 6.1136 24.0775 6.10848L21.7805 5.9288H21.7806C21.7411 5.92545 21.7023 5.91521 21.6663 5.8988L17.6302 4.08092C17.5605 4.0495 17.5029 3.99585 17.4669 3.92843L16.3512 1.87093C16.3512 1.87091 16.3511 1.87092 16.3511 1.87094C16.3511 1.87096 16.3511 1.87097 16.3511 1.87095C16.286 1.74992 16.1554 1.679 16.0184 1.69012C15.8815 1.70142 15.7641 1.79266 15.7196 1.92274L15.4203 2.77186C15.3756 2.89788 15.2622 2.987 15.1291 3.00042L11.1583 3.41959C10.9906 3.43442 10.8367 3.3264 10.7937 3.16367L10.2765 1.21232C10.2531 1.1216 10.1938 1.04412 10.1122 0.998056C10.0305 0.951816 9.93379 0.940697 9.84377 0.967346L7.36722 1.68322C7.26574 1.71217 7.18314 1.78594 7.14272 1.88354C7.10248 1.98115 7.10901 2.09181 7.16037 2.18394L7.48971 2.77994C7.54654 2.87683 7.55271 2.99544 7.50612 3.09781C7.45953 3.20018 7.36616 3.27342 7.25567 3.29425L5.2717 3.6453L3.98444 3.84119C3.98439 3.8412 3.98436 3.84124 3.98436 3.84129C3.98436 3.84134 3.98432 3.84139 3.98427 3.8414C3.80958 3.86755 3.6829 4.02144 3.69049 4.1979L3.80751 7.6706C3.80786 7.7765 3.75985 7.87674 3.6769 7.94275L1.35812 9.7933C1.28435 9.85155 1.23758 9.93714 1.22822 10.0305C1.21905 10.1241 1.24817 10.2172 1.30906 10.2887L2.62907 11.8399C2.73038 11.9607 2.90052 11.9977 3.04277 11.9298L3.31493 11.7992C3.42224 11.7476 3.54843 11.7549 3.64921 11.8184C3.74981 11.8821 3.8107 11.993 3.81017 12.1121C3.80911 12.2231 3.86171 12.3279 3.95119 12.3938C4.04068 12.4594 4.15628 12.4783 4.262 12.4441L6.88011 11.6712C6.97453 11.6433 7.07638 11.6573 7.16021 11.7092C7.24387 11.7611 7.3014 11.8463 7.31835 11.9434L7.40005 12.3461C7.40006 12.3461 7.40002 12.3461 7.39998 12.3461C7.39993 12.3461 7.3999 12.3462 7.3999 12.3462C7.42393 12.4641 7.5074 12.561 7.62033 12.6021L10.5922 13.7071C10.5923 13.7071 10.5923 13.7071 10.5923 13.707C10.5923 13.707 10.5924 13.7069 10.5924 13.707C10.7279 13.7571 10.818 13.8863 10.8182 14.0308V14.9344C10.8175 15.0869 10.9171 15.222 11.063 15.2664L12.0103 15.5631C12.1351 15.6012 12.2277 15.7066 12.2498 15.8353L12.8241 19.101C12.8241 19.1011 12.8241 19.1011 12.824 19.1011C12.824 19.1011 12.8239 19.1012 12.8239 19.1012C12.8338 19.1589 12.8582 19.2132 12.8947 19.2589L15.1482 22.0729C15.2638 22.2152 15.2483 22.4231 15.1127 22.5466L13.3929 24.1197C13.3928 24.1197 13.3928 24.1197 13.3928 24.1196C13.3928 24.1196 13.3927 24.1196 13.3927 24.1196C13.3123 24.1893 13.2682 24.292 13.2735 24.3984C13.2789 24.5047 13.333 24.6026 13.42 24.6639L15.4775 26.1771C15.6235 26.2871 15.8297 26.2643 15.9483 26.1254L18.2561 23.4339L18.2563 23.4337C18.3131 23.3682 18.3431 23.2837 18.3406 23.197L18.3025 21.9778C18.2993 21.8874 18.3315 21.7995 18.3924 21.7328L19.3068 20.7341C19.3401 20.6977 19.3809 20.6689 19.4264 20.6497L21.3598 19.8195C21.368 19.816 21.3769 19.8142 21.3858 19.8142C21.3931 19.8142 21.4003 19.813 21.4072 19.8106L23.0407 19.248C23.1482 19.2111 23.2306 19.1236 23.2611 19.014L24.8804 13.2307C24.8804 13.2306 24.8805 13.2306 24.8805 13.2307C24.8805 13.2307 24.8805 13.2307 24.8805 13.2307C24.8939 13.1815 24.9181 13.1359 24.9512 13.0973L27.4741 10.188C27.5434 10.1121 27.5752 10.0094 27.5613 9.90771C27.5613 9.9077 27.5612 9.90769 27.5612 9.90769ZM24.5484 12.7382C24.4623 12.8375 24.3991 12.9546 24.3633 13.0811L22.9097 18.2629C22.8212 18.5784 22.5839 18.8304 22.2744 18.9377L21.1982 19.3108L21.1546 19.3298L19.2087 20.1627C19.0917 20.2121 18.9867 20.2864 18.9011 20.3803L17.9867 21.3791C17.8287 21.5507 17.7447 21.7774 17.7527 22.0106L17.7778 22.7633C17.7862 23.0143 17.6998 23.2592 17.5359 23.4494L16.2625 24.9272C15.9199 25.3248 15.3268 25.3889 14.906 25.0752C14.4027 24.7002 14.3636 23.9583 14.8266 23.5345L15.4775 22.9386C15.6436 22.7856 15.7456 22.5752 15.7627 22.35C15.7798 22.1246 15.711 21.9014 15.57 21.7249L13.5122 19.1569C13.4071 19.0257 13.3367 18.8701 13.3076 18.7045L12.7858 15.732C12.7577 15.5703 12.6853 15.4196 12.5768 15.2966C12.4683 15.1736 12.3276 15.0832 12.1707 15.0352L12.0581 15.0003C11.6396 14.8705 11.3542 14.4834 11.3542 14.0451V14.0228C11.3535 13.8408 11.2976 13.6634 11.1934 13.5141C11.0895 13.3648 10.9423 13.2508 10.772 13.1873L8.02373 12.1658C7.95233 12.1393 7.89972 12.0777 7.88466 12.003L7.84907 11.8266C7.84906 11.8265 7.84902 11.8265 7.84897 11.8265C7.84891 11.8265 7.84887 11.8264 7.84886 11.8264C7.80066 11.5781 7.64923 11.3621 7.43217 11.2322C7.21508 11.1023 6.95301 11.0711 6.71137 11.1461L4.31107 11.8565C4.31105 11.8565 4.31103 11.8565 4.31101 11.8565C4.31092 11.8565 4.31085 11.8564 4.31082 11.8564C4.23561 11.6074 4.05526 11.4038 3.8172 11.2991C3.57893 11.1945 3.30695 11.1992 3.07259 11.3122C2.9907 11.3507 2.89314 11.3296 2.83448 11.2607L2.47136 10.8341C2.12911 10.432 2.18839 9.82623 2.6021 9.49808L4.00336 8.38663C4.0034 8.3866 4.00343 8.38654 4.00343 8.38649C4.00343 8.38643 4.00345 8.38638 4.00349 8.38634C4.22477 8.2102 4.34989 7.93984 4.34089 7.65711L4.25347 5.24755C4.23509 4.74067 4.59909 4.3003 5.10037 4.22298L5.35061 4.18439L7.3481 3.83335C7.34815 3.83334 7.34818 3.8333 7.34818 3.83325C7.34818 3.8332 7.34822 3.83316 7.34827 3.83315C7.63222 3.78388 7.87467 3.60034 7.99909 3.34022C8.12334 3.08024 8.11416 2.77616 7.9742 2.52413C7.86666 2.32852 7.96781 2.08363 8.18204 2.02092L8.8768 1.81756C9.38174 1.66975 9.90867 1.96979 10.0392 2.47946L10.2494 3.2998C10.2994 3.49059 10.4111 3.65967 10.5671 3.78023C10.7231 3.90095 10.9148 3.96643 11.1121 3.9666H11.2074L15.1918 3.53384C15.3591 3.51566 15.5178 3.45071 15.6498 3.34623C15.7818 3.24174 15.8815 3.10196 15.9375 2.94329C15.9939 2.78137 16.2158 2.7634 16.2975 2.91413L16.988 4.18704C17.0814 4.35912 17.2286 4.49573 17.4072 4.57621L21.4432 6.38597C21.4432 6.38598 21.4432 6.386 21.4432 6.386C21.4431 6.386 21.4431 6.38603 21.4432 6.38604C21.5361 6.42802 21.6355 6.45378 21.7371 6.46225L23.6721 6.61293C23.8691 6.62827 24.0571 6.70159 24.2124 6.82365L25.7785 8.05437C25.7785 8.0544 25.7786 8.05442 25.7786 8.05442C25.7787 8.05442 25.7787 8.05444 25.7788 8.05447C25.9341 8.17622 26.1255 8.24309 26.323 8.24486C26.5688 8.24486 26.7778 8.42429 26.8149 8.66724L26.9336 9.44325C26.9779 9.73274 26.8931 10.0271 26.7015 10.2486L24.5484 12.7382Z" fill="black" stroke="black"/></symbol>
	<symbol id="benefitBarTruck" width="30" height="24" viewBox="0 0 30 24" fill="none" xmlns="http://www.w3.org/2000/svg"><path d="M11.7866 5.78516H5.35798C4.22134 5.78516 3.13125 6.23669 2.32752 7.04041C1.52379 7.84414 1.07227 8.93423 1.07227 10.0709V18.6423H4.28655" stroke="black" stroke-width="1.71429" stroke-linecap="round" stroke-linejoin="round"/><path d="M26.7871 18.6429H28.93V3.64286C28.93 3.07454 28.7042 2.52949 28.3023 2.12763C27.9005 1.72576 27.3554 1.5 26.7871 1.5H13.93C13.3616 1.5 12.8166 1.72576 12.4147 2.12763C12.0129 2.52949 11.7871 3.07454 11.7871 3.64286V15.8143" stroke="black" stroke-width="1.71429" stroke-linecap="round" stroke-linejoin="round"/><path d="M12.8574 18.6426H18.2146" stroke="black" stroke-width="1.71429" stroke-linecap="round" stroke-linejoin="round"/><path d="M8.57282 22.9289C10.9398 22.9289 12.8585 21.0101 12.8585 18.6431C12.8585 16.2762 10.9398 14.3574 8.57282 14.3574C6.20589 14.3574 4.28711 16.2762 4.28711 18.6431C4.28711 21.0101 6.20589 22.9289 8.57282 22.9289Z" stroke="black" stroke-width="1.71429" stroke-linecap="round" stroke-linejoin="round"/><path d="M22.5006 22.9289C24.8675 22.9289 26.7863 21.0101 26.7863 18.6431C26.7863 16.2762 24.8675 14.3574 22.5006 14.3574C20.1336 14.3574 18.2148 16.2762 18.2148 18.6431C18.2148 21.0101 20.1336 22.9289 22.5006 22.9289Z" stroke="black" stroke-width="1.71429" stroke-linecap="round" stroke-linejoin="round"/></symbol>
	<symbol id="benefitBarQrCode" width="30" height="30" viewBox="0 0 30 30" fill="none" xmlns="http://www.w3.org/2000/svg"><path d="M12.8583 6.42969H8.57254C7.38908 6.42969 6.42969 7.38908 6.42969 8.57254V12.8583C6.42969 14.0417 7.38908 15.0011 8.57254 15.0011H12.8583C14.0417 15.0011 15.0011 14.0417 15.0011 12.8583V8.57254C15.0011 7.38908 14.0417 6.42969 12.8583 6.42969Z" stroke="black" stroke-width="1.71429" stroke-linecap="round" stroke-linejoin="round"/><path d="M6.42941 1.07227H3.21512C2.6468 1.07227 2.10176 1.29803 1.69989 1.69989C1.29803 2.10176 1.07227 2.6468 1.07227 3.21512V6.42941" stroke="black" stroke-width="1.71429" stroke-linecap="round" stroke-linejoin="round"/><path d="M23.5723 1.07227H26.7866C27.3549 1.07227 27.8999 1.29803 28.3018 1.69989C28.7036 2.10176 28.9294 2.6468 28.9294 3.21512V6.42941" stroke="black" stroke-width="1.71429" stroke-linecap="round" stroke-linejoin="round"/><path d="M6.42941 28.9294H3.21512C2.6468 28.9294 2.10176 28.7036 1.69989 28.3018C1.29803 27.8999 1.07227 27.3549 1.07227 26.7866V23.5723" stroke="black" stroke-width="1.71429" stroke-linecap="round" stroke-linejoin="round"/><path d="M23.5723 28.9294H26.7866C27.3549 28.9294 27.8999 28.7036 28.3018 28.3018C28.7036 27.8999 28.9294 27.3549 28.9294 26.7866V23.5723" stroke="black" stroke-width="1.71429" stroke-linecap="round" stroke-linejoin="round"/><path d="M6.42969 20.3594V23.5737H9.64397" stroke="black" stroke-width="1.71429" stroke-linecap="round" stroke-linejoin="round"/><path d="M15.0014 23.5737V20.3594H11.7871" stroke="black" stroke-width="1.71429" stroke-linecap="round" stroke-linejoin="round"/><path d="M23.5717 9.64397H20.3574V6.42969" stroke="black" stroke-width="1.71429" stroke-linecap="round" stroke-linejoin="round"/><path d="M23.5717 17.144V13.9297H20.3574" stroke="black" stroke-width="1.71429" stroke-linecap="round" stroke-linejoin="round"/><path d="M20.3574 20.3594V23.5737H23.5717" stroke="black" stroke-width="1.71429" stroke-linecap="round" stroke-linejoin="round"/></symbol>
	<symbol id="favorite" viewBox="0 0 26 23" fill="currentColor" xmlns="http://www.w3.org/2000/svg"><path d="M22.5786 2.85908C22.0253 2.29942 21.3683 1.85546 20.6452 1.55256C19.9221 1.24965 19.1471 1.09375 18.3644 1.09375C17.5817 1.09375 16.8067 1.24965 16.0836 1.55256C15.3605 1.85546 14.7036 2.29942 14.1503 2.85908L13.0019 4.02004L11.8536 2.85908C10.7359 1.72913 9.22004 1.09434 7.63942 1.09434C6.0588 1.09434 4.54292 1.72913 3.42525 2.85908C2.30759 3.98903 1.67969 5.52157 1.67969 7.11956C1.67969 8.71755 2.30759 10.2501 3.42525 11.38L4.57359 12.541L13.0019 21.0619L21.4303 12.541L22.5786 11.38C23.1322 10.8206 23.5713 10.1565 23.8709 9.42542C24.1705 8.6944 24.3247 7.91085 24.3247 7.11956C24.3247 6.32826 24.1705 5.54472 23.8709 4.81369C23.5713 4.08267 23.1322 3.41848 22.5786 2.85908V2.85908Z" stroke-width="2" stroke-linecap="round" stroke-linejoin="round"/></symbol>
	<symbol id="share" viewBox="0 0 20 20" fill="none" xmlns="http://www.w3.org/2000/svg"><path fill-rule="evenodd" clip-rule="evenodd" d="M13.418 4.68893C13.2772 4.32893 13.2004 3.93773 13.2004 3.52813C13.2004 1.76173 14.634 0.328125 16.4004 0.328125C18.1668 0.328125 19.6004 1.76173 19.6004 3.52813C19.6004 5.29453 18.1668 6.72813 16.4004 6.72813C15.3292 6.72813 14.3804 6.20093 13.7996 5.39213L8.09479 8.39293C8.29159 8.86573 8.40039 9.38413 8.40039 9.92813C8.40039 10.4729 8.29159 10.9921 8.09319 11.4657L13.798 14.4665C14.3788 13.6561 15.3284 13.1281 16.4004 13.1281C18.1668 13.1281 19.6004 14.5617 19.6004 16.3281C19.6004 18.0945 18.1668 19.5281 16.4004 19.5281C14.634 19.5281 13.2004 18.0945 13.2004 16.3281C13.2004 15.9201 13.2772 15.5289 13.4164 15.1705L7.71319 12.1697C6.99319 13.2305 5.77799 13.9281 4.40039 13.9281C2.19239 13.9281 0.400391 12.1361 0.400391 9.92813C0.400391 7.72013 2.19239 5.92812 4.40039 5.92812C5.77879 5.92812 6.99479 6.62653 7.71479 7.68893L13.418 4.68893ZM16.4004 13.9281C17.7252 13.9281 18.8004 15.0033 18.8004 16.3281C18.8004 17.6529 17.7252 18.7281 16.4004 18.7281C15.0756 18.7281 14.0004 17.6529 14.0004 16.3281C14.0004 15.0033 15.0756 13.9281 16.4004 13.9281ZM4.40039 6.72813C6.16679 6.72813 7.60039 8.16173 7.60039 9.92813C7.60039 11.6945 6.16679 13.1281 4.40039 13.1281C2.63399 13.1281 1.20039 11.6945 1.20039 9.92813C1.20039 8.16173 2.63399 6.72813 4.40039 6.72813ZM16.4004 1.12813C17.7252 1.12813 18.8004 2.20333 18.8004 3.52813C18.8004 4.85293 17.7252 5.92812 16.4004 5.92812C15.0756 5.92812 14.0004 4.85293 14.0004 3.52813C14.0004 2.20333 15.0756 1.12813 16.4004 1.12813Z" stroke-width="1"/></symbol>
	<symbol id="categoryPayToWin" width="56" height="56" viewBox="0 0 56 56" fill="none" xmlns="http://www.w3.org/2000/svg"><path d="M54.9545 41.3607L53.1244 40.3244C50.5214 38.579 47.4758 38.4787 43.7904 40.0232L34.0021 44.4376C33.201 44.7971 32.2854 44.7293 31.5481 44.2559L24.5166 39.7412C27.8411 38.0744 31.1661 36.4023 34.4728 34.7323C35.1094 34.4197 35.5383 33.8167 35.6189 33.119C35.699 32.4291 35.4243 31.7523 34.8783 31.3048C31.3879 28.4857 27.7273 28.1918 23.3573 30.3837C18.7327 32.7048 14.9325 34.024 11.1998 34.6098V33.5965C11.1998 32.567 10.3627 31.7299 9.3332 31.7299H1.86664C0.837128 31.73 0 32.5671 0 33.5965V53.1974C0 54.2269 0.837128 55.064 1.86664 55.064H9.33353C10.363 55.064 11.2002 54.2269 11.2002 53.1974V52.4287L33.2408 54.1029C33.4732 54.1211 33.7061 54.1298 33.9389 54.1298C35.3115 54.1298 36.6768 53.8162 37.9251 53.2102L54.8407 44.9959C55.5329 44.6518 55.9758 43.9632 55.9973 43.199C56.0181 42.443 55.619 41.7384 54.9545 41.3607ZM1.86664 53.1975V33.5965H9.33353L9.33484 53.1974H1.86664V53.1975ZM54.0172 43.3207L37.1093 51.5314C35.9476 52.0956 34.6644 52.3408 33.3837 52.2419L11.2001 50.557V36.496C15.2235 35.9036 19.2723 34.5226 24.1948 32.0522C27.9307 30.1792 30.7758 30.3898 33.7 32.7526C33.7188 32.7676 33.7753 32.8142 33.7648 32.9039C33.7598 32.9504 33.7356 33.0146 33.6413 33.0612C29.8411 34.9807 26.0299 36.9001 22.2143 38.8101C20.9278 39.4622 19.6318 40.1135 18.3348 40.7656L18.0477 40.9096C17.5875 41.1412 17.4015 41.7021 17.633 42.1628C17.797 42.4886 18.126 42.6769 18.4678 42.6769C18.6086 42.6769 18.7517 42.6449 18.8861 42.5775L19.1732 42.4331C20.3135 41.8601 21.4503 41.2876 22.5806 40.7158L30.5397 45.8262C31.8084 46.6415 33.3892 46.7586 34.7677 46.1402L44.535 41.7348C47.6151 40.4428 50.0145 40.4876 52.1441 41.9111L54.0322 42.9834C54.0577 42.998 54.1342 43.0413 54.1315 43.1471C54.1297 43.2013 54.1074 43.2756 54.0172 43.3207Z" fill="#8F2AED"/><path d="M41.0676 30.7975C49.3014 30.7975 56.0004 24.0985 56.0004 15.8646C56.0004 7.6307 49.3014 0.931641 41.0676 0.931641C32.8338 0.931641 26.1348 7.6307 26.1348 15.8646C26.1348 24.0985 32.8337 30.7975 41.0676 30.7975ZM41.0676 2.79819C48.2724 2.79819 54.1338 8.65967 54.1338 15.8646C54.1338 23.0695 48.2724 28.931 41.0676 28.931C33.8627 28.931 28.0013 23.0695 28.0013 15.8646C28.0013 8.65967 33.8627 2.79819 41.0676 2.79819Z" fill="#8F2AED"/><path d="M38.3439 21.514C37.6885 20.9895 37.3276 20.3109 37.3276 19.6032C37.3276 19.0877 36.9097 18.6699 36.3943 18.6699C35.879 18.6699 35.461 19.0878 35.461 19.6032C35.461 20.8897 36.0708 22.0859 37.1777 22.9714C37.9962 23.6262 39.0208 24.0416 40.1249 24.1956V25.203C40.1249 25.7185 40.5428 26.1363 41.0581 26.1363C41.5736 26.1363 41.9914 25.7184 41.9914 25.203V24.1959C43.0972 24.0426 44.1238 23.6273 44.944 22.9714C46.0509 22.0855 46.6607 20.8892 46.6607 19.6032C46.6607 18.3176 46.0509 17.1213 44.9435 16.2341C43.9972 15.4778 42.9112 15.1703 41.9914 15.0344V9.4613C42.6579 9.58467 43.2861 9.83251 43.7773 10.2254C44.4331 10.7504 44.794 11.4289 44.794 12.1367C44.794 12.6521 45.2119 13.0699 45.7273 13.0699C46.2427 13.0699 46.6606 12.652 46.6606 12.1367C46.6606 10.8511 46.0508 9.65478 44.9434 8.76755C44.1234 8.11208 43.0969 7.69701 41.9913 7.54378V6.53679C41.9913 6.02132 41.5734 5.60352 41.058 5.60352C40.5425 5.60352 40.1248 6.02143 40.1248 6.53679V7.54422C39.021 7.69811 37.9964 8.11317 37.1776 8.76799C36.0707 9.6539 35.4609 10.8507 35.4609 12.1367C35.4609 13.4232 36.0707 14.6194 37.1776 15.5049C38.133 16.2696 39.1868 16.5791 40.1248 16.7168V22.2774C39.4602 22.1535 38.834 21.906 38.3439 21.514ZM41.9914 16.9363C42.7301 17.0793 43.3158 17.3224 43.7773 17.6918C44.4331 18.2168 44.794 18.8953 44.794 19.6031C44.794 20.3108 44.4331 20.9894 43.7778 21.5139C43.2862 21.907 42.6579 22.155 41.9914 22.2786V16.9363ZM40.1248 14.8155C39.3916 14.6745 38.8259 14.4331 38.3439 14.0475C37.6885 13.5229 37.3276 12.8444 37.3276 12.1367C37.3276 11.4289 37.6885 10.7499 38.3439 10.2254C38.834 9.8336 39.4602 9.58631 40.1248 9.4625V14.8155Z" fill="#8F2AED"/></symbol>
	<symbol id="categoryBrandForStore" width="57" height="56" viewBox="0 0 57 56" fill="none" xmlns="http://www.w3.org/2000/svg"><path d="M14.7213 39.3299C14.991 39.3299 15.2555 39.2204 15.4462 39.0297C15.6369 38.839 15.7467 38.5748 15.7467 38.3048C15.7467 38.0351 15.6369 37.7708 15.4462 37.5798C15.2555 37.3881 14.991 37.2793 14.7213 37.2793C14.4516 37.2793 14.187 37.3881 13.9963 37.5798C13.8056 37.7708 13.6958 38.0344 13.6958 38.3048C13.6958 38.5748 13.8056 38.839 13.9963 39.0297C14.187 39.2204 14.4516 39.3299 14.7213 39.3299Z" fill="#8F2AED"/><path d="M32.7272 26.3236C32.6068 25.9525 32.2857 25.6821 31.8998 25.6259L28.3167 25.1052L26.7146 21.8589C26.5419 21.5086 26.1855 21.2871 25.7954 21.2871C25.4047 21.2871 25.0483 21.5086 24.8756 21.8589L23.2735 25.1052L19.6911 25.6259C19.3045 25.6821 18.9838 25.9525 18.8631 26.3236C18.7427 26.6951 18.8432 27.1022 19.1228 27.3748L21.7151 29.9018L21.1031 33.4701C21.037 33.8547 21.1953 34.2435 21.5109 34.4728C21.8268 34.7027 22.2455 34.7322 22.5906 34.5508L25.7954 32.8665L28.9996 34.5508C29.1496 34.6298 29.3133 34.6686 29.4767 34.6686C29.689 34.6686 29.9009 34.6025 30.0797 34.4728C30.3953 34.2435 30.5536 33.8547 30.4874 33.4701L29.8752 29.9018L32.4681 27.3748C32.7474 27.1022 32.8479 26.6951 32.7272 26.3236ZM28.0576 28.8096C27.8162 29.0452 27.7061 29.3846 27.7629 29.7172L28.1148 31.7691L26.2725 30.8002C26.1229 30.7215 25.9592 30.6823 25.7954 30.6823C25.6311 30.6823 25.4673 30.7215 25.318 30.8002L23.4755 31.7691L23.8277 29.7172C23.8845 29.3846 23.7744 29.0452 23.5326 28.8096L22.0419 27.3568L24.1018 27.0575C24.4361 27.0087 24.7247 26.7988 24.874 26.4963L25.7954 24.6297L26.7162 26.4963C26.8655 26.7988 27.1545 27.0087 27.4884 27.0575L29.5483 27.3568L28.0576 28.8096Z" fill="#8F2AED"/><path d="M33.7682 1.73242H32.9993C29.71 1.73242 26.8667 3.67324 25.5504 6.46904H15.7467C14.616 6.46904 13.6958 7.38888 13.6958 8.51966V33.9307C13.6958 34.4964 14.1549 34.9558 14.7213 34.9558C15.2876 34.9558 15.7467 34.4964 15.7467 33.9307V8.51966H24.8996C24.8161 8.98841 24.7702 9.46936 24.7702 9.96122V10.22C23.3466 10.6589 22.3092 11.9868 22.3092 13.5526C22.3092 15.4748 23.8734 17.039 25.796 17.039C27.7182 17.039 29.2824 15.4748 29.2824 13.5526C29.2824 11.9868 28.2447 10.6589 26.8214 10.22V9.96122C26.8214 9.46486 26.8818 8.98263 26.9929 8.51966H35.8449L35.8439 52.1801L27.2459 43.5818C26.4461 42.782 25.1452 42.782 24.3454 43.5818L15.7467 52.1798V42.2876C15.7467 41.7213 15.2876 41.2621 14.7213 41.2621C14.1549 41.2621 13.6958 41.7213 13.6958 42.2876V52.1805C13.6958 53.013 14.1931 53.7566 14.9621 54.0754C15.731 54.3939 16.6081 54.2192 17.197 53.631L25.796 45.032L34.3943 53.631C34.7876 54.0243 35.31 54.2324 35.8426 54.2324C36.1072 54.2324 36.3743 54.1807 36.6295 54.0754C37.3985 53.7566 37.8955 53.0133 37.8955 52.1805V8.51966C37.8955 7.38888 36.9753 6.46904 35.8449 6.46904H27.9063C29.0213 4.84832 30.888 3.78336 32.9993 3.78336H33.7682C37.175 3.78336 39.9464 6.55476 39.9464 9.96122V20.0397C39.9464 20.606 40.4059 21.0651 40.9716 21.0651C41.5379 21.0651 41.997 20.606 41.997 20.0397V9.96122C41.997 5.42399 38.3058 1.73242 33.7682 1.73242ZM27.2314 13.5526C27.2314 14.344 26.5874 14.9881 25.796 14.9881C25.0039 14.9881 24.3599 14.344 24.3599 13.5526C24.3599 13.1625 24.5169 12.8087 24.7702 12.5496V12.8755C24.7702 13.4415 25.2296 13.901 25.796 13.901C26.362 13.901 26.8214 13.4415 26.8214 12.8755V12.5496C27.0744 12.8087 27.2314 13.1625 27.2314 13.5526Z" fill="#8F2AED"/><path d="M40.9729 23.5039C40.7035 23.5039 40.4387 23.6134 40.2479 23.8044C40.0572 23.9951 39.9478 24.2594 39.9478 24.5294C39.9478 24.7997 40.0572 25.0633 40.2479 25.254C40.4387 25.4457 40.7035 25.5548 40.9729 25.5548C41.2429 25.5548 41.5075 25.4457 41.6979 25.254C41.8886 25.0633 41.9984 24.7987 41.9984 24.5294C41.9984 24.2594 41.8886 23.9951 41.6979 23.8044C41.5075 23.6134 41.2429 23.5039 40.9729 23.5039Z" fill="#8F2AED"/><path d="M29.2445 37.2793H22.3404C21.7741 37.2793 21.3149 37.7387 21.3149 38.3051C21.3149 38.8711 21.7741 39.3302 22.3404 39.3302H29.2445C29.8109 39.3302 30.2703 38.8711 30.2703 38.3051C30.2703 37.7387 29.8109 37.2793 29.2445 37.2793Z" fill="#8F2AED"/></symbol>
	<symbol id="categorySalonBrands" width="57" height="54" viewBox="0 0 57 54" fill="none" xmlns="http://www.w3.org/2000/svg"><path d="M49.733 19.572L49.7207 19.6883L49.799 19.7752L55.9802 26.638L49.7989 33.5008L49.7206 33.5876L49.7329 33.7039L50.7007 42.8913L41.6622 44.8048L41.5476 44.8291L41.4891 44.9307L36.8788 52.9396L28.4405 49.1684L28.3334 49.1205L28.2263 49.1684L19.7881 52.9396L15.1778 44.9307L15.1193 44.8291L15.0046 44.8048L5.96621 42.8913L6.9339 33.7039L6.94615 33.5876L6.86789 33.5008L0.686774 26.638L6.868 19.7752L6.94626 19.6883L6.93401 19.572L5.96632 10.3847L15.0048 8.47116L15.1194 8.44689L15.1779 8.34532L19.7882 0.336354L28.2264 4.1075L28.3336 4.15537L28.4407 4.1075L36.8789 0.336354L41.4892 8.34532L41.5477 8.44689L41.6623 8.47116L50.7008 10.3847L49.733 19.572ZM20.8189 49.1975L20.9371 49.4029L21.1535 49.3062L28.3336 46.0973L35.5134 49.306L35.7297 49.4027L35.848 49.1973L39.7701 42.3839L47.4636 40.7551L47.695 40.7061L47.6703 40.4708L46.847 32.6539L52.1071 26.8137L52.2654 26.638L52.1071 26.4623L46.8471 20.6221L47.6704 12.8052L47.6951 12.5699L47.4637 12.5209L39.7703 10.8921L35.8481 4.07866L35.7299 3.87327L35.5135 3.96997L28.3335 7.17878L21.1535 3.96997L20.9371 3.87327L20.8189 4.07866L16.8967 10.8921L9.20343 12.5209L8.97196 12.5699L8.99674 12.8052L9.82004 20.6221L4.55986 26.4624L4.40163 26.6381L4.55986 26.8138L9.82004 32.654L8.99674 40.471L8.97196 40.7063L9.20343 40.7553L16.8967 42.3841L20.8189 49.1975Z" fill="#8F2AED" stroke="#F5F5F5" stroke-width="0.525"/><path d="M26.0802 31.6436L37.6451 18.687L39.7043 20.5251L26.0092 35.8685L16.6246 26.4839L18.5764 24.5321L25.6988 31.6545L25.8952 31.8509L26.0802 31.6436Z" fill="#8F2AED" stroke="#F5F5F5" stroke-width="0.525"/></symbol>
	<symbol id="categoryHair" width="56" height="56" viewBox="0 0 56 56" fill="none" xmlns="http://www.w3.org/2000/svg"><path d="M4.06876 28.408L2.11489 32.3148C1.88336 32.7778 1.75876 33.2869 1.7503 33.8045C1.74183 34.3221 1.84972 34.835 2.06598 35.3053C2.28225 35.7757 2.60138 36.1914 2.99981 36.5219C3.39825 36.8524 3.86582 37.0892 4.36801 37.2148L5.36551 37.4633L6.43739 43.36C6.63548 44.4524 7.21096 45.4405 8.06336 46.1518C8.91575 46.8632 9.99091 47.2525 11.1011 47.252C11.3251 47.2521 11.5488 47.236 11.7705 47.2038L17.0608 46.4487C17.9226 47.9133 18.3764 49.582 18.375 51.2813V55.127H20.125V51.277C20.1246 49.4805 19.6938 47.7102 18.8685 46.1145L22.05 45.4845L21.7 43.7695L17.3469 44.6392L11.5185 45.4722C10.7554 45.5738 9.98224 45.3798 9.35755 44.9298C8.73285 44.4798 8.30388 43.808 8.15851 43.052L6.98514 36.5953C6.95502 36.4299 6.87784 36.2766 6.76285 36.1538C6.64786 36.0311 6.49992 35.944 6.33676 35.9032L4.79239 35.5165C4.54451 35.4545 4.31371 35.3376 4.11704 35.1745C3.92037 35.0114 3.76284 34.8062 3.65609 34.574C3.54934 34.3419 3.49609 34.0887 3.50028 33.8332C3.50446 33.5778 3.56597 33.3265 3.68026 33.098L6.91251 26.6431C7.01582 26.4355 7.0325 26.1953 6.95889 25.9755C6.40758 24.3263 6.12601 22.599 6.12501 20.8602C6.12406 19.0231 6.74521 17.2399 7.88726 15.801L12.0986 27.7885C13.9065 32.9623 16.741 37.7175 20.4321 41.7688C24.1231 45.8201 28.5946 49.0839 33.5781 51.3645L34.1338 55.2521L35.8663 55.0036L35.462 52.1756C35.9485 52.3707 36.4324 52.5685 36.9276 52.7452C41.3414 54.3238 45.9942 55.1295 50.6818 55.127H54.25C54.4521 55.1271 54.6481 55.0573 54.8046 54.9294C54.9611 54.8014 55.0684 54.6232 55.1084 54.4251C55.1484 54.227 55.1186 54.0211 55.024 53.8425C54.9294 53.6638 54.7759 53.5235 54.5895 53.4452L46.3838 49.9898C45.0525 49.4262 43.792 48.7082 42.6283 47.8505C46.322 49.331 50.1989 50.3052 54.1538 50.7467C54.1857 50.7502 54.2179 50.7519 54.25 50.752C54.4488 50.754 54.6424 50.6882 54.7989 50.5656C54.9553 50.4429 55.0654 50.2705 55.1108 50.077C55.1562 49.8834 55.1344 49.6801 55.0489 49.5006C54.9633 49.3211 54.8192 49.1761 54.6403 49.0895C51.9475 47.7422 49.5035 45.9467 47.4128 43.78C49.4139 45.1721 51.7222 46.0593 54.1406 46.3656C54.3298 46.3892 54.5214 46.3505 54.6865 46.2552C54.8516 46.16 54.9811 46.0134 55.0553 45.8379C55.1295 45.6623 55.1443 45.4673 55.0975 45.2825C55.0507 45.0977 54.9448 44.9333 54.796 44.8142C52.0775 42.6447 50.0719 39.7099 49.0385 36.3888L48.6211 35.0553C47.1077 30.2087 45.85 25.2859 44.8534 20.3072C43.7457 14.8331 40.7814 9.90957 36.462 6.36912C32.1425 2.82867 26.7329 0.888588 21.1479 0.876953C15.7734 0.88413 10.6211 3.02232 6.82073 6.82267C3.02038 10.623 0.882187 15.7753 0.875011 21.1498C0.872994 22.5153 1.15601 23.8661 1.70596 25.1159C2.2559 26.3657 3.06066 27.487 4.06876 28.408ZM21.1479 2.62695C26.3286 2.63862 31.3464 4.43874 35.353 7.72302C39.3597 11.0073 42.1094 15.5743 43.1375 20.652C44.1462 25.6906 45.4191 30.6727 46.9508 35.5777L47.3681 36.9121C48.1652 39.4739 49.4924 41.8392 51.2636 43.8543C48.4075 42.7601 46.0111 40.7225 44.4719 38.0793L38.3819 27.5645C38.269 27.3714 38.0864 27.2289 37.8717 27.1663C37.657 27.1037 37.4265 27.1256 37.2274 27.2276C37.0284 27.3297 36.876 27.504 36.8016 27.7149C36.7271 27.9258 36.7362 28.1572 36.827 28.3616L40.6875 36.9366C42.7285 41.4627 45.9194 45.3755 49.9424 48.2853C44.8026 47.1634 39.9202 45.0834 35.5504 42.1542C32.6617 37.9458 30.5986 33.227 29.4709 28.2487L27.9834 21.6862L26.2754 22.0747L27.7629 28.6372C28.6093 32.3564 29.9575 35.9432 31.7704 39.2991C27.2786 35.4856 23.6364 30.7727 21.0788 25.4645L19.1625 21.4963L17.5875 22.2576L19.5029 26.2257C23.4213 34.3836 29.7778 41.1223 37.6933 45.5098C39.8095 48.1817 42.5648 50.2773 45.7048 51.6033L49.8986 53.3691C41.9255 53.2098 34.1913 50.6189 27.731 45.9434C21.2708 41.2678 16.3927 34.7306 13.7498 27.2066L9.25839 14.4255L11.0609 12.924L9.93914 11.58L7.94239 13.2425C6.82425 14.1718 5.92483 15.3363 5.30822 16.6531C4.69161 17.9698 4.37297 19.4063 4.37501 20.8602C4.3748 22.6641 4.64708 24.4577 5.18264 26.1802L4.88776 26.77C3.43279 25.2612 2.62139 23.2459 2.62501 21.1498C2.63057 16.239 4.58387 11.5308 8.05637 8.05832C11.5289 4.58581 16.237 2.63251 21.1479 2.62695Z" fill="#8F2AED"/><path d="M15.75 11.3759C16.2876 11.377 16.8083 11.5638 17.224 11.9047C17.6397 12.2456 17.9248 12.7196 18.0311 13.2466L18.3925 15.0509C18.4327 15.2487 18.54 15.4265 18.6963 15.5542C18.8525 15.682 19.0482 15.7518 19.25 15.7518C19.4518 15.7518 19.6475 15.682 19.8037 15.5542C19.96 15.4265 20.0673 15.2487 20.1075 15.0509L20.4689 13.2501C20.5745 12.7225 20.8593 12.2476 21.2751 11.906C21.6908 11.5644 22.2119 11.3771 22.75 11.3759C22.9821 11.3759 23.2046 11.2837 23.3687 11.1196C23.5328 10.9555 23.625 10.7329 23.625 10.5009C23.625 10.2688 23.5328 10.0463 23.3687 9.88216C23.2046 9.71806 22.9821 9.62588 22.75 9.62588C22.2124 9.62479 21.6917 9.43799 21.276 9.09708C20.8603 8.75618 20.5752 8.28211 20.4689 7.75513L20.1075 5.95088C20.0673 5.75308 19.96 5.57524 19.8037 5.44751C19.6475 5.31978 19.4518 5.25 19.25 5.25C19.0482 5.25 18.8525 5.31978 18.6963 5.44751C18.54 5.57524 18.4327 5.75308 18.3925 5.95088L18.0311 7.75163C17.9255 8.27926 17.6407 8.75413 17.2249 9.09573C16.8092 9.43733 16.2881 9.62463 15.75 9.62588C15.5179 9.62588 15.2954 9.71806 15.1313 9.88216C14.9672 10.0463 14.875 10.2688 14.875 10.5009C14.875 10.7329 14.9672 10.9555 15.1313 11.1196C15.2954 11.2837 15.5179 11.3759 15.75 11.3759ZM19.25 9.387C19.507 9.81478 19.8396 10.1922 20.2317 10.5009C19.8396 10.8095 19.507 11.187 19.25 11.6148C18.993 11.187 18.6604 10.8095 18.2683 10.5009C18.6604 10.1922 18.993 9.81478 19.25 9.387Z" fill="#8F2AED"/><path d="M54.25 22.7509C53.7124 22.7498 53.1917 22.563 52.776 22.2221C52.3603 21.8812 52.0752 21.4071 51.9689 20.8801L51.6075 19.0759C51.5673 18.8781 51.46 18.7002 51.3037 18.5725C51.1475 18.4448 50.9518 18.375 50.75 18.375C50.5482 18.375 50.3525 18.4448 50.1963 18.5725C50.04 18.7002 49.9327 18.8781 49.8925 19.0759L49.5311 20.8766C49.4255 21.4043 49.1407 21.8791 48.7249 22.2207C48.3092 22.5623 47.7881 22.7496 47.25 22.7509C47.0179 22.7509 46.7954 22.8431 46.6313 23.0072C46.4672 23.1713 46.375 23.3938 46.375 23.6259C46.375 23.8579 46.4672 24.0805 46.6313 24.2446C46.7954 24.4087 47.0179 24.5009 47.25 24.5009C47.7876 24.502 48.3083 24.6888 48.724 25.0297C49.1397 25.3706 49.4248 25.8446 49.5311 26.3716L49.8925 28.1759C49.9327 28.3737 50.04 28.5515 50.1963 28.6792C50.3525 28.807 50.5482 28.8768 50.75 28.8768C50.9518 28.8768 51.1475 28.807 51.3037 28.6792C51.46 28.5515 51.5673 28.3737 51.6075 28.1759L51.9689 26.3751C52.0745 25.8475 52.3593 25.3726 52.7751 25.031C53.1908 24.6894 53.7119 24.5021 54.25 24.5009C54.4821 24.5009 54.7046 24.4087 54.8687 24.2446C55.0328 24.0805 55.125 23.8579 55.125 23.6259C55.125 23.3938 55.0328 23.1713 54.8687 23.0072C54.7046 22.8431 54.4821 22.7509 54.25 22.7509ZM50.75 24.7398C50.493 24.312 50.1604 23.9345 49.7682 23.6259C50.1604 23.3172 50.493 22.9398 50.75 22.512C51.007 22.9398 51.3396 23.3172 51.7318 23.6259C51.3396 23.9345 51.007 24.312 50.75 24.7398Z" fill="#8F2AED"/><path d="M41.125 7.00088C41.6626 7.00196 42.1833 7.18877 42.599 7.52967C43.0147 7.87058 43.2998 8.34464 43.4061 8.87163L43.7675 10.6759C43.8077 10.8737 43.915 11.0515 44.0713 11.1792C44.2275 11.307 44.4232 11.3768 44.625 11.3768C44.8268 11.3768 45.0225 11.307 45.1787 11.1792C45.335 11.0515 45.4423 10.8737 45.4825 10.6759L45.8439 8.87513C45.9495 8.3475 46.2343 7.87263 46.6501 7.53103C47.0658 7.18943 47.5869 7.00212 48.125 7.00088C48.3571 7.00088 48.5796 6.90869 48.7437 6.7446C48.9078 6.5805 49 6.35794 49 6.12588C49 5.89381 48.9078 5.67125 48.7437 5.50716C48.5796 5.34306 48.3571 5.25088 48.125 5.25088C47.5874 5.24979 47.0667 5.06299 46.651 4.72208C46.2353 4.38118 45.9502 3.90711 45.8439 3.38013L45.4825 1.57588C45.4423 1.37808 45.335 1.20024 45.1787 1.07251C45.0225 0.944778 44.8268 0.875 44.625 0.875C44.4232 0.875 44.2275 0.944778 44.0713 1.07251C43.915 1.20024 43.8077 1.37808 43.7675 1.57588L43.4061 3.37663C43.3005 3.90426 43.0157 4.37913 42.5999 4.72073C42.1842 5.06233 41.6631 5.24963 41.125 5.25088C40.8929 5.25088 40.6704 5.34306 40.5063 5.50716C40.3422 5.67125 40.25 5.89381 40.25 6.12588C40.25 6.35794 40.3422 6.5805 40.5063 6.7446C40.6704 6.90869 40.8929 7.00088 41.125 7.00088ZM44.625 5.012C44.882 5.43978 45.2146 5.81722 45.6068 6.12588C45.2146 6.43453 44.882 6.81197 44.625 7.23975C44.368 6.81197 44.0354 6.43453 43.6432 6.12588C44.0354 5.81722 44.368 5.43978 44.625 5.012Z" fill="#8F2AED"/></symbol>
	<symbol id="categoryMakeup" width="57" height="51" viewBox="0 0 57 51" fill="none" xmlns="http://www.w3.org/2000/svg"><path d="M34.354 39.2656C43.5813 39.2656 51.0884 31.7586 51.0884 22.5312C51.0884 13.3039 43.5813 5.79688 34.354 5.79688C25.1267 5.79688 17.6196 13.3039 17.6196 22.5312C17.6196 31.7586 25.1267 39.2656 34.354 39.2656ZM34.354 7.98438C42.3751 7.98438 48.9009 14.5101 48.9009 22.5312C48.9009 30.5524 42.3751 37.0781 34.354 37.0781C26.3329 37.0781 19.8071 30.5524 19.8071 22.5312C19.8071 14.5101 26.3329 7.98438 34.354 7.98438Z" fill="#8F2AED"/><path d="M10.1251 12.0234L10.1251 12.0234C10.5593 12.2679 10.829 12.729 10.829 13.2273V22.75V22.85H10.729H4.1665H4.0665V22.75V10.9762C4.0665 10.2604 4.54718 9.90266 4.7506 9.78369C4.7506 9.78369 4.75061 9.78368 4.75061 9.78368L4.8011 9.87L10.1251 12.0234ZM10.1251 12.0234L6.12548 9.77237L10.1251 12.0234ZM46.1378 41.3683L45.8423 41.5531H46.1908H55.5728C56.1216 41.5531 56.5665 41.998 56.5665 42.5469C56.5665 46.7736 53.1276 50.2125 48.9009 50.2125H19.8071C17.547 50.2125 15.5128 49.2288 14.1083 47.6672L13.9936 47.5397L13.9392 47.7023C13.4512 49.1594 12.0742 50.2125 10.4556 50.2125H4.43994C2.41453 50.2125 0.766504 48.5645 0.766504 46.5391V23.9531C0.766504 23.4043 1.2114 22.9594 1.76025 22.9594H1.979H2.079V22.8594V10.9762C2.079 9.76553 2.7024 8.67894 3.74753 8.06797L3.74754 8.06797C4.79257 7.45689 6.04531 7.44659 7.10033 8.04046L7.10033 8.04046L11.1 10.2914C12.1587 10.8873 12.8165 12.0124 12.8165 13.2273V16.339L13.0126 16.3668C15.6912 7.10803 24.2445 0.31875 34.354 0.31875C46.6019 0.31875 56.5665 10.2833 56.5665 22.5312C56.5665 27.1675 55.1525 31.6094 52.4773 35.377C50.7583 37.7979 48.6081 39.8232 46.1378 41.3683ZM41.3362 41.5186L41.3362 41.5185C49.2574 38.6046 54.579 30.9745 54.579 22.5312C54.579 11.3791 45.5062 2.30625 34.354 2.30625C23.2018 2.30625 14.129 11.3791 14.129 22.5312C14.129 30.9745 19.4506 38.6046 27.3717 41.5185L27.3717 41.5186C27.3806 41.5218 27.3891 41.5253 27.3981 41.5292C27.4084 41.5337 27.4194 41.5387 27.4323 41.5445L27.4517 41.5531H27.473H41.2349H41.2559L41.2752 41.5446C41.3005 41.5335 41.3171 41.5255 41.3362 41.5186ZM2.854 24.9469H2.754V25.0469V46.5391C2.754 47.4687 3.51026 48.225 4.43994 48.225H10.4556C11.3852 48.225 12.1415 47.4687 12.1415 46.5391V25.0469V24.9469H12.0415H2.854ZM14.129 41.4531V41.5531H14.229H22.5172H22.8657L22.5703 41.3683C20.0999 39.8232 17.9497 37.7979 16.2307 35.377C15.4975 34.3443 14.8597 33.2608 14.3191 32.1367L14.129 32.1801V41.4531ZM14.3366 43.5406H14.2147L14.2386 43.6602C14.7574 46.26 17.0568 48.225 19.8071 48.225H48.9009C51.6512 48.225 53.9506 46.26 54.4694 43.6602L54.4933 43.5406H54.3714H39.5767H39.4767V43.6406V43.9004C39.4767 44.8494 38.7074 45.6188 37.7583 45.6188H30.9497C30.0007 45.6188 29.2313 44.8494 29.2313 43.9004V43.6406V43.5406H29.1313H14.3366Z" fill="#8F2AED" stroke="#F5F5F5" stroke-width="0.2"/><path d="M28.2755 23.4919L28.2755 23.4919C28.0815 23.686 27.8273 23.783 27.5728 23.783C27.3184 23.783 27.0641 23.686 26.87 23.4919C26.482 23.1037 26.482 22.4745 26.87 22.0864L33.9092 15.0473C33.9092 15.0473 33.9092 15.0473 33.9092 15.0473C34.2974 14.6592 34.9266 14.6592 35.3147 15.0473C35.7027 15.4355 35.7027 16.0647 35.3147 16.4528L28.2755 23.4919Z" fill="#8F2AED" stroke="#F5F5F5" stroke-width="0.2"/><path d="M29.975 30.5847C29.7206 30.5847 29.4664 30.4877 29.2723 30.2937C28.8844 29.9056 28.8843 29.2764 29.2723 28.8882L40.7108 17.4496C41.099 17.0616 41.7283 17.0616 42.1163 17.4495C42.5044 17.8377 42.5044 18.467 42.1163 18.855L30.6777 30.2937C30.4837 30.4877 30.2294 30.5847 29.975 30.5847Z" fill="#8F2AED" stroke="#F5F5F5" stroke-width="0.2"/><path d="M9.53525 36.5879C9.53525 37.7408 8.60065 38.6754 7.44775 38.6754C6.29486 38.6754 5.36025 37.7408 5.36025 36.5879C5.36025 35.435 6.29486 34.5004 7.44775 34.5004C8.60065 34.5004 9.53525 35.435 9.53525 36.5879Z" fill="#8F2AED" stroke="#F5F5F5" stroke-width="0.2"/></symbol>
	<symbol id="categoryBodyAndBath" width="55" height="54" viewBox="0 0 65 64" fill="none" xmlns="http://www.w3.org/2000/svg"><g clip-path="url(#clip0_4591_9033)"><path d="M63.2668 28.8003H62.2002V23.467C62.2002 22.8779 61.7226 22.4003 61.1335 22.4003H59.9601C59.5856 19.8394 57.3179 17.9884 54.7335 18.1337C51.2741 18.1337 50.6522 17.2805 50.545 17.0191C50.2002 16.1852 51.3788 14.4592 52.2856 13.5566C52.5918 13.2524 52.684 12.793 52.5194 12.3936C52.3549 11.9946 51.9653 11.7342 51.5335 11.7337C48.1304 11.7644 44.7856 12.6233 41.7882 14.2363C37.2408 9.86857 31.172 7.44096 24.8668 7.467C11.3174 7.467 0.333496 18.4514 0.333496 32.0003C0.333496 45.5498 11.3174 56.5337 24.8668 56.5337H59.0002C61.9444 56.5305 64.3299 54.1446 64.3335 51.2003V29.867C64.3335 29.2779 63.8559 28.8003 63.2668 28.8003ZM24.8668 24.5337H60.0668V28.8003H23.8002V24.5337H24.8668ZM48.5715 17.83C49.2465 19.4707 51.2627 20.267 54.7335 20.267C56.1314 20.1389 57.4168 21.042 57.7705 22.4003H32.6106C34.2309 21.5368 35.795 20.4899 37.3939 19.4212C40.92 17.0628 44.5502 14.6342 49.234 14.0165C48.4283 15.1139 48.1835 16.5253 48.5715 17.83ZM2.46683 32.0003C2.48037 19.6347 12.5012 9.61388 24.8668 9.60034C30.3882 9.58315 35.7174 11.6274 39.8095 15.3337C38.5502 16.0805 37.3564 16.8795 36.2075 17.6477C32.5543 20.0925 29.1028 22.4003 24.8668 22.4003H22.7335C22.1444 22.4003 21.6668 22.8779 21.6668 23.467V28.8003H20.6002C20.0111 28.8003 19.5335 29.2779 19.5335 29.867V51.2003C19.5377 52.1649 19.8069 53.1102 20.3111 53.9321C9.92568 51.7602 2.48141 42.6108 2.46683 32.0003ZM62.2002 51.2003C62.2002 52.968 60.7674 54.4003 59.0002 54.4003H24.8668C23.0996 54.4003 21.6668 52.968 21.6668 51.2003V30.9337H62.2002V51.2003Z" fill="#8F2AED"/><path d="M41.9321 35.2012C35.3529 35.2012 30.1987 38.4814 30.1987 42.6678C30.1987 46.8548 35.3529 50.1345 41.9321 50.1345C48.5112 50.1345 53.6654 46.8548 53.6654 42.6678C53.6654 38.4814 48.5112 35.2012 41.9321 35.2012ZM41.9321 48.0012C36.7289 48.0012 32.3321 45.5585 32.3321 42.6678C32.3321 39.7772 36.7289 37.3345 41.9321 37.3345C47.1352 37.3345 51.5321 39.7772 51.5321 42.6678C51.5321 45.5585 47.1352 48.0012 41.9321 48.0012Z" fill="#8F2AED"/></g><defs><clipPath id="clip0_4591_9033"><rect width="64" height="64" fill="white" transform="translate(0.333496)"/></clipPath></defs></symbol>
	<symbol id="categoryEquipment" width="54" height="52" viewBox="0 0 64 62" fill="none" xmlns="http://www.w3.org/2000/svg"><path d="M38.144 23.0198L38.0843 23.1591H38.0911C37.243 25.2242 37.2312 27.5407 38.0621 29.617C38.9115 31.7444 40.572 33.4467 42.6778 34.3488C47.0582 36.2252 52.1303 34.1954 54.0068 29.815C55.8832 25.4346 53.8533 20.3624 49.473 18.486C45.0926 16.6096 40.0205 18.6394 38.144 23.0198ZM43.5903 20.2243L43.5904 20.2242C45.2408 19.5601 47.0885 19.5848 48.7207 20.2926L48.7208 20.2927C50.3416 20.9923 51.6197 22.3049 52.2759 23.9438C53.6473 27.3694 51.982 31.2581 48.5564 32.6294C45.1307 34.0007 41.242 32.3354 39.8707 28.9099C38.4994 25.4842 40.1647 21.5956 43.5903 20.2243Z" fill="#8F2AED" stroke="#8F2AED" stroke-width="0.2"/><path d="M5.71379 13.4184L5.7138 13.4184C6.24801 13.356 6.73163 13.7385 6.79387 14.2727C6.79387 14.2727 6.79387 14.2728 6.79387 14.2728L6.69454 14.2843C6.75052 14.7637 6.40727 15.1975 5.9279 15.2535L5.71379 13.4184ZM5.71379 13.4184L0.761021 13.997C0.761019 13.997 0.761018 13.997 0.761016 13.997C0.226825 14.0594 -0.155732 14.5428 -0.0933442 15.077C-0.0309625 15.6112 0.452477 15.9938 0.986727 15.9314L0.986731 15.9314L5.9395 15.3528M5.71379 13.4184L5.9395 15.3528M5.9395 15.3528C5.9395 15.3528 5.9395 15.3528 5.93951 15.3528L5.9395 15.3528Z" fill="#8F2AED" stroke="#8F2AED" stroke-width="0.2"/><path d="M2.33883 6.5746L2.33872 6.57455C1.84376 6.36278 1.27074 6.59211 1.05893 7.08714C0.847162 7.58207 1.07646 8.15505 1.57144 8.36689C1.57146 8.3669 1.57149 8.36691 1.57151 8.36692L6.15388 10.3341L6.15399 10.3341C6.64893 10.5459 7.22194 10.3166 7.43376 9.82159C7.64571 9.32661 7.41621 8.75362 6.92125 8.5418C6.92123 8.54179 6.92121 8.54179 6.92119 8.54178L2.33883 6.5746Z" fill="#8F2AED" stroke="#8F2AED" stroke-width="0.2"/><path d="M10.4346 4.92368L10.4344 4.92341L7.42596 0.931398C7.42592 0.931348 7.42588 0.931298 7.42585 0.931247C7.10358 0.500491 6.49307 0.41255 6.06226 0.734733C5.63137 1.05697 5.54337 1.66757 5.86559 2.09843L5.86581 2.09873L8.87429 6.09074C8.87432 6.09078 8.87435 6.09083 8.87438 6.09087C9.19664 6.52164 9.80717 6.60959 10.238 6.28741C10.6689 5.96519 10.757 5.35458 10.4346 4.92368Z" fill="#8F2AED" stroke="#8F2AED" stroke-width="0.2"/><path d="M51.5259 13.8953L51.5264 13.8955C58.0843 16.7425 61.3321 24.1618 58.988 30.9051C61.699 32.1775 63.1713 33.6351 63.7726 35.2393C64.3799 36.8596 64.0897 38.6052 63.3359 40.4154L63.3343 40.4193L63.3342 40.4193C62.4207 42.372 61.3233 44.233 60.0564 45.9773C58.4302 48.3862 56.7823 50.8274 56.2782 53.1683C56.0269 54.335 56.0612 55.4718 56.5224 56.565C56.9839 57.6588 57.8768 58.7186 59.3595 59.7234L59.3665 59.7281L59.3663 59.7284C59.7843 60.0668 59.8489 60.6798 59.5107 61.0979C59.212 61.467 58.6905 61.5668 58.2765 61.334L58.2692 61.3299L58.2694 61.3296C56.4046 60.0641 55.243 58.7462 54.6139 57.3895C53.9843 56.0316 53.8919 54.6433 54.151 53.2448C54.6663 50.4638 56.5758 47.6292 58.4249 44.8845L58.4393 44.863L58.4415 44.8599L58.4415 44.8599C59.632 43.2298 60.6686 41.4926 61.538 39.6708C62.0878 38.3468 62.2747 37.0938 61.8141 35.9289C61.3592 34.7785 60.2637 33.6911 58.2023 32.7036C56.1496 36.6543 52.3017 39.3599 47.8877 39.9537L42.6334 52.185L42.5415 52.1456L42.6333 52.1851C41.1081 55.7333 36.9952 57.3732 33.447 55.8479C29.8988 54.3226 28.2589 50.2097 29.7841 46.6615C29.7841 46.6615 29.7842 46.6615 29.7842 46.6615L34.4528 35.791C29.6117 33.0447 24.5232 29.5724 19.7637 26.3248L19.7464 26.3129L51.5259 13.8953ZM51.5259 13.8953L51.4449 13.8606L51.414 13.8473M51.5259 13.8953L51.414 13.8473M51.414 13.8473L51.3908 13.8531M51.414 13.8473L51.3908 13.8531M51.3908 13.8531C45.0671 11.1553 36.4062 9.25061 28.4279 7.49603C28.2346 7.45353 28.0417 7.41111 27.8493 7.36878L27.849 7.36871C27.7007 7.33662 27.5528 7.30459 27.4051 7.27263C24.4107 6.62446 21.5359 6.0022 19.0396 5.39052L19.0279 5.38765H19.0158H18.994C18.0122 5.13199 16.9753 5.18458 16.0243 5.53858L16.0243 5.53857L16.0233 5.53894C15.1081 5.89047 14.3755 6.59943 13.9941 7.50253C13.9941 7.50261 13.9941 7.50269 13.994 7.50277L10.2797 16.1812L10.2796 16.1814C9.89587 17.0826 9.89587 18.1011 10.2796 19.0023L10.2796 19.0023C10.6797 19.9408 11.3599 20.7326 12.2274 21.2694C14.5405 22.7729 17.0967 24.5079 19.7463 26.3129L51.3908 13.8531ZM13.2599 19.6595L13.2599 19.6595L13.2582 19.6585C12.7319 19.3419 12.3158 18.8711 12.066 18.31C11.8863 17.8859 11.8864 17.4071 12.0663 16.983C12.0663 16.983 12.0663 16.9829 12.0663 16.9829L15.7808 8.30425L15.7811 8.30367C15.9593 7.87995 16.3019 7.54678 16.7305 7.38082C17.3099 7.17448 17.939 7.15111 18.5322 7.31407L18.5452 7.31765H18.5587H18.5815L19.4152 7.51853L13.9999 20.124L13.2599 19.6595ZM31.6293 47.4964L36.2139 36.8085C37.5597 37.5411 38.8892 38.2124 40.1752 38.7789L40.1945 38.7874H40.2155H40.2355L40.2976 38.8141L40.3165 38.8221H40.337H40.3775H40.3971L40.6539 38.9345L40.6557 38.9353L40.7291 38.9692L40.729 38.9693L40.733 38.9709C40.9466 39.0586 41.1603 39.1426 41.3739 39.2228L41.5269 39.3212L41.5516 39.3371H41.581H41.6389H41.6742C42.9777 39.7852 44.3415 40.0319 45.7189 40.0687L40.8997 51.4678C40.8996 51.4682 40.8994 51.4686 40.8992 51.469C39.7829 53.9323 36.9221 55.0769 34.4145 54.063C31.8324 53.019 30.5854 50.0795 31.6289 47.4973C31.6291 47.497 31.6292 47.4967 31.6293 47.4964ZM56.7758 31.0795L56.7756 31.0799C55.087 35.0096 51.3885 37.7041 47.1308 38.1072H47.0699L47.0635 38.0844C45.1396 38.2455 43.2059 37.9261 41.4358 37.1551L41.4167 37.1467H41.3959H41.376C35.1687 34.4632 27.8338 29.4731 21.1128 24.9007C21.015 24.8342 20.9173 24.7677 20.8197 24.7013C19.068 23.4974 17.3327 22.31 15.6806 21.2115L21.3717 7.97605C23.3097 8.4216 25.3241 8.85642 27.3876 9.30181L27.4595 9.31733L27.4596 9.31735C35.5342 11.0538 44.3875 12.9671 50.6949 15.676L50.7118 15.6833L50.7283 15.6904C56.6477 18.27 59.3554 25.1599 56.7758 31.0795Z" fill="#8F2AED" stroke="#8F2AED" stroke-width="0.2"/></symbol>
	<symbol id="categoryPayToWinMobile" width="42" height="42" viewBox="0 0 56 56" fill="none" xmlns="http://www.w3.org/2000/svg"><path d="M54.9545 41.3607L53.1244 40.3244C50.5214 38.579 47.4758 38.4787 43.7904 40.0232L34.0021 44.4376C33.201 44.7971 32.2854 44.7293 31.5481 44.2559L24.5166 39.7412C27.8411 38.0744 31.1661 36.4023 34.4728 34.7323C35.1094 34.4197 35.5383 33.8167 35.6189 33.119C35.699 32.4291 35.4243 31.7523 34.8783 31.3048C31.3879 28.4857 27.7273 28.1918 23.3573 30.3837C18.7327 32.7048 14.9325 34.024 11.1998 34.6098V33.5965C11.1998 32.567 10.3627 31.7299 9.3332 31.7299H1.86664C0.837128 31.73 0 32.5671 0 33.5965V53.1974C0 54.2269 0.837128 55.064 1.86664 55.064H9.33353C10.363 55.064 11.2002 54.2269 11.2002 53.1974V52.4287L33.2408 54.1029C33.4732 54.1211 33.7061 54.1298 33.9389 54.1298C35.3115 54.1298 36.6768 53.8162 37.9251 53.2102L54.8407 44.9959C55.5329 44.6518 55.9758 43.9632 55.9973 43.199C56.0181 42.443 55.619 41.7384 54.9545 41.3607ZM1.86664 53.1975V33.5965H9.33353L9.33484 53.1974H1.86664V53.1975ZM54.0172 43.3207L37.1093 51.5314C35.9476 52.0956 34.6644 52.3408 33.3837 52.2419L11.2001 50.557V36.496C15.2235 35.9036 19.2723 34.5226 24.1948 32.0522C27.9307 30.1792 30.7758 30.3898 33.7 32.7526C33.7188 32.7676 33.7753 32.8142 33.7648 32.9039C33.7598 32.9504 33.7356 33.0146 33.6413 33.0612C29.8411 34.9807 26.0299 36.9001 22.2143 38.8101C20.9278 39.4622 19.6318 40.1135 18.3348 40.7656L18.0477 40.9096C17.5875 41.1412 17.4015 41.7021 17.633 42.1628C17.797 42.4886 18.126 42.6769 18.4678 42.6769C18.6086 42.6769 18.7517 42.6449 18.8861 42.5775L19.1732 42.4331C20.3135 41.8601 21.4503 41.2876 22.5806 40.7158L30.5397 45.8262C31.8084 46.6415 33.3892 46.7586 34.7677 46.1402L44.535 41.7348C47.6151 40.4428 50.0145 40.4876 52.1441 41.9111L54.0322 42.9834C54.0577 42.998 54.1342 43.0413 54.1315 43.1471C54.1297 43.2013 54.1074 43.2756 54.0172 43.3207Z" fill="#8F2AED"/><path d="M41.0676 30.7975C49.3014 30.7975 56.0004 24.0985 56.0004 15.8646C56.0004 7.6307 49.3014 0.931641 41.0676 0.931641C32.8338 0.931641 26.1348 7.6307 26.1348 15.8646C26.1348 24.0985 32.8337 30.7975 41.0676 30.7975ZM41.0676 2.79819C48.2724 2.79819 54.1338 8.65967 54.1338 15.8646C54.1338 23.0695 48.2724 28.931 41.0676 28.931C33.8627 28.931 28.0013 23.0695 28.0013 15.8646C28.0013 8.65967 33.8627 2.79819 41.0676 2.79819Z" fill="#8F2AED"/><path d="M38.3439 21.514C37.6885 20.9895 37.3276 20.3109 37.3276 19.6032C37.3276 19.0877 36.9097 18.6699 36.3943 18.6699C35.879 18.6699 35.461 19.0878 35.461 19.6032C35.461 20.8897 36.0708 22.0859 37.1777 22.9714C37.9962 23.6262 39.0208 24.0416 40.1249 24.1956V25.203C40.1249 25.7185 40.5428 26.1363 41.0581 26.1363C41.5736 26.1363 41.9914 25.7184 41.9914 25.203V24.1959C43.0972 24.0426 44.1238 23.6273 44.944 22.9714C46.0509 22.0855 46.6607 20.8892 46.6607 19.6032C46.6607 18.3176 46.0509 17.1213 44.9435 16.2341C43.9972 15.4778 42.9112 15.1703 41.9914 15.0344V9.4613C42.6579 9.58467 43.2861 9.83251 43.7773 10.2254C44.4331 10.7504 44.794 11.4289 44.794 12.1367C44.794 12.6521 45.2119 13.0699 45.7273 13.0699C46.2427 13.0699 46.6606 12.652 46.6606 12.1367C46.6606 10.8511 46.0508 9.65478 44.9434 8.76755C44.1234 8.11208 43.0969 7.69701 41.9913 7.54378V6.53679C41.9913 6.02132 41.5734 5.60352 41.058 5.60352C40.5425 5.60352 40.1248 6.02143 40.1248 6.53679V7.54422C39.021 7.69811 37.9964 8.11317 37.1776 8.76799C36.0707 9.6539 35.4609 10.8507 35.4609 12.1367C35.4609 13.4232 36.0707 14.6194 37.1776 15.5049C38.133 16.2696 39.1868 16.5791 40.1248 16.7168V22.2774C39.4602 22.1535 38.834 21.906 38.3439 21.514ZM41.9914 16.9363C42.7301 17.0793 43.3158 17.3224 43.7773 17.6918C44.4331 18.2168 44.794 18.8953 44.794 19.6031C44.794 20.3108 44.4331 20.9894 43.7778 21.5139C43.2862 21.907 42.6579 22.155 41.9914 22.2786V16.9363ZM40.1248 14.8155C39.3916 14.6745 38.8259 14.4331 38.3439 14.0475C37.6885 13.5229 37.3276 12.8444 37.3276 12.1367C37.3276 11.4289 37.6885 10.7499 38.3439 10.2254C38.834 9.8336 39.4602 9.58631 40.1248 9.4625V14.8155Z" fill="#8F2AED"/></symbol>
	<symbol id="categoryBrandForStoreMobile" width="43" height="42" viewBox="0 0 57 56" fill="none" xmlns="http://www.w3.org/2000/svg"><path d="M14.7213 39.3299C14.991 39.3299 15.2555 39.2204 15.4462 39.0297C15.6369 38.839 15.7467 38.5748 15.7467 38.3048C15.7467 38.0351 15.6369 37.7708 15.4462 37.5798C15.2555 37.3881 14.991 37.2793 14.7213 37.2793C14.4516 37.2793 14.187 37.3881 13.9963 37.5798C13.8056 37.7708 13.6958 38.0344 13.6958 38.3048C13.6958 38.5748 13.8056 38.839 13.9963 39.0297C14.187 39.2204 14.4516 39.3299 14.7213 39.3299Z" fill="#8F2AED"/><path d="M32.7272 26.3236C32.6068 25.9525 32.2857 25.6821 31.8998 25.6259L28.3167 25.1052L26.7146 21.8589C26.5419 21.5086 26.1855 21.2871 25.7954 21.2871C25.4047 21.2871 25.0483 21.5086 24.8756 21.8589L23.2735 25.1052L19.6911 25.6259C19.3045 25.6821 18.9838 25.9525 18.8631 26.3236C18.7427 26.6951 18.8432 27.1022 19.1228 27.3748L21.7151 29.9018L21.1031 33.4701C21.037 33.8547 21.1953 34.2435 21.5109 34.4728C21.8268 34.7027 22.2455 34.7322 22.5906 34.5508L25.7954 32.8665L28.9996 34.5508C29.1496 34.6298 29.3133 34.6686 29.4767 34.6686C29.689 34.6686 29.9009 34.6025 30.0797 34.4728C30.3953 34.2435 30.5536 33.8547 30.4874 33.4701L29.8752 29.9018L32.4681 27.3748C32.7474 27.1022 32.8479 26.6951 32.7272 26.3236ZM28.0576 28.8096C27.8162 29.0452 27.7061 29.3846 27.7629 29.7172L28.1148 31.7691L26.2725 30.8002C26.1229 30.7215 25.9592 30.6823 25.7954 30.6823C25.6311 30.6823 25.4673 30.7215 25.318 30.8002L23.4755 31.7691L23.8277 29.7172C23.8845 29.3846 23.7744 29.0452 23.5326 28.8096L22.0419 27.3568L24.1018 27.0575C24.4361 27.0087 24.7247 26.7988 24.874 26.4963L25.7954 24.6297L26.7162 26.4963C26.8655 26.7988 27.1545 27.0087 27.4884 27.0575L29.5483 27.3568L28.0576 28.8096Z" fill="#8F2AED"/><path d="M33.7682 1.73242H32.9993C29.71 1.73242 26.8667 3.67324 25.5504 6.46904H15.7467C14.616 6.46904 13.6958 7.38888 13.6958 8.51966V33.9307C13.6958 34.4964 14.1549 34.9558 14.7213 34.9558C15.2876 34.9558 15.7467 34.4964 15.7467 33.9307V8.51966H24.8996C24.8161 8.98841 24.7702 9.46936 24.7702 9.96122V10.22C23.3466 10.6589 22.3092 11.9868 22.3092 13.5526C22.3092 15.4748 23.8734 17.039 25.796 17.039C27.7182 17.039 29.2824 15.4748 29.2824 13.5526C29.2824 11.9868 28.2447 10.6589 26.8214 10.22V9.96122C26.8214 9.46486 26.8818 8.98263 26.9929 8.51966H35.8449L35.8439 52.1801L27.2459 43.5818C26.4461 42.782 25.1452 42.782 24.3454 43.5818L15.7467 52.1798V42.2876C15.7467 41.7213 15.2876 41.2621 14.7213 41.2621C14.1549 41.2621 13.6958 41.7213 13.6958 42.2876V52.1805C13.6958 53.013 14.1931 53.7566 14.9621 54.0754C15.731 54.3939 16.6081 54.2192 17.197 53.631L25.796 45.032L34.3943 53.631C34.7876 54.0243 35.31 54.2324 35.8426 54.2324C36.1072 54.2324 36.3743 54.1807 36.6295 54.0754C37.3985 53.7566 37.8955 53.0133 37.8955 52.1805V8.51966C37.8955 7.38888 36.9753 6.46904 35.8449 6.46904H27.9063C29.0213 4.84832 30.888 3.78336 32.9993 3.78336H33.7682C37.175 3.78336 39.9464 6.55476 39.9464 9.96122V20.0397C39.9464 20.606 40.4059 21.0651 40.9716 21.0651C41.5379 21.0651 41.997 20.606 41.997 20.0397V9.96122C41.997 5.42399 38.3058 1.73242 33.7682 1.73242ZM27.2314 13.5526C27.2314 14.344 26.5874 14.9881 25.796 14.9881C25.0039 14.9881 24.3599 14.344 24.3599 13.5526C24.3599 13.1625 24.5169 12.8087 24.7702 12.5496V12.8755C24.7702 13.4415 25.2296 13.901 25.796 13.901C26.362 13.901 26.8214 13.4415 26.8214 12.8755V12.5496C27.0744 12.8087 27.2314 13.1625 27.2314 13.5526Z" fill="#8F2AED"/><path d="M40.9729 23.5039C40.7035 23.5039 40.4387 23.6134 40.2479 23.8044C40.0572 23.9951 39.9478 24.2594 39.9478 24.5294C39.9478 24.7997 40.0572 25.0633 40.2479 25.254C40.4387 25.4457 40.7035 25.5548 40.9729 25.5548C41.2429 25.5548 41.5075 25.4457 41.6979 25.254C41.8886 25.0633 41.9984 24.7987 41.9984 24.5294C41.9984 24.2594 41.8886 23.9951 41.6979 23.8044C41.5075 23.6134 41.2429 23.5039 40.9729 23.5039Z" fill="#8F2AED"/><path d="M29.2445 37.2793H22.3404C21.7741 37.2793 21.3149 37.7387 21.3149 38.3051C21.3149 38.8711 21.7741 39.3302 22.3404 39.3302H29.2445C29.8109 39.3302 30.2703 38.8711 30.2703 38.3051C30.2703 37.7387 29.8109 37.2793 29.2445 37.2793Z" fill="#8F2AED"/></symbol>
	<symbol id="categorySalonBrandsMobile" width="43" height="40" viewBox="0 0 57 54" fill="none" xmlns="http://www.w3.org/2000/svg"><path d="M49.733 19.572L49.7207 19.6883L49.799 19.7752L55.9802 26.638L49.7989 33.5008L49.7206 33.5876L49.7329 33.7039L50.7007 42.8913L41.6622 44.8048L41.5476 44.8291L41.4891 44.9307L36.8788 52.9396L28.4405 49.1684L28.3334 49.1205L28.2263 49.1684L19.7881 52.9396L15.1778 44.9307L15.1193 44.8291L15.0046 44.8048L5.96621 42.8913L6.9339 33.7039L6.94615 33.5876L6.86789 33.5008L0.686774 26.638L6.868 19.7752L6.94626 19.6883L6.93401 19.572L5.96632 10.3847L15.0048 8.47116L15.1194 8.44689L15.1779 8.34532L19.7882 0.336354L28.2264 4.1075L28.3336 4.15537L28.4407 4.1075L36.8789 0.336354L41.4892 8.34532L41.5477 8.44689L41.6623 8.47116L50.7008 10.3847L49.733 19.572ZM20.8189 49.1975L20.9371 49.4029L21.1535 49.3062L28.3336 46.0973L35.5134 49.306L35.7297 49.4027L35.848 49.1973L39.7701 42.3839L47.4636 40.7551L47.695 40.7061L47.6703 40.4708L46.847 32.6539L52.1071 26.8137L52.2654 26.638L52.1071 26.4623L46.8471 20.6221L47.6704 12.8052L47.6951 12.5699L47.4637 12.5209L39.7703 10.8921L35.8481 4.07866L35.7299 3.87327L35.5135 3.96997L28.3335 7.17878L21.1535 3.96997L20.9371 3.87327L20.8189 4.07866L16.8967 10.8921L9.20343 12.5209L8.97196 12.5699L8.99674 12.8052L9.82004 20.6221L4.55986 26.4624L4.40163 26.6381L4.55986 26.8138L9.82004 32.654L8.99674 40.471L8.97196 40.7063L9.20343 40.7553L16.8967 42.3841L20.8189 49.1975Z" fill="#8F2AED" stroke="#F5F5F5" stroke-width="0.525"/><path d="M26.0802 31.6436L37.6451 18.687L39.7043 20.5251L26.0092 35.8685L16.6246 26.4839L18.5764 24.5321L25.6988 31.6545L25.8952 31.8509L26.0802 31.6436Z" fill="#8F2AED" stroke="#F5F5F5" stroke-width="0.525"/></symbol>
	<symbol id="categoryHairMobile" width="42" height="42" viewBox="0 0 56 56" fill="none" xmlns="http://www.w3.org/2000/svg"><path d="M4.06876 28.408L2.11489 32.3148C1.88336 32.7778 1.75876 33.2869 1.7503 33.8045C1.74183 34.3221 1.84972 34.835 2.06598 35.3053C2.28225 35.7757 2.60138 36.1914 2.99981 36.5219C3.39825 36.8524 3.86582 37.0892 4.36801 37.2148L5.36551 37.4633L6.43739 43.36C6.63548 44.4524 7.21096 45.4405 8.06336 46.1518C8.91575 46.8632 9.99091 47.2525 11.1011 47.252C11.3251 47.2521 11.5488 47.236 11.7705 47.2038L17.0608 46.4487C17.9226 47.9133 18.3764 49.582 18.375 51.2813V55.127H20.125V51.277C20.1246 49.4805 19.6938 47.7102 18.8685 46.1145L22.05 45.4845L21.7 43.7695L17.3469 44.6392L11.5185 45.4722C10.7554 45.5738 9.98224 45.3798 9.35755 44.9298C8.73285 44.4798 8.30388 43.808 8.15851 43.052L6.98514 36.5953C6.95502 36.4299 6.87784 36.2766 6.76285 36.1538C6.64786 36.0311 6.49992 35.944 6.33676 35.9032L4.79239 35.5165C4.54451 35.4545 4.31371 35.3376 4.11704 35.1745C3.92037 35.0114 3.76284 34.8062 3.65609 34.574C3.54934 34.3419 3.49609 34.0887 3.50028 33.8332C3.50446 33.5778 3.56597 33.3265 3.68026 33.098L6.91251 26.6431C7.01582 26.4355 7.0325 26.1953 6.95889 25.9755C6.40758 24.3263 6.12601 22.599 6.12501 20.8602C6.12406 19.0231 6.74521 17.2399 7.88726 15.801L12.0986 27.7885C13.9065 32.9623 16.741 37.7175 20.4321 41.7688C24.1231 45.8201 28.5946 49.0839 33.5781 51.3645L34.1338 55.2521L35.8663 55.0036L35.462 52.1756C35.9485 52.3707 36.4324 52.5685 36.9276 52.7452C41.3414 54.3238 45.9942 55.1295 50.6818 55.127H54.25C54.4521 55.1271 54.6481 55.0573 54.8046 54.9294C54.9611 54.8014 55.0684 54.6232 55.1084 54.4251C55.1484 54.227 55.1186 54.0211 55.024 53.8425C54.9294 53.6638 54.7759 53.5235 54.5895 53.4452L46.3838 49.9898C45.0525 49.4262 43.792 48.7082 42.6283 47.8505C46.322 49.331 50.1989 50.3052 54.1538 50.7467C54.1857 50.7502 54.2179 50.7519 54.25 50.752C54.4488 50.754 54.6424 50.6882 54.7989 50.5656C54.9553 50.4429 55.0654 50.2705 55.1108 50.077C55.1562 49.8834 55.1344 49.6801 55.0489 49.5006C54.9633 49.3211 54.8192 49.1761 54.6403 49.0895C51.9475 47.7422 49.5035 45.9467 47.4128 43.78C49.4139 45.1721 51.7222 46.0593 54.1406 46.3656C54.3298 46.3892 54.5214 46.3505 54.6865 46.2552C54.8516 46.16 54.9811 46.0134 55.0553 45.8379C55.1295 45.6623 55.1443 45.4673 55.0975 45.2825C55.0507 45.0977 54.9448 44.9333 54.796 44.8142C52.0775 42.6447 50.0719 39.7099 49.0385 36.3888L48.6211 35.0553C47.1077 30.2087 45.85 25.2859 44.8534 20.3072C43.7457 14.8331 40.7814 9.90957 36.462 6.36912C32.1425 2.82867 26.7329 0.888588 21.1479 0.876953C15.7734 0.88413 10.6211 3.02232 6.82073 6.82267C3.02038 10.623 0.882187 15.7753 0.875011 21.1498C0.872994 22.5153 1.15601 23.8661 1.70596 25.1159C2.2559 26.3657 3.06066 27.487 4.06876 28.408ZM21.1479 2.62695C26.3286 2.63862 31.3464 4.43874 35.353 7.72302C39.3597 11.0073 42.1094 15.5743 43.1375 20.652C44.1462 25.6906 45.4191 30.6727 46.9508 35.5777L47.3681 36.9121C48.1652 39.4739 49.4924 41.8392 51.2636 43.8543C48.4075 42.7601 46.0111 40.7225 44.4719 38.0793L38.3819 27.5645C38.269 27.3714 38.0864 27.2289 37.8717 27.1663C37.657 27.1037 37.4265 27.1256 37.2274 27.2276C37.0284 27.3297 36.876 27.504 36.8016 27.7149C36.7271 27.9258 36.7362 28.1572 36.827 28.3616L40.6875 36.9366C42.7285 41.4627 45.9194 45.3755 49.9424 48.2853C44.8026 47.1634 39.9202 45.0834 35.5504 42.1542C32.6617 37.9458 30.5986 33.227 29.4709 28.2487L27.9834 21.6862L26.2754 22.0747L27.7629 28.6372C28.6093 32.3564 29.9575 35.9432 31.7704 39.2991C27.2786 35.4856 23.6364 30.7727 21.0788 25.4645L19.1625 21.4963L17.5875 22.2576L19.5029 26.2257C23.4213 34.3836 29.7778 41.1223 37.6933 45.5098C39.8095 48.1817 42.5648 50.2773 45.7048 51.6033L49.8986 53.3691C41.9255 53.2098 34.1913 50.6189 27.731 45.9434C21.2708 41.2678 16.3927 34.7306 13.7498 27.2066L9.25839 14.4255L11.0609 12.924L9.93914 11.58L7.94239 13.2425C6.82425 14.1718 5.92483 15.3363 5.30822 16.6531C4.69161 17.9698 4.37297 19.4063 4.37501 20.8602C4.3748 22.6641 4.64708 24.4577 5.18264 26.1802L4.88776 26.77C3.43279 25.2612 2.62139 23.2459 2.62501 21.1498C2.63057 16.239 4.58387 11.5308 8.05637 8.05832C11.5289 4.58581 16.237 2.63251 21.1479 2.62695Z" fill="#8F2AED"/><path d="M15.75 11.3759C16.2876 11.377 16.8083 11.5638 17.224 11.9047C17.6397 12.2456 17.9248 12.7196 18.0311 13.2466L18.3925 15.0509C18.4327 15.2487 18.54 15.4265 18.6963 15.5542C18.8525 15.682 19.0482 15.7518 19.25 15.7518C19.4518 15.7518 19.6475 15.682 19.8037 15.5542C19.96 15.4265 20.0673 15.2487 20.1075 15.0509L20.4689 13.2501C20.5745 12.7225 20.8593 12.2476 21.2751 11.906C21.6908 11.5644 22.2119 11.3771 22.75 11.3759C22.9821 11.3759 23.2046 11.2837 23.3687 11.1196C23.5328 10.9555 23.625 10.7329 23.625 10.5009C23.625 10.2688 23.5328 10.0463 23.3687 9.88216C23.2046 9.71806 22.9821 9.62588 22.75 9.62588C22.2124 9.62479 21.6917 9.43799 21.276 9.09708C20.8603 8.75618 20.5752 8.28211 20.4689 7.75513L20.1075 5.95088C20.0673 5.75308 19.96 5.57524 19.8037 5.44751C19.6475 5.31978 19.4518 5.25 19.25 5.25C19.0482 5.25 18.8525 5.31978 18.6963 5.44751C18.54 5.57524 18.4327 5.75308 18.3925 5.95088L18.0311 7.75163C17.9255 8.27926 17.6407 8.75413 17.2249 9.09573C16.8092 9.43733 16.2881 9.62463 15.75 9.62588C15.5179 9.62588 15.2954 9.71806 15.1313 9.88216C14.9672 10.0463 14.875 10.2688 14.875 10.5009C14.875 10.7329 14.9672 10.9555 15.1313 11.1196C15.2954 11.2837 15.5179 11.3759 15.75 11.3759ZM19.25 9.387C19.507 9.81478 19.8396 10.1922 20.2317 10.5009C19.8396 10.8095 19.507 11.187 19.25 11.6148C18.993 11.187 18.6604 10.8095 18.2683 10.5009C18.6604 10.1922 18.993 9.81478 19.25 9.387Z" fill="#8F2AED"/><path d="M54.25 22.7509C53.7124 22.7498 53.1917 22.563 52.776 22.2221C52.3603 21.8812 52.0752 21.4071 51.9689 20.8801L51.6075 19.0759C51.5673 18.8781 51.46 18.7002 51.3037 18.5725C51.1475 18.4448 50.9518 18.375 50.75 18.375C50.5482 18.375 50.3525 18.4448 50.1963 18.5725C50.04 18.7002 49.9327 18.8781 49.8925 19.0759L49.5311 20.8766C49.4255 21.4043 49.1407 21.8791 48.7249 22.2207C48.3092 22.5623 47.7881 22.7496 47.25 22.7509C47.0179 22.7509 46.7954 22.8431 46.6313 23.0072C46.4672 23.1713 46.375 23.3938 46.375 23.6259C46.375 23.8579 46.4672 24.0805 46.6313 24.2446C46.7954 24.4087 47.0179 24.5009 47.25 24.5009C47.7876 24.502 48.3083 24.6888 48.724 25.0297C49.1397 25.3706 49.4248 25.8446 49.5311 26.3716L49.8925 28.1759C49.9327 28.3737 50.04 28.5515 50.1963 28.6792C50.3525 28.807 50.5482 28.8768 50.75 28.8768C50.9518 28.8768 51.1475 28.807 51.3037 28.6792C51.46 28.5515 51.5673 28.3737 51.6075 28.1759L51.9689 26.3751C52.0745 25.8475 52.3593 25.3726 52.7751 25.031C53.1908 24.6894 53.7119 24.5021 54.25 24.5009C54.4821 24.5009 54.7046 24.4087 54.8687 24.2446C55.0328 24.0805 55.125 23.8579 55.125 23.6259C55.125 23.3938 55.0328 23.1713 54.8687 23.0072C54.7046 22.8431 54.4821 22.7509 54.25 22.7509ZM50.75 24.7398C50.493 24.312 50.1604 23.9345 49.7682 23.6259C50.1604 23.3172 50.493 22.9398 50.75 22.512C51.007 22.9398 51.3396 23.3172 51.7318 23.6259C51.3396 23.9345 51.007 24.312 50.75 24.7398Z" fill="#8F2AED"/><path d="M41.125 7.00088C41.6626 7.00196 42.1833 7.18877 42.599 7.52967C43.0147 7.87058 43.2998 8.34464 43.4061 8.87163L43.7675 10.6759C43.8077 10.8737 43.915 11.0515 44.0713 11.1792C44.2275 11.307 44.4232 11.3768 44.625 11.3768C44.8268 11.3768 45.0225 11.307 45.1787 11.1792C45.335 11.0515 45.4423 10.8737 45.4825 10.6759L45.8439 8.87513C45.9495 8.3475 46.2343 7.87263 46.6501 7.53103C47.0658 7.18943 47.5869 7.00212 48.125 7.00088C48.3571 7.00088 48.5796 6.90869 48.7437 6.7446C48.9078 6.5805 49 6.35794 49 6.12588C49 5.89381 48.9078 5.67125 48.7437 5.50716C48.5796 5.34306 48.3571 5.25088 48.125 5.25088C47.5874 5.24979 47.0667 5.06299 46.651 4.72208C46.2353 4.38118 45.9502 3.90711 45.8439 3.38013L45.4825 1.57588C45.4423 1.37808 45.335 1.20024 45.1787 1.07251C45.0225 0.944778 44.8268 0.875 44.625 0.875C44.4232 0.875 44.2275 0.944778 44.0713 1.07251C43.915 1.20024 43.8077 1.37808 43.7675 1.57588L43.4061 3.37663C43.3005 3.90426 43.0157 4.37913 42.5999 4.72073C42.1842 5.06233 41.6631 5.24963 41.125 5.25088C40.8929 5.25088 40.6704 5.34306 40.5063 5.50716C40.3422 5.67125 40.25 5.89381 40.25 6.12588C40.25 6.35794 40.3422 6.5805 40.5063 6.7446C40.6704 6.90869 40.8929 7.00088 41.125 7.00088ZM44.625 5.012C44.882 5.43978 45.2146 5.81722 45.6068 6.12588C45.2146 6.43453 44.882 6.81197 44.625 7.23975C44.368 6.81197 44.0354 6.43453 43.6432 6.12588C44.0354 5.81722 44.368 5.43978 44.625 5.012Z" fill="#8F2AED"/></symbol>
	<symbol id="categoryMakeupMobile" width="43" height="37" viewBox="0 0 57 51" fill="none" xmlns="http://www.w3.org/2000/svg"><path d="M34.354 39.2656C43.5813 39.2656 51.0884 31.7586 51.0884 22.5312C51.0884 13.3039 43.5813 5.79688 34.354 5.79688C25.1267 5.79688 17.6196 13.3039 17.6196 22.5312C17.6196 31.7586 25.1267 39.2656 34.354 39.2656ZM34.354 7.98438C42.3751 7.98438 48.9009 14.5101 48.9009 22.5312C48.9009 30.5524 42.3751 37.0781 34.354 37.0781C26.3329 37.0781 19.8071 30.5524 19.8071 22.5312C19.8071 14.5101 26.3329 7.98438 34.354 7.98438Z" fill="#8F2AED"/><path d="M10.1251 12.0234L10.1251 12.0234C10.5593 12.2679 10.829 12.729 10.829 13.2273V22.75V22.85H10.729H4.1665H4.0665V22.75V10.9762C4.0665 10.2604 4.54718 9.90266 4.7506 9.78369C4.7506 9.78369 4.75061 9.78368 4.75061 9.78368L4.8011 9.87L10.1251 12.0234ZM10.1251 12.0234L6.12548 9.77237L10.1251 12.0234ZM46.1378 41.3683L45.8423 41.5531H46.1908H55.5728C56.1216 41.5531 56.5665 41.998 56.5665 42.5469C56.5665 46.7736 53.1276 50.2125 48.9009 50.2125H19.8071C17.547 50.2125 15.5128 49.2288 14.1083 47.6672L13.9936 47.5397L13.9392 47.7023C13.4512 49.1594 12.0742 50.2125 10.4556 50.2125H4.43994C2.41453 50.2125 0.766504 48.5645 0.766504 46.5391V23.9531C0.766504 23.4043 1.2114 22.9594 1.76025 22.9594H1.979H2.079V22.8594V10.9762C2.079 9.76553 2.7024 8.67894 3.74753 8.06797L3.74754 8.06797C4.79257 7.45689 6.04531 7.44659 7.10033 8.04046L7.10033 8.04046L11.1 10.2914C12.1587 10.8873 12.8165 12.0124 12.8165 13.2273V16.339L13.0126 16.3668C15.6912 7.10803 24.2445 0.31875 34.354 0.31875C46.6019 0.31875 56.5665 10.2833 56.5665 22.5312C56.5665 27.1675 55.1525 31.6094 52.4773 35.377C50.7583 37.7979 48.6081 39.8232 46.1378 41.3683ZM41.3362 41.5186L41.3362 41.5185C49.2574 38.6046 54.579 30.9745 54.579 22.5312C54.579 11.3791 45.5062 2.30625 34.354 2.30625C23.2018 2.30625 14.129 11.3791 14.129 22.5312C14.129 30.9745 19.4506 38.6046 27.3717 41.5185L27.3717 41.5186C27.3806 41.5218 27.3891 41.5253 27.3981 41.5292C27.4084 41.5337 27.4194 41.5387 27.4323 41.5445L27.4517 41.5531H27.473H41.2349H41.2559L41.2752 41.5446C41.3005 41.5335 41.3171 41.5255 41.3362 41.5186ZM2.854 24.9469H2.754V25.0469V46.5391C2.754 47.4687 3.51026 48.225 4.43994 48.225H10.4556C11.3852 48.225 12.1415 47.4687 12.1415 46.5391V25.0469V24.9469H12.0415H2.854ZM14.129 41.4531V41.5531H14.229H22.5172H22.8657L22.5703 41.3683C20.0999 39.8232 17.9497 37.7979 16.2307 35.377C15.4975 34.3443 14.8597 33.2608 14.3191 32.1367L14.129 32.1801V41.4531ZM14.3366 43.5406H14.2147L14.2386 43.6602C14.7574 46.26 17.0568 48.225 19.8071 48.225H48.9009C51.6512 48.225 53.9506 46.26 54.4694 43.6602L54.4933 43.5406H54.3714H39.5767H39.4767V43.6406V43.9004C39.4767 44.8494 38.7074 45.6188 37.7583 45.6188H30.9497C30.0007 45.6188 29.2313 44.8494 29.2313 43.9004V43.6406V43.5406H29.1313H14.3366Z" fill="#8F2AED" stroke="#F5F5F5" stroke-width="0.2"/><path d="M28.2755 23.4919L28.2755 23.4919C28.0815 23.686 27.8273 23.783 27.5728 23.783C27.3184 23.783 27.0641 23.686 26.87 23.4919C26.482 23.1037 26.482 22.4745 26.87 22.0864L33.9092 15.0473C33.9092 15.0473 33.9092 15.0473 33.9092 15.0473C34.2974 14.6592 34.9266 14.6592 35.3147 15.0473C35.7027 15.4355 35.7027 16.0647 35.3147 16.4528L28.2755 23.4919Z" fill="#8F2AED" stroke="#F5F5F5" stroke-width="0.2"/><path d="M29.975 30.5847C29.7206 30.5847 29.4664 30.4877 29.2723 30.2937C28.8844 29.9056 28.8843 29.2764 29.2723 28.8882L40.7108 17.4496C41.099 17.0616 41.7283 17.0616 42.1163 17.4495C42.5044 17.8377 42.5044 18.467 42.1163 18.855L30.6777 30.2937C30.4837 30.4877 30.2294 30.5847 29.975 30.5847Z" fill="#8F2AED" stroke="#F5F5F5" stroke-width="0.2"/><path d="M9.53525 36.5879C9.53525 37.7408 8.60065 38.6754 7.44775 38.6754C6.29486 38.6754 5.36025 37.7408 5.36025 36.5879C5.36025 35.435 6.29486 34.5004 7.44775 34.5004C8.60065 34.5004 9.53525 35.435 9.53525 36.5879Z" fill="#8F2AED" stroke="#F5F5F5" stroke-width="0.2"/></symbol>
	<symbol id="categoryBodyAndBathMobile" width="41" height="40" viewBox="0 0 65 64" fill="none" xmlns="http://www.w3.org/2000/svg"><g clip-path="url(#clip0_4591_9033)"><path d="M63.2668 28.8003H62.2002V23.467C62.2002 22.8779 61.7226 22.4003 61.1335 22.4003H59.9601C59.5856 19.8394 57.3179 17.9884 54.7335 18.1337C51.2741 18.1337 50.6522 17.2805 50.545 17.0191C50.2002 16.1852 51.3788 14.4592 52.2856 13.5566C52.5918 13.2524 52.684 12.793 52.5194 12.3936C52.3549 11.9946 51.9653 11.7342 51.5335 11.7337C48.1304 11.7644 44.7856 12.6233 41.7882 14.2363C37.2408 9.86857 31.172 7.44096 24.8668 7.467C11.3174 7.467 0.333496 18.4514 0.333496 32.0003C0.333496 45.5498 11.3174 56.5337 24.8668 56.5337H59.0002C61.9444 56.5305 64.3299 54.1446 64.3335 51.2003V29.867C64.3335 29.2779 63.8559 28.8003 63.2668 28.8003ZM24.8668 24.5337H60.0668V28.8003H23.8002V24.5337H24.8668ZM48.5715 17.83C49.2465 19.4707 51.2627 20.267 54.7335 20.267C56.1314 20.1389 57.4168 21.042 57.7705 22.4003H32.6106C34.2309 21.5368 35.795 20.4899 37.3939 19.4212C40.92 17.0628 44.5502 14.6342 49.234 14.0165C48.4283 15.1139 48.1835 16.5253 48.5715 17.83ZM2.46683 32.0003C2.48037 19.6347 12.5012 9.61388 24.8668 9.60034C30.3882 9.58315 35.7174 11.6274 39.8095 15.3337C38.5502 16.0805 37.3564 16.8795 36.2075 17.6477C32.5543 20.0925 29.1028 22.4003 24.8668 22.4003H22.7335C22.1444 22.4003 21.6668 22.8779 21.6668 23.467V28.8003H20.6002C20.0111 28.8003 19.5335 29.2779 19.5335 29.867V51.2003C19.5377 52.1649 19.8069 53.1102 20.3111 53.9321C9.92568 51.7602 2.48141 42.6108 2.46683 32.0003ZM62.2002 51.2003C62.2002 52.968 60.7674 54.4003 59.0002 54.4003H24.8668C23.0996 54.4003 21.6668 52.968 21.6668 51.2003V30.9337H62.2002V51.2003Z" fill="#8F2AED"/><path d="M41.9321 35.2012C35.3529 35.2012 30.1987 38.4814 30.1987 42.6678C30.1987 46.8548 35.3529 50.1345 41.9321 50.1345C48.5112 50.1345 53.6654 46.8548 53.6654 42.6678C53.6654 38.4814 48.5112 35.2012 41.9321 35.2012ZM41.9321 48.0012C36.7289 48.0012 32.3321 45.5585 32.3321 42.6678C32.3321 39.7772 36.7289 37.3345 41.9321 37.3345C47.1352 37.3345 51.5321 39.7772 51.5321 42.6678C51.5321 45.5585 47.1352 48.0012 41.9321 48.0012Z" fill="#8F2AED"/></g><defs><clipPath id="clip0_4591_9033"><rect width="64" height="64" fill="white" transform="translate(0.333496)"/></clipPath></defs></symbol>
	<symbol id="categoryEquipmentMobile" width="40" height="38" viewBox="0 0 64 62" fill="none" xmlns="http://www.w3.org/2000/svg"><path d="M38.144 23.0198L38.0843 23.1591H38.0911C37.243 25.2242 37.2312 27.5407 38.0621 29.617C38.9115 31.7444 40.572 33.4467 42.6778 34.3488C47.0582 36.2252 52.1303 34.1954 54.0068 29.815C55.8832 25.4346 53.8533 20.3624 49.473 18.486C45.0926 16.6096 40.0205 18.6394 38.144 23.0198ZM43.5903 20.2243L43.5904 20.2242C45.2408 19.5601 47.0885 19.5848 48.7207 20.2926L48.7208 20.2927C50.3416 20.9923 51.6197 22.3049 52.2759 23.9438C53.6473 27.3694 51.982 31.2581 48.5564 32.6294C45.1307 34.0007 41.242 32.3354 39.8707 28.9099C38.4994 25.4842 40.1647 21.5956 43.5903 20.2243Z" fill="#8F2AED" stroke="#8F2AED" stroke-width="0.2"/><path d="M5.71379 13.4184L5.7138 13.4184C6.24801 13.356 6.73163 13.7385 6.79387 14.2727C6.79387 14.2727 6.79387 14.2728 6.79387 14.2728L6.69454 14.2843C6.75052 14.7637 6.40727 15.1975 5.9279 15.2535L5.71379 13.4184ZM5.71379 13.4184L0.761021 13.997C0.761019 13.997 0.761018 13.997 0.761016 13.997C0.226825 14.0594 -0.155732 14.5428 -0.0933442 15.077C-0.0309625 15.6112 0.452477 15.9938 0.986727 15.9314L0.986731 15.9314L5.9395 15.3528M5.71379 13.4184L5.9395 15.3528M5.9395 15.3528C5.9395 15.3528 5.9395 15.3528 5.93951 15.3528L5.9395 15.3528Z" fill="#8F2AED" stroke="#8F2AED" stroke-width="0.2"/><path d="M2.33883 6.5746L2.33872 6.57455C1.84376 6.36278 1.27074 6.59211 1.05893 7.08714C0.847162 7.58207 1.07646 8.15505 1.57144 8.36689C1.57146 8.3669 1.57149 8.36691 1.57151 8.36692L6.15388 10.3341L6.15399 10.3341C6.64893 10.5459 7.22194 10.3166 7.43376 9.82159C7.64571 9.32661 7.41621 8.75362 6.92125 8.5418C6.92123 8.54179 6.92121 8.54179 6.92119 8.54178L2.33883 6.5746Z" fill="#8F2AED" stroke="#8F2AED" stroke-width="0.2"/><path d="M10.4346 4.92368L10.4344 4.92341L7.42596 0.931398C7.42592 0.931348 7.42588 0.931298 7.42585 0.931247C7.10358 0.500491 6.49307 0.41255 6.06226 0.734733C5.63137 1.05697 5.54337 1.66757 5.86559 2.09843L5.86581 2.09873L8.87429 6.09074C8.87432 6.09078 8.87435 6.09083 8.87438 6.09087C9.19664 6.52164 9.80717 6.60959 10.238 6.28741C10.6689 5.96519 10.757 5.35458 10.4346 4.92368Z" fill="#8F2AED" stroke="#8F2AED" stroke-width="0.2"/><path d="M51.5259 13.8953L51.5264 13.8955C58.0843 16.7425 61.3321 24.1618 58.988 30.9051C61.699 32.1775 63.1713 33.6351 63.7726 35.2393C64.3799 36.8596 64.0897 38.6052 63.3359 40.4154L63.3343 40.4193L63.3342 40.4193C62.4207 42.372 61.3233 44.233 60.0564 45.9773C58.4302 48.3862 56.7823 50.8274 56.2782 53.1683C56.0269 54.335 56.0612 55.4718 56.5224 56.565C56.9839 57.6588 57.8768 58.7186 59.3595 59.7234L59.3665 59.7281L59.3663 59.7284C59.7843 60.0668 59.8489 60.6798 59.5107 61.0979C59.212 61.467 58.6905 61.5668 58.2765 61.334L58.2692 61.3299L58.2694 61.3296C56.4046 60.0641 55.243 58.7462 54.6139 57.3895C53.9843 56.0316 53.8919 54.6433 54.151 53.2448C54.6663 50.4638 56.5758 47.6292 58.4249 44.8845L58.4393 44.863L58.4415 44.8599L58.4415 44.8599C59.632 43.2298 60.6686 41.4926 61.538 39.6708C62.0878 38.3468 62.2747 37.0938 61.8141 35.9289C61.3592 34.7785 60.2637 33.6911 58.2023 32.7036C56.1496 36.6543 52.3017 39.3599 47.8877 39.9537L42.6334 52.185L42.5415 52.1456L42.6333 52.1851C41.1081 55.7333 36.9952 57.3732 33.447 55.8479C29.8988 54.3226 28.2589 50.2097 29.7841 46.6615C29.7841 46.6615 29.7842 46.6615 29.7842 46.6615L34.4528 35.791C29.6117 33.0447 24.5232 29.5724 19.7637 26.3248L19.7464 26.3129L51.5259 13.8953ZM51.5259 13.8953L51.4449 13.8606L51.414 13.8473M51.5259 13.8953L51.414 13.8473M51.414 13.8473L51.3908 13.8531M51.414 13.8473L51.3908 13.8531M51.3908 13.8531C45.0671 11.1553 36.4062 9.25061 28.4279 7.49603C28.2346 7.45353 28.0417 7.41111 27.8493 7.36878L27.849 7.36871C27.7007 7.33662 27.5528 7.30459 27.4051 7.27263C24.4107 6.62446 21.5359 6.0022 19.0396 5.39052L19.0279 5.38765H19.0158H18.994C18.0122 5.13199 16.9753 5.18458 16.0243 5.53858L16.0243 5.53857L16.0233 5.53894C15.1081 5.89047 14.3755 6.59943 13.9941 7.50253C13.9941 7.50261 13.9941 7.50269 13.994 7.50277L10.2797 16.1812L10.2796 16.1814C9.89587 17.0826 9.89587 18.1011 10.2796 19.0023L10.2796 19.0023C10.6797 19.9408 11.3599 20.7326 12.2274 21.2694C14.5405 22.7729 17.0967 24.5079 19.7463 26.3129L51.3908 13.8531ZM13.2599 19.6595L13.2599 19.6595L13.2582 19.6585C12.7319 19.3419 12.3158 18.8711 12.066 18.31C11.8863 17.8859 11.8864 17.4071 12.0663 16.983C12.0663 16.983 12.0663 16.9829 12.0663 16.9829L15.7808 8.30425L15.7811 8.30367C15.9593 7.87995 16.3019 7.54678 16.7305 7.38082C17.3099 7.17448 17.939 7.15111 18.5322 7.31407L18.5452 7.31765H18.5587H18.5815L19.4152 7.51853L13.9999 20.124L13.2599 19.6595ZM31.6293 47.4964L36.2139 36.8085C37.5597 37.5411 38.8892 38.2124 40.1752 38.7789L40.1945 38.7874H40.2155H40.2355L40.2976 38.8141L40.3165 38.8221H40.337H40.3775H40.3971L40.6539 38.9345L40.6557 38.9353L40.7291 38.9692L40.729 38.9693L40.733 38.9709C40.9466 39.0586 41.1603 39.1426 41.3739 39.2228L41.5269 39.3212L41.5516 39.3371H41.581H41.6389H41.6742C42.9777 39.7852 44.3415 40.0319 45.7189 40.0687L40.8997 51.4678C40.8996 51.4682 40.8994 51.4686 40.8992 51.469C39.7829 53.9323 36.9221 55.0769 34.4145 54.063C31.8324 53.019 30.5854 50.0795 31.6289 47.4973C31.6291 47.497 31.6292 47.4967 31.6293 47.4964ZM56.7758 31.0795L56.7756 31.0799C55.087 35.0096 51.3885 37.7041 47.1308 38.1072H47.0699L47.0635 38.0844C45.1396 38.2455 43.2059 37.9261 41.4358 37.1551L41.4167 37.1467H41.3959H41.376C35.1687 34.4632 27.8338 29.4731 21.1128 24.9007C21.015 24.8342 20.9173 24.7677 20.8197 24.7013C19.068 23.4974 17.3327 22.31 15.6806 21.2115L21.3717 7.97605C23.3097 8.4216 25.3241 8.85642 27.3876 9.30181L27.4595 9.31733L27.4596 9.31735C35.5342 11.0538 44.3875 12.9671 50.6949 15.676L50.7118 15.6833L50.7283 15.6904C56.6477 18.27 59.3554 25.1599 56.7758 31.0795Z" fill="#8F2AED" stroke="#8F2AED" stroke-width="0.2"/></symbol>
	<symbol id="filter" viewBox="0 0 18 18" fill="none" xmlns="http://www.w3.org/2000/svg"><line x1="1" y1="4.5" x2="17" y2="4.5" stroke="black" stroke-width="2" stroke-linecap="round"/><rect x="6.57999" y="0.693269" width="1.63344" height="8.11731" rx="0.193269" fill="black" stroke="black" stroke-width="0.386539"/><line x1="17" y1="13.5" x2="1" y2="13.5" stroke="black" stroke-width="2" stroke-linecap="round"/><rect x="13.6036" y="17.3067" width="1.63344" height="8.11731" rx="0.193269" transform="rotate(-180 13.6036 17.3067)" fill="black" stroke="black" stroke-width="0.386539"/></symbol>
	<symbol id="star" viewBox="0 0 11 12" fill="none" xmlns="http://www.w3.org/2000/svg"><path d="M2.48232 11.0509C2.21694 11.1871 1.91582 10.9483 1.96944 10.6435L2.54007 7.38856L0.118011 5.07915C-0.108175 4.86307 0.00938671 4.46808 0.312573 4.42541L3.67994 3.94646L5.18144 0.96886C5.31687 0.700484 5.68331 0.700484 5.81875 0.96886L7.32024 3.94646L10.6876 4.42541C10.9908 4.46808 11.1084 4.86307 10.8815 5.07915L8.46011 7.38856L9.03074 10.6435C9.08436 10.9483 8.78324 11.1871 8.51786 11.0509L5.49906 9.49841L2.48163 11.0509H2.48232Z" fill="#E5E5E5"/></symbol>
	<symbol id="starFull" viewBox="0 0 11 12" fill="none" xmlns="http://www.w3.org/2000/svg"><path d="M2.48232 11.0509C2.21694 11.1871 1.91582 10.9483 1.96944 10.6435L2.54007 7.38856L0.118011 5.07915C-0.108175 4.86307 0.00938671 4.46808 0.312573 4.42541L3.67994 3.94646L5.18144 0.96886C5.31687 0.700484 5.68331 0.700484 5.81875 0.96886L7.32024 3.94646L10.6876 4.42541C10.9908 4.46808 11.1084 4.86307 10.8815 5.07915L8.46011 7.38856L9.03074 10.6435C9.08436 10.9483 8.78324 11.1871 8.51786 11.0509L5.49906 9.49841L2.48163 11.0509H2.48232Z" fill="#BD87ED"/></symbol>
	<symbol id="home" viewBox="0 0 14 15" fill="none" xmlns="http://www.w3.org/2000/svg"><path d="M1 5.66667L7 1L13 5.66667V13C13 13.3536 12.8595 13.6928 12.6095 13.9428C12.3594 14.1929 12.0203 14.3333 11.6667 14.3333H2.33333C1.97971 14.3333 1.64057 14.1929 1.39052 13.9428C1.14048 13.6928 1 13.3536 1 13V5.66667Z" stroke="black" stroke-width="1.33333" stroke-linecap="round" stroke-linejoin="round"/><path d="M5 14.3327V7.66602H9V14.3327" stroke="black" stroke-width="1.33333" stroke-linecap="round" stroke-linejoin="round"/></symbol>
	<symbol id="faceIcon" width="70" height="69" viewBox="0 0 70 69" fill="none" xmlns="http://www.w3.org/2000/svg"><path d="M35 0C15.977 0 0.5 15.477 0.5 34.5C0.5 53.523 15.977 69 35 69C54.023 69 69.5 53.523 69.5 34.5C69.5 15.477 54.023 0 35 0ZM35 64.7757C18.3064 64.7757 4.7243 51.1936 4.7243 34.5C4.7243 17.8064 18.3064 4.2243 35 4.2243C51.6936 4.2243 65.2757 17.8064 65.2757 34.5C65.2757 51.1936 51.6936 64.7757 35 64.7757ZM25.913 28.2433C28.0658 28.2433 29.8125 26.4979 29.8125 24.3438C29.8125 22.1896 28.0656 20.4448 25.913 20.4448C23.7588 20.4448 22.0135 22.1896 22.0135 24.3438C22.0135 26.4974 23.7588 28.2433 25.913 28.2433ZM44.0865 28.2433C46.2401 28.2433 47.986 26.4979 47.986 24.3438C47.986 22.1896 46.2401 20.4448 44.0865 20.4448C41.9323 20.4448 40.1875 22.1896 40.1875 24.3438C40.1875 26.4974 41.9323 28.2433 44.0865 28.2433ZM34.9999 35.3611C24.8757 35.3611 20.0922 42.296 18.9768 45.9629C18.6379 47.0791 19.2666 48.259 20.3828 48.5979C21.5004 48.9399 22.6788 48.3081 23.0177 47.192C23.041 47.1155 25.4405 39.5854 34.9992 39.5854C44.4521 39.5854 46.8839 46.8926 46.9791 47.1916C47.2558 48.103 48.0932 48.6903 48.9991 48.6903C49.2022 48.6903 49.409 48.6614 49.6136 48.5981C50.7308 48.2591 51.3606 47.0791 51.0211 45.9636C49.9055 42.2956 45.1228 35.3612 34.9994 35.3612L34.9999 35.3611Z" fill="#BD87ED"/></symbol>
	<symbol id="sort" viewBox="0 0 24 17" fill="none" xmlns="http://www.w3.org/2000/svg"> <path d="M6.88888 13.6113H1.77779C1.07208 13.6113 0.5 14.1834 0.5 14.8891C0.5 15.5948 1.07208 16.1669 1.77779 16.1669H6.88888C7.59458 16.1669 8.16667 15.5948 8.16667 14.8891C8.16667 14.1834 7.59458 13.6113 6.88888 13.6113Z" fill="#060D21"/> <path d="M14.5555 7.22168H1.77779C1.07208 7.22168 0.5 7.79376 0.5 8.49947C0.5 9.20517 1.07208 9.77726 1.77779 9.77726H14.5555C15.2612 9.77726 15.8333 9.20517 15.8333 8.49947C15.8333 7.79376 15.2612 7.22168 14.5555 7.22168Z" fill="#060D21"/> <path d="M22.2222 0.833008H1.77779C1.07209 0.833008 0.5 1.40509 0.5 2.1108C0.5 2.8165 1.07208 3.38858 1.77779 3.38858H22.2222C22.9279 3.38858 23.5 2.8165 23.5 2.1108C23.5 1.40509 22.9279 0.833008 22.2222 0.833008Z" fill="#060D21"/> </symbol>
	<symbol id="filterMobile" viewBox="0 0 24 16" fill="none" xmlns="http://www.w3.org/2000/svg"><path d="M9.44444 14.0556C9.44444 14.7613 10.0165 15.3333 10.7222 15.3333H13.2778C13.9835 15.3333 14.5556 14.7613 14.5556 14.0556C14.5556 13.3499 13.9835 12.7778 13.2778 12.7778H10.7222C10.0165 12.7778 9.44444 13.3499 9.44444 14.0556ZM1.77778 0C1.07208 0 0.5 0.57208 0.5 1.27778C0.5 1.98348 1.07208 2.55556 1.77778 2.55556H22.2222C22.9279 2.55556 23.5 1.98348 23.5 1.27778C23.5 0.57208 22.9279 0 22.2222 0H1.77778ZM4.33333 7.66667C4.33333 8.37236 4.90541 8.94444 5.61111 8.94444H18.3889C19.0946 8.94444 19.6667 8.37236 19.6667 7.66667C19.6667 6.96097 19.0946 6.38889 18.3889 6.38889H5.61111C4.90541 6.38889 4.33333 6.96097 4.33333 7.66667Z" fill="#060D21"/></symbol>
	<symbol id="closeFilter" viewBox="0 0 19 18" fill="none" xmlns="http://www.w3.org/2000/svg"><path d="M17 1.5L2 16.5" stroke="black" stroke-width="3" stroke-linecap="round" stroke-linejoin="round"/><path d="M2 1.5L17 16.5" stroke="black" stroke-width="3" stroke-linecap="round" stroke-linejoin="round"/></symbol>
	<symbol id="add" viewBox="0 0 20 20" fill="none" xmlns="http://www.w3.org/2000/svg"><rect width="20" height="20" rx="10" fill="#F9F9F9"/><path d="M9.6291 15C9.40818 15 9.2291 14.8209 9.2291 14.6V11.0998C9.2291 10.8789 9.05001 10.6998 8.8291 10.6998H5.38975C5.16883 10.6998 4.98975 10.5207 4.98975 10.2998V9.59878C4.98975 9.37787 5.16883 9.19878 5.38975 9.19878H8.8291C9.05001 9.19878 9.2291 9.0197 9.2291 8.79878V5.4C9.2291 5.17909 9.40818 5 9.6291 5H10.3707C10.5916 5 10.7707 5.17909 10.7707 5.4V8.79878C10.7707 9.0197 10.9498 9.19878 11.1707 9.19878H14.61C14.8309 9.19878 15.01 9.37787 15.01 9.59878V10.2998C15.01 10.5207 14.8309 10.6998 14.61 10.6998H11.1707C10.9498 10.6998 10.7707 10.8789 10.7707 11.0998V14.6C10.7707 14.8209 10.5916 15 10.3707 15H9.6291Z" fill="black"/></symbol>
	<symbol id="remove" width="20" height="20" viewBox="0 0 20 20" fill="none" xmlns="http://www.w3.org/2000/svg"><rect width="20" height="20" rx="10" fill="#F9F9F9"/><path d="M9.23077 10.749H5.4C5.17909 10.749 5 10.5699 5 10.349V9.65098C5 9.43006 5.17909 9.25098 5.4 9.25098H9.23077L10.7692 9.25103L14.6 9.25098C14.8209 9.25098 15 9.43007 15 9.65098V10.349C15 10.5699 14.8209 10.749 14.6 10.749H10.7692H9.23077Z" fill="#999999"/></symbol>
	<symbol id="closeCart" viewBox="0 0 16 16" fill="none" xmlns="http://www.w3.org/2000/svg"><path d="M14 2L2 14" stroke="black" stroke-width="3" stroke-linecap="round" stroke-linejoin="round"/><path d="M2 2L14 14" stroke="black" stroke-width="3" stroke-linecap="round" stroke-linejoin="round"/></symbol>
	<symbol id="cart" viewBox="0 0 96 96" fill="none" xmlns="http://www.w3.org/2000/svg"><path d="M3.19623 0C2.34853 0 1.53556 0.336744 0.936153 0.936153C0.336744 1.53556 0 2.34853 0 3.19623C0 4.04392 0.336744 4.85689 0.936153 5.4563C1.53556 6.05571 2.34853 6.39245 3.19623 6.39245H10.2918L12.8552 16.6651L22.4311 67.7088C22.5682 68.4413 22.9569 69.1028 23.53 69.579C24.1032 70.0552 24.8246 70.3163 25.5698 70.317H31.9623C28.5715 70.317 25.3196 71.6639 22.922 74.0616C20.5243 76.4592 19.1774 79.7111 19.1774 83.1019C19.1774 86.4926 20.5243 89.7445 22.922 92.1421C25.3196 94.5398 28.5715 95.8868 31.9623 95.8868C35.353 95.8868 38.6049 94.5398 41.0025 92.1421C43.4002 89.7445 44.7472 86.4926 44.7472 83.1019C44.7472 79.7111 43.4002 76.4592 41.0025 74.0616C38.6049 71.6639 35.353 70.317 31.9623 70.317H76.7094C73.3186 70.317 70.0667 71.6639 67.6691 74.0616C65.2715 76.4592 63.9245 79.7111 63.9245 83.1019C63.9245 86.4926 65.2715 89.7445 67.6691 92.1421C70.0667 94.5398 73.3186 95.8868 76.7094 95.8868C80.1002 95.8868 83.3521 94.5398 85.7497 92.1421C88.1473 89.7445 89.4943 86.4926 89.4943 83.1019C89.4943 79.7111 88.1473 76.4592 85.7497 74.0616C83.3521 71.6639 80.1002 70.317 76.7094 70.317H83.1019C83.847 70.3163 84.5685 70.0552 85.1416 69.579C85.7147 69.1028 86.1034 68.4413 86.2405 67.7088L95.8292 16.5692C95.9156 16.1079 95.8993 15.6333 95.7815 15.179C95.6637 14.7247 95.4473 14.3019 95.1477 13.9407C94.8481 13.5794 94.4727 13.2886 94.048 13.0889C93.6233 12.8891 93.1598 12.7853 92.6905 12.7849H18.4742L15.8852 2.42274C15.7127 1.73097 15.3138 1.11675 14.7521 0.677758C14.1903 0.238762 13.4979 0.000196961 12.7849 0H3.19623ZM28.2227 63.9245L19.8294 19.1774H88.8423L80.449 63.9245H28.2227ZM38.3547 83.1019C38.3547 84.7972 37.6812 86.4232 36.4824 87.622C35.2836 88.8208 33.6576 89.4943 31.9623 89.4943C30.2669 89.4943 28.6409 88.8208 27.4421 87.622C26.2433 86.4232 25.5698 84.7972 25.5698 83.1019C25.5698 81.4065 26.2433 79.7805 27.4421 78.5817C28.6409 77.3829 30.2669 76.7094 31.9623 76.7094C33.6576 76.7094 35.2836 77.3829 36.4824 78.5817C37.6812 79.7805 38.3547 81.4065 38.3547 83.1019ZM83.1019 83.1019C83.1019 84.7972 82.4284 86.4232 81.2295 87.622C80.0307 88.8208 78.4048 89.4943 76.7094 89.4943C75.014 89.4943 73.3881 88.8208 72.1893 87.622C70.9904 86.4232 70.317 84.7972 70.317 83.1019C70.317 81.4065 70.9904 79.7805 72.1893 78.5817C73.3881 77.3829 75.014 76.7094 76.7094 76.7094C78.4048 76.7094 80.0307 77.3829 81.2295 78.5817C82.4284 79.7805 83.1019 81.4065 83.1019 83.1019Z" fill="#A3E3FF"/></symbol>
</svg>

