<svg style="display:none" xmlns="http://www.w3.org/2000/svg" xmlns:xlink="http://www.w3.org/1999/xlink" version="1.1">
	<symbol id="menu" xmlns="http://www.w3.org/2000/svg" viewBox="0 -960 960 960" fill="currentColor"><path d="M120-240v-80h720v80H120Zm0-200v-80h720v80H120Zm0-200v-80h720v80H120Z"/></symbol>
	<symbol id="account_circle" xmlns="http://www.w3.org/2000/svg" viewBox="0 -960 960 960" fill="currentColor"><path d="M234-276q51-39 114-61.5T480-360q69 0 132 22.5T726-276q35-41 54.5-93T800-480q0-133-93.5-226.5T480-800q-133 0-226.5 93.5T160-480q0 59 19.5 111t54.5 93Zm246-164q-59 0-99.5-40.5T340-580q0-59 40.5-99.5T480-720q59 0 99.5 40.5T620-580q0 59-40.5 99.5T480-440Zm0 360q-83 0-156-31.5T197-197q-54-54-85.5-127T80-480q0-83 31.5-156T197-763q54-54 127-85.5T480-880q83 0 156 31.5T763-763q54 54 85.5 127T880-480q0 83-31.5 156T763-197q-54 54-127 85.5T480-80Zm0-80q53 0 100-15.5t86-44.5q-39-29-86-44.5T480-280q-53 0-100 15.5T294-220q39 29 86 44.5T480-160Zm0-360q26 0 43-17t17-43q0-26-17-43t-43-17q-26 0-43 17t-17 43q0 26 17 43t43 17Zm0-60Zm0 360Z"/></symbol>
	<symbol id="chevron-right" xmlns="http://www.w3.org/2000/svg" viewBox="0 -960 960 960" fill="currentColor"><path d="M504-480 320-664l56-56 240 240-240 240-56-56 184-184Z"/></symbol>
	<symbol id="favorite" xmlns="http://www.w3.org/2000/svg" viewBox="0 -960 960 960" fill="currentColor"><path d="m480-120-58-52q-101-91-167-157T150-447.5Q111-500 95.5-544T80-634q0-94 63-157t157-63q52 0 99 22t81 62q34-40 81-62t99-22q94 0 157 63t63 157q0 46-15.5 90T810-447.5Q771-395 705-329T538-172l-58 52Zm0-108q96-86 158-147.5t98-107q36-45.5 50-81t14-70.5q0-60-40-100t-100-40q-47 0-87 26.5T518-680h-76q-15-41-55-67.5T300-774q-60 0-100 40t-40 100q0 35 14 70.5t50 81q36 45.5 98 107T480-228Zm0-273Z"/></symbol>
	<symbol id="home_pin" xmlns="http://www.w3.org/2000/svg" viewBox="0 -960 960 960" fill="currentColor"><path d="M360-440h80v-110h80v110h80v-190l-120-80-120 80v190Zm120 254q122-112 181-203.5T720-552q0-109-69.5-178.5T480-800q-101 0-170.5 69.5T240-552q0 71 59 162.5T480-186Zm0 106Q319-217 239.5-334.5T160-552q0-150 96.5-239T480-880q127 0 223.5 89T800-552q0 100-79.5 217.5T480-80Zm0-480Z"/></symbol>
	<symbol id="call" xmlns="http://www.w3.org/2000/svg" viewBox="0 -960 960 960" fill="currentColor"><path d="M798-120q-125 0-247-54.5T329-329Q229-429 174.5-551T120-798q0-18 12-30t30-12h162q14 0 25 9.5t13 22.5l26 140q2 16-1 27t-11 19l-97 98q20 37 47.5 71.5T387-386q31 31 65 57.5t72 48.5l94-94q9-9 23.5-13.5T670-390l138 28q14 4 23 14.5t9 23.5v162q0 18-12 30t-30 12ZM241-600l66-66-17-94h-89q5 41 14 81t26 79Zm358 358q39 17 79.5 27t81.5 13v-88l-94-19-67 67ZM241-600Zm358 358Z"/></symbol>
	<symbol id="local_shipping" xmlns="http://www.w3.org/2000/svg" viewBox="0 -960 960 960" fill="currentColor"><path d="M240-160q-50 0-85-35t-35-85H40v-440q0-33 23.5-56.5T120-800h560v160h120l120 160v200h-80q0 50-35 85t-85 35q-50 0-85-35t-35-85H360q0 50-35 85t-85 35Zm0-80q17 0 28.5-11.5T280-280q0-17-11.5-28.5T240-320q-17 0-28.5 11.5T200-280q0 17 11.5 28.5T240-240ZM120-360h32q17-18 39-29t49-11q27 0 49 11t39 29h272v-360H120v360Zm600 120q17 0 28.5-11.5T760-280q0-17-11.5-28.5T720-320q-17 0-28.5 11.5T680-280q0 17 11.5 28.5T720-240Zm-40-200h170l-90-120h-80v120ZM360-540Z"/></symbol>
	<symbol id="pan_zoom" xmlns="http://www.w3.org/2000/svg" viewBox="0 -960 960 960" fill="currentColor"><path d="M120-120v-240h80v104l124-124 56 56-124 124h104v80H120Zm516-460-56-56 124-124H600v-80h240v240h-80v-104L636-580Z"/></symbol>
	<symbol id="share" xmlns="http://www.w3.org/2000/svg" viewBox="0 -960 960 960" fill="currentColor"><path d="M720-80q-50 0-85-35t-35-85q0-7 1-14.5t3-13.5L322-392q-17 15-38 23.5t-44 8.5q-50 0-85-35t-35-85q0-50 35-85t85-35q23 0 44 8.5t38 23.5l282-164q-2-6-3-13.5t-1-14.5q0-50 35-85t85-35q50 0 85 35t35 85q0 50-35 85t-85 35q-23 0-44-8.5T638-672L356-508q2 6 3 13.5t1 14.5q0 7-1 14.5t-3 13.5l282 164q17-15 38-23.5t44-8.5q50 0 85 35t35 85q0 50-35 85t-85 35Zm0-640q17 0 28.5-11.5T760-760q0-17-11.5-28.5T720-800q-17 0-28.5 11.5T680-760q0 17 11.5 28.5T720-720ZM240-440q17 0 28.5-11.5T280-480q0-17-11.5-28.5T240-520q-17 0-28.5 11.5T200-480q0 17 11.5 28.5T240-440Zm480 280q17 0 28.5-11.5T760-200q0-17-11.5-28.5T720-240q-17 0-28.5 11.5T680-200q0 17 11.5 28.5T720-160Zm0-600ZM240-480Zm480 280Z"/></symbol>
	<symbol id="sell" xmlns="http://www.w3.org/2000/svg" viewBox="0 -960 960 960" fill="currentColor"><path d="M856-390 570-104q-12 12-27 18t-30 6q-15 0-30-6t-27-18L103-457q-11-11-17-25.5T80-513v-287q0-33 23.5-56.5T160-880h287q16 0 31 6.5t26 17.5l352 353q12 12 17.5 27t5.5 30q0 15-5.5 29.5T856-390ZM513-160l286-286-353-354H160v286l353 354ZM260-640q25 0 42.5-17.5T320-700q0-25-17.5-42.5T260-760q-25 0-42.5 17.5T200-700q0 25 17.5 42.5T260-640Zm220 160Z"/></symbol>
	<symbol id="check-circle" xmlns="http://www.w3.org/2000/svg" viewBox="0 -960 960 960" fill="currentColor"><path d="m424-296 282-282-56-56-226 226-114-114-56 56 170 170Zm56 216q-83 0-156-31.5T197-197q-54-54-85.5-127T80-480q0-83 31.5-156T197-763q54-54 127-85.5T480-880q83 0 156 31.5T763-763q54 54 85.5 127T880-480q0 83-31.5 156T763-197q-54 54-127 85.5T480-80Zm0-80q134 0 227-93t93-227q0-134-93-227t-227-93q-134 0-227 93t-93 227q0 134 93 227t227 93Zm0-320Z"/></symbol>
	<symbol id="error" xmlns="http://www.w3.org/2000/svg" viewBox="0 -960 960 960" fill="currentColor"><path d="M480-280q17 0 28.5-11.5T520-320q0-17-11.5-28.5T480-360q-17 0-28.5 11.5T440-320q0 17 11.5 28.5T480-280Zm-40-160h80v-240h-80v240Zm40 360q-83 0-156-31.5T197-197q-54-54-85.5-127T80-480q0-83 31.5-156T197-763q54-54 127-85.5T480-880q83 0 156 31.5T763-763q54 54 85.5 127T880-480q0 83-31.5 156T763-197q-54 54-127 85.5T480-80Zm0-80q134 0 227-93t93-227q0-134-93-227t-227-93q-134 0-227 93t-93 227q0 134 93 227t227 93Zm0-320Z"/></symbol>
	<symbol id="trash" xmlns="http://www.w3.org/2000/svg" viewBox="0 -960 960 960" fill="currentColor"><path d="M280-120q-33 0-56.5-23.5T200-200v-520h-40v-80h200v-40h240v40h200v80h-40v520q0 33-23.5 56.5T680-120H280Zm400-600H280v520h400v-520ZM360-280h80v-360h-80v360Zm160 0h80v-360h-80v360ZM280-720v520-520Z"/></symbol>
	<symbol id="search" width="18" height="17" viewBox="0 0 18 17" fill="none" xmlns="http://www.w3.org/2000/svg"><path d="M16.939 15.5354L14.5807 13.1854C15.8591 11.606 16.4828 9.59619 16.3231 7.57044C16.1633 5.54469 15.2324 3.65747 13.7221 2.29793C12.2119 0.938383 10.2376 0.210179 8.20622 0.263474C6.17489 0.316769 4.24145 1.1475 2.80458 2.58436C1.36771 4.02123 0.536984 5.95467 0.483689 7.98601C0.430394 10.0173 1.1586 11.9917 2.51814 13.5019C3.87769 15.0122 5.76491 15.9431 7.79065 16.1029C9.8164 16.2626 11.8262 15.6389 13.4057 14.3604L15.7557 16.7188C15.8331 16.7969 15.9253 16.8589 16.0268 16.9012C16.1284 16.9435 16.2373 16.9653 16.3473 16.9653C16.4573 16.9653 16.5663 16.9435 16.6678 16.9012C16.7694 16.8589 16.8615 16.7969 16.939 16.7188C17.0171 16.6413 17.0791 16.5491 17.1214 16.4476C17.1637 16.346 17.1855 16.2371 17.1855 16.1271C17.1855 16.0171 17.1637 15.9082 17.1214 15.8066C17.0791 15.7051 17.0171 15.6129 16.939 15.5354ZM2.18066 8.21044C2.18066 6.97431 2.54721 5.76594 3.23397 4.73813C3.92073 3.71032 4.89685 2.90924 6.03889 2.4362C7.18092 1.96315 8.43759 1.83938 9.64997 2.08054C10.8624 2.32169 11.976 2.91695 12.8501 3.79103C13.7242 4.6651 14.3194 5.77875 14.5606 6.99113C14.8017 8.20351 14.678 9.46018 14.2049 10.6022C13.7319 11.7443 12.9308 12.7204 11.903 13.4071C10.8752 14.0939 9.66679 14.4604 8.43066 14.4604C6.77306 14.4604 5.18334 13.802 4.01124 12.6299C2.83914 11.4578 2.18066 9.86805 2.18066 8.21044Z" fill="#999999"/></symbol>
	<symbol id="shopping_bag"  width="24" height="23" viewBox="0 0 24 23" fill="none" xmlns="http://www.w3.org/2000/svg"><path d="M1.60242 0.0605469C1.40224 0.0605469 1.21027 0.140066 1.06872 0.281611C0.927175 0.423156 0.847656 0.615133 0.847656 0.815308C0.847656 1.01548 0.927175 1.20746 1.06872 1.349C1.21027 1.49055 1.40224 1.57007 1.60242 1.57007H3.27799L3.8833 3.99587L6.14457 16.0494C6.17694 16.2224 6.26873 16.3786 6.40407 16.491C6.53941 16.6035 6.70978 16.6651 6.88574 16.6653H8.39526C7.59456 16.6653 6.82666 16.9834 6.26048 17.5495C5.6943 18.1157 5.37622 18.8836 5.37622 19.6843C5.37622 20.485 5.6943 21.2529 6.26048 21.8191C6.82666 22.3853 7.59456 22.7034 8.39526 22.7034C9.19596 22.7034 9.96387 22.3853 10.53 21.8191C11.0962 21.2529 11.4143 20.485 11.4143 19.6843C11.4143 18.8836 11.0962 18.1157 10.53 17.5495C9.96387 16.9834 9.19596 16.6653 8.39526 16.6653H18.9619C18.1612 16.6653 17.3933 16.9834 16.8271 17.5495C16.2609 18.1157 15.9429 18.8836 15.9429 19.6843C15.9429 20.485 16.2609 21.2529 16.8271 21.8191C17.3933 22.3853 18.1612 22.7034 18.9619 22.7034C19.7626 22.7034 20.5305 22.3853 21.0967 21.8191C21.6629 21.2529 21.981 20.485 21.981 19.6843C21.981 18.8836 21.6629 18.1157 21.0967 17.5495C20.5305 16.9834 19.7626 16.6653 18.9619 16.6653H20.4714C20.6474 16.6651 20.8178 16.6035 20.9531 16.491C21.0884 16.3786 21.1802 16.2224 21.2126 16.0494L23.4769 3.97323C23.4973 3.8643 23.4934 3.75221 23.4656 3.64493C23.4378 3.53766 23.3867 3.43782 23.316 3.35252C23.2452 3.26721 23.1566 3.19854 23.0563 3.15137C22.956 3.1042 22.8465 3.07969 22.7357 3.07959H5.21017L4.59882 0.632655C4.55807 0.469301 4.46388 0.324258 4.33123 0.220593C4.19857 0.116929 4.03506 0.0605934 3.8667 0.0605469H1.60242ZM7.51219 15.1558L5.53019 4.58911H21.827L19.845 15.1558H7.51219ZM9.90479 19.6843C9.90479 20.0847 9.74575 20.4686 9.46266 20.7517C9.17957 21.0348 8.79561 21.1938 8.39526 21.1938C7.99491 21.1938 7.61096 21.0348 7.32787 20.7517C7.04478 20.4686 6.88574 20.0847 6.88574 19.6843C6.88574 19.284 7.04478 18.9 7.32787 18.6169C7.61096 18.3338 7.99491 18.1748 8.39526 18.1748C8.79561 18.1748 9.17957 18.3338 9.46266 18.6169C9.74575 18.9 9.90479 19.284 9.90479 19.6843ZM20.4714 19.6843C20.4714 20.0847 20.3124 20.4686 20.0293 20.7517C19.7462 21.0348 19.3623 21.1938 18.9619 21.1938C18.5616 21.1938 18.1776 21.0348 17.8945 20.7517C17.6114 20.4686 17.4524 20.0847 17.4524 19.6843C17.4524 19.284 17.6114 18.9 17.8945 18.6169C18.1776 18.3338 18.5616 18.1748 18.9619 18.1748C19.3623 18.1748 19.7462 18.3338 20.0293 18.6169C20.3124 18.9 20.4714 19.284 20.4714 19.6843Z" fill="black"/></symbol>
	<symbol id="heart" width="24" height="21" viewBox="0 0 24 21" fill="none" xmlns="http://www.w3.org/2000/svg"><path d="M20.6878 3.16065C20.177 2.64966 19.5706 2.2443 18.9031 1.96774C18.2357 1.69118 17.5203 1.54883 16.7978 1.54883C16.0753 1.54883 15.3599 1.69118 14.6924 1.96774C14.025 2.2443 13.4185 2.64966 12.9078 3.16065L11.8478 4.22065L10.7878 3.16065C9.75608 2.12896 8.35681 1.54936 6.89778 1.54936C5.43874 1.54936 4.03947 2.12896 3.00778 3.16065C1.97608 4.19235 1.39648 5.59162 1.39648 7.05065C1.39648 8.50969 1.97608 9.90896 3.00778 10.9407L4.06777 12.0007L11.8478 19.7807L19.6278 12.0007L20.6878 10.9407C21.1988 10.4299 21.6041 9.82347 21.8807 9.15601C22.1573 8.48855 22.2996 7.77314 22.2996 7.05065C22.2996 6.32817 22.1573 5.61276 21.8807 4.9453C21.6041 4.27784 21.1988 3.67141 20.6878 3.16065V3.16065Z" stroke="black" stroke-width="1.5" stroke-linecap="round" stroke-linejoin="round"/></symbol>
	<symbol id="user" width="25" height="25" viewBox="0 0 25 25" fill="none" xmlns="http://www.w3.org/2000/svg"><path d="M20.8477 21.5508V19.5508C20.8477 18.4899 20.4262 17.4725 19.6761 16.7224C18.9259 15.9722 17.9085 15.5508 16.8477 15.5508H8.84766C7.78679 15.5508 6.76937 15.9722 6.01923 16.7224C5.26908 17.4725 4.84766 18.4899 4.84766 19.5508V21.5508" stroke="black" stroke-width="1.5" stroke-linecap="round" stroke-linejoin="round"/><path d="M12.8477 11.5508C15.0568 11.5508 16.8477 9.75992 16.8477 7.55078C16.8477 5.34164 15.0568 3.55078 12.8477 3.55078C10.6385 3.55078 8.84766 5.34164 8.84766 7.55078C8.84766 9.75992 10.6385 11.5508 12.8477 11.5508Z" stroke="black" stroke-width="1.5" stroke-linecap="round" stroke-linejoin="round"/></symbol>
	<symbol id="drawerArrowRight" width="8" height="14" viewBox="0 0 8 14" fill="none" xmlns="http://www.w3.org/2000/svg"><path d="M1 13L7 7L1 1" stroke="black" stroke-width="2" stroke-linecap="round" stroke-linejoin="round"/></symbol>
	<symbol id="drawerArrowLeft" width="30" height="30" viewBox="0 0 30 30" fill="none" xmlns="http://www.w3.org/2000/svg"><path d="M18.75 22.5L11 14.75L18.75 7" stroke="#060D21" stroke-width="2" stroke-linecap="round" stroke-linejoin="round"/></symbol>
	<symbol id="drawerUser" width="40" height="40" viewBox="0 0 40 40" fill="none" xmlns="http://www.w3.org/2000/svg"><circle cx="20" cy="20" r="20" fill="#A3E3FF"/><path d="M27.625 27.825H27.825V27.625V26.25C27.825 26.0738 27.7217 25.9104 27.5981 25.7735C27.4686 25.6301 27.2865 25.4827 27.0667 25.336C26.6259 25.0418 26.0066 24.7324 25.2767 24.4509C23.8167 23.8878 21.8859 23.425 20 23.425C18.1141 23.425 16.1833 23.8878 14.7233 24.4509C13.9934 24.7324 13.3741 25.0418 12.9333 25.336C12.7135 25.4827 12.5314 25.6301 12.4019 25.7735C12.2783 25.9104 12.175 26.0738 12.175 26.25V27.625V27.825H12.375H27.625ZM22.825 15C22.825 13.4395 21.5605 12.175 20 12.175C18.4395 12.175 17.175 13.4395 17.175 15C17.175 16.5605 18.4395 17.825 20 17.825C21.5605 17.825 22.825 16.5605 22.825 15ZM15.2 15C15.2 12.348 17.348 10.2 20 10.2C22.652 10.2 24.8 12.348 24.8 15C24.8 17.652 22.652 19.8 20 19.8C17.348 19.8 15.2 17.652 15.2 15ZM10.2 26.25C10.2 25.4922 10.578 24.8136 11.2288 24.213C11.881 23.6111 12.7936 23.1011 13.8228 22.6888C15.8815 21.8641 18.3563 21.45 20 21.45C21.6437 21.45 24.1185 21.8641 26.1772 22.6888C27.2064 23.1011 28.119 23.6111 28.7712 24.213C29.422 24.8136 29.8 25.4922 29.8 26.25V29.8H10.2V26.25Z" fill="#8F2AED" stroke="#A3E3FF" stroke-width="0.4"/></symbol>
	<symbol id="close" width="30" height="30" viewBox="0 0 30 30" fill="none" xmlns="http://www.w3.org/2000/svg"><path d="M22.5 7.5L7.5 22.5" stroke="black" stroke-width="2" stroke-linecap="round" stroke-linejoin="round"/><path d="M7.5 7.5L22.5 22.5" stroke="black" stroke-width="2" stroke-linecap="round" stroke-linejoin="round"/></symbol>
</svg>
